<?xml version="1.0" encoding="UTF-8" standalone="no"?>
<!DOCTYPE svg PUBLIC "-//W3C//DTD SVG 1.1//EN"
 "http://www.w3.org/Graphics/SVG/1.1/DTD/svg11.dtd">
<!-- Generated by graphviz version 2.40.1 (20161225.0304)
 -->
<!-- Title: dependencies Pages: 1 -->
<svg width="1904pt" height="476pt"
 viewBox="0.00 0.00 1903.99 476.00" xmlns="http://www.w3.org/2000/svg" xmlns:xlink="http://www.w3.org/1999/xlink">
<g id="graph0" class="graph" transform="scale(1 1) rotate(0) translate(4 472)">
<title>dependencies</title>
<polygon fill="#ffffff" stroke="transparent" points="-4,4 -4,-472 1899.9919,-472 1899.9919,4 -4,4"/>
<!-- N0 -->
<g id="node1" class="node">
<title>N0</title>
<ellipse fill="none" stroke="#000000" cx="1719.1949" cy="-450" rx="29.4969" ry="18"/>
<text text-anchor="middle" x="1719.1949" y="-446.3" font-family="Times,serif" font-size="14.00" fill="#000000">news</text>
</g>
<!-- N1 -->
<g id="node2" class="node">
<title>N1</title>
<ellipse fill="none" stroke="#000000" cx="1128.1949" cy="-378" rx="27" ry="18"/>
<text text-anchor="middle" x="1128.1949" y="-374.3" font-family="Times,serif" font-size="14.00" fill="#000000">iron</text>
</g>
<!-- N0&#45;&gt;N1 -->
<g id="edge1" class="edge">
<title>N0&#45;&gt;N1</title>
<path fill="none" stroke="#000000" d="M1690.2897,-446.4786C1592.5039,-434.5656 1274.1329,-395.7792 1165.1673,-382.5042"/>
<polygon fill="#000000" stroke="#000000" points="1165.3441,-379 1154.9942,-381.2649 1164.4975,-385.9486 1165.3441,-379"/>
</g>
<!-- N2 -->
<g id="node3" class="node">
<title>N2</title>
<ellipse fill="none" stroke="#000000" cx="1724.1949" cy="-234" rx="31.3957" ry="18"/>
<text text-anchor="middle" x="1724.1949" y="-230.3" font-family="Times,serif" font-size="14.00" fill="#000000">maud</text>
</g>
<!-- N0&#45;&gt;N2 -->
<g id="edge2" class="edge">
<title>N0&#45;&gt;N2</title>
<path fill="none" stroke="#000000" d="M1729.1504,-432.6343C1734.4689,-422.3457 1740.4689,-408.8457 1743.1949,-396 1753.0612,-349.508 1741.824,-294.3457 1732.9138,-261.8652"/>
<polygon fill="#000000" stroke="#000000" points="1736.2512,-260.8057 1730.1324,-252.1563 1729.5219,-262.7336 1736.2512,-260.8057"/>
</g>
<!-- N3 -->
<g id="node4" class="node">
<title>N3</title>
<ellipse fill="none" stroke="#000000" cx="1634.1949" cy="-306" rx="61.99" ry="18"/>
<text text-anchor="middle" x="1634.1949" y="-302.3" font-family="Times,serif" font-size="14.00" fill="#000000">maud_macros</text>
</g>
<!-- N0&#45;&gt;N3 -->
<g id="edge3" class="edge">
<title>N0&#45;&gt;N3</title>
<path fill="none" stroke="#000000" d="M1690.9955,-444.5796C1665.198,-437.9639 1628.4979,-423.9967 1611.1949,-396 1599.2998,-376.7533 1607.3504,-351.5715 1617.0575,-332.7405"/>
<polygon fill="#000000" stroke="#000000" points="1620.2287,-334.2395 1622.0311,-323.7991 1614.1114,-330.8367 1620.2287,-334.2395"/>
</g>
<!-- N4 -->
<g id="node5" class="node">
<title>N4</title>
<ellipse fill="none" stroke="#000000" cx="1677.1949" cy="-378" rx="56.59" ry="18"/>
<text text-anchor="middle" x="1677.1949" y="-374.3" font-family="Times,serif" font-size="14.00" fill="#000000">slideby&#45;html</text>
</g>
<!-- N0&#45;&gt;N4 -->
<g id="edge4" class="edge">
<title>N0&#45;&gt;N4</title>
<path fill="none" stroke="#000000" d="M1709.2415,-432.937C1704.3149,-424.4914 1698.2544,-414.1019 1692.7347,-404.6396"/>
<polygon fill="#000000" stroke="#000000" points="1695.725,-402.8195 1687.663,-395.9453 1689.6785,-406.3466 1695.725,-402.8195"/>
</g>
<!-- N5 -->
<g id="node6" class="node">
<title>N5</title>
<ellipse fill="none" stroke="#000000" cx="1849.1949" cy="-306" rx="45.4919" ry="18"/>
<text text-anchor="middle" x="1849.1949" y="-302.3" font-family="Times,serif" font-size="14.00" fill="#000000">yaml&#45;rust</text>
</g>
<!-- N0&#45;&gt;N5 -->
<g id="edge5" class="edge">
<title>N0&#45;&gt;N5</title>
<path fill="none" stroke="#000000" d="M1735.9634,-435.1841C1747.6236,-424.6284 1763.3217,-409.9032 1776.1949,-396 1795.5158,-375.1331 1815.7563,-349.871 1830.0105,-331.4292"/>
<polygon fill="#000000" stroke="#000000" points="1832.8023,-333.5402 1836.1136,-323.4761 1827.249,-329.2786 1832.8023,-333.5402"/>
</g>
<!-- N6 -->
<g id="node7" class="node">
<title>N6</title>
<ellipse fill="none" stroke="#000000" cx="1862.1949" cy="-378" rx="33.5952" ry="18"/>
<text text-anchor="middle" x="1862.1949" y="-374.3" font-family="Times,serif" font-size="14.00" fill="#000000">yassyl</text>
</g>
<!-- N0&#45;&gt;N6 -->
<g id="edge6" class="edge">
<title>N0&#45;&gt;N6</title>
<path fill="none" stroke="#000000" d="M1741.8537,-438.5914C1765.1016,-426.8862 1801.5452,-408.5369 1828.2406,-395.0959"/>
<polygon fill="#000000" stroke="#000000" points="1829.8812,-398.1885 1837.239,-390.5652 1826.7332,-391.9363 1829.8812,-398.1885"/>
</g>
<!-- N7 -->
<g id="node8" class="node">
<title>N7</title>
<ellipse fill="none" stroke="#000000" cx="1271.1949" cy="-306" rx="83.6854" ry="18"/>
<text text-anchor="middle" x="1271.1949" y="-302.3" font-family="Times,serif" font-size="14.00" fill="#000000">conduit&#45;mime&#45;types</text>
</g>
<!-- N1&#45;&gt;N7 -->
<g id="edge7" class="edge">
<title>N1&#45;&gt;N7</title>
<path fill="none" stroke="#000000" d="M1149.9135,-367.0647C1170.7896,-356.5538 1202.9056,-340.3835 1228.8453,-327.3229"/>
<polygon fill="#000000" stroke="#000000" points="1230.7325,-330.2913 1238.0903,-322.6681 1227.5845,-324.0391 1230.7325,-330.2913"/>
</g>
<!-- N9 -->
<g id="node10" class="node">
<title>N9</title>
<ellipse fill="none" stroke="#000000" cx="1401.1949" cy="-306" rx="28.6953" ry="18"/>
<text text-anchor="middle" x="1401.1949" y="-302.3" font-family="Times,serif" font-size="14.00" fill="#000000">error</text>
</g>
<!-- N1&#45;&gt;N9 -->
<g id="edge8" class="edge">
<title>N1&#45;&gt;N9</title>
<path fill="none" stroke="#000000" d="M1154.5859,-373.9825C1198.7996,-366.8079 1290.2645,-350.0571 1364.1949,-324 1366.0645,-323.3411 1367.9635,-322.6135 1369.8636,-321.8399"/>
<polygon fill="#000000" stroke="#000000" points="1371.5116,-324.9381 1379.242,-317.693 1368.6807,-318.5361 1371.5116,-324.9381"/>
</g>
<!-- N13 -->
<g id="node14" class="node">
<title>N13</title>
<ellipse fill="none" stroke="#000000" cx="750.1949" cy="-306" rx="31.3957" ry="18"/>
<text text-anchor="middle" x="750.1949" y="-302.3" font-family="Times,serif" font-size="14.00" fill="#000000">hyper</text>
</g>
<!-- N1&#45;&gt;N13 -->
<g id="edge9" class="edge">
<title>N1&#45;&gt;N13</title>
<path fill="none" stroke="#000000" d="M1102.2135,-373.0511C1037.2434,-360.6759 867.3918,-328.3232 789.8413,-313.5517"/>
<polygon fill="#000000" stroke="#000000" points="790.4501,-310.1048 779.9718,-311.6718 789.1403,-316.9812 790.4501,-310.1048"/>
</g>
<!-- N15 -->
<g id="node16" class="node">
<title>N15</title>
<ellipse fill="none" stroke="#000000" cx="860.1949" cy="-162" rx="27" ry="18"/>
<text text-anchor="middle" x="860.1949" y="-158.3" font-family="Times,serif" font-size="14.00" fill="#000000">log</text>
</g>
<!-- N1&#45;&gt;N15 -->
<g id="edge10" class="edge">
<title>N1&#45;&gt;N15</title>
<path fill="none" stroke="#000000" d="M1102.2253,-372.9193C1058.3854,-363.9027 972.2167,-344.1481 949.1949,-324 909.5306,-289.2867 926.9203,-261.4316 900.1949,-216 894.126,-205.6832 886.4972,-194.9627 879.5334,-185.8191"/>
<polygon fill="#000000" stroke="#000000" points="882.2921,-183.6651 873.3889,-177.9219 876.7674,-187.9637 882.2921,-183.6651"/>
</g>
<!-- N17 -->
<g id="node18" class="node">
<title>N17</title>
<ellipse fill="none" stroke="#000000" cx="355.1949" cy="-234" rx="48.1917" ry="18"/>
<text text-anchor="middle" x="355.1949" y="-230.3" font-family="Times,serif" font-size="14.00" fill="#000000">num_cpus</text>
</g>
<!-- N1&#45;&gt;N17 -->
<g id="edge11" class="edge">
<title>N1&#45;&gt;N17</title>
<path fill="none" stroke="#000000" d="M1101.1406,-375.533C1034.3869,-369.2233 856.6208,-351.0645 710.1949,-324 576.209,-299.2349 543.4602,-288.537 412.1949,-252 408.6364,-251.0095 404.9656,-249.9465 401.2824,-248.8503"/>
<polygon fill="#000000" stroke="#000000" points="402.1585,-245.4585 391.5727,-245.8979 400.122,-252.1557 402.1585,-245.4585"/>
</g>
<!-- N21 -->
<g id="node22" class="node">
<title>N21</title>
<ellipse fill="none" stroke="#000000" cx="974.1949" cy="-234" rx="27" ry="18"/>
<text text-anchor="middle" x="974.1949" y="-230.3" font-family="Times,serif" font-size="14.00" fill="#000000">url</text>
</g>
<!-- N1&#45;&gt;N21 -->
<g id="edge12" class="edge">
<title>N1&#45;&gt;N21</title>
<path fill="none" stroke="#000000" d="M1101.9919,-373.3667C1059.3396,-365.2322 977.9575,-347.0374 961.1949,-324 947.9066,-305.7374 953.5302,-279.7794 961.0783,-260.4305"/>
<polygon fill="#000000" stroke="#000000" points="964.4011,-261.5615 965.1109,-250.9904 957.9638,-258.8116 964.4011,-261.5615"/>
</g>
<!-- N27 -->
<g id="node28" class="node">
<title>N27</title>
<ellipse fill="none" stroke="#000000" cx="1019.1949" cy="-306" rx="49.2915" ry="18"/>
<text text-anchor="middle" x="1019.1949" y="-302.3" font-family="Times,serif" font-size="14.00" fill="#000000">lazy_static</text>
</g>
<!-- N1&#45;&gt;N27 -->
<g id="edge13" class="edge">
<title>N1&#45;&gt;N27</title>
<path fill="none" stroke="#000000" d="M1108.9588,-365.2936C1093.1306,-354.8382 1070.3478,-339.7891 1051.696,-327.4686"/>
<polygon fill="#000000" stroke="#000000" points="1053.4623,-324.4407 1043.1892,-321.8494 1049.6041,-330.2815 1053.4623,-324.4407"/>
</g>
<!-- N28 -->
<g id="node29" class="node">
<title>N28</title>
<ellipse fill="none" stroke="#000000" cx="1128.1949" cy="-306" rx="41.6928" ry="18"/>
<text text-anchor="middle" x="1128.1949" y="-302.3" font-family="Times,serif" font-size="14.00" fill="#000000">modifier</text>
</g>
<!-- N1&#45;&gt;N28 -->
<g id="edge14" class="edge">
<title>N1&#45;&gt;N28</title>
<path fill="none" stroke="#000000" d="M1128.1949,-359.8314C1128.1949,-352.131 1128.1949,-342.9743 1128.1949,-334.4166"/>
<polygon fill="#000000" stroke="#000000" points="1131.695,-334.4132 1128.1949,-324.4133 1124.695,-334.4133 1131.695,-334.4132"/>
</g>
<!-- N29 -->
<g id="node30" class="node">
<title>N29</title>
<ellipse fill="none" stroke="#000000" cx="1520.1949" cy="-306" rx="33.5952" ry="18"/>
<text text-anchor="middle" x="1520.1949" y="-302.3" font-family="Times,serif" font-size="14.00" fill="#000000">plugin</text>
</g>
<!-- N1&#45;&gt;N29 -->
<g id="edge15" class="edge">
<title>N1&#45;&gt;N29</title>
<path fill="none" stroke="#000000" d="M1155.3409,-375.6299C1213.9587,-370.1019 1356.4354,-354.4525 1472.1949,-324 1476.0076,-322.997 1479.938,-321.8022 1483.8313,-320.5119"/>
<polygon fill="#000000" stroke="#000000" points="1485.0737,-323.7852 1493.344,-317.1631 1482.7492,-317.1824 1485.0737,-323.7852"/>
</g>
<!-- N30 -->
<g id="node31" class="node">
<title>N30</title>
<ellipse fill="none" stroke="#000000" cx="1469.1949" cy="-234" rx="42.4939" ry="18"/>
<text text-anchor="middle" x="1469.1949" y="-230.3" font-family="Times,serif" font-size="14.00" fill="#000000">typemap</text>
</g>
<!-- N1&#45;&gt;N30 -->
<g id="edge16" class="edge">
<title>N1&#45;&gt;N30</title>
<path fill="none" stroke="#000000" d="M1155.2362,-376.7863C1222.8004,-373.2242 1396.6147,-360.6347 1439.1949,-324 1456.9746,-308.7029 1464.2568,-282.5749 1467.2186,-262.3994"/>
<polygon fill="#000000" stroke="#000000" points="1470.7266,-262.5391 1468.4328,-252.1956 1463.7757,-261.712 1470.7266,-262.5391"/>
</g>
<!-- N3&#45;&gt;N2 -->
<g id="edge17" class="edge">
<title>N3&#45;&gt;N2</title>
<path fill="none" stroke="#000000" d="M1655.5237,-288.937C1668.1794,-278.8124 1684.3271,-265.8943 1697.784,-255.1287"/>
<polygon fill="#000000" stroke="#000000" points="1700.1375,-257.7281 1705.7598,-248.7481 1695.7646,-252.262 1700.1375,-257.7281"/>
</g>
<!-- N26 -->
<g id="node27" class="node">
<title>N26</title>
<ellipse fill="none" stroke="#000000" cx="1634.1949" cy="-234" rx="40.0939" ry="18"/>
<text text-anchor="middle" x="1634.1949" y="-230.3" font-family="Times,serif" font-size="14.00" fill="#000000">if_chain</text>
</g>
<!-- N3&#45;&gt;N26 -->
<g id="edge18" class="edge">
<title>N3&#45;&gt;N26</title>
<path fill="none" stroke="#000000" d="M1634.1949,-287.8314C1634.1949,-280.131 1634.1949,-270.9743 1634.1949,-262.4166"/>
<polygon fill="#000000" stroke="#000000" points="1637.695,-262.4132 1634.1949,-252.4133 1630.695,-262.4133 1637.695,-262.4132"/>
</g>
<!-- N4&#45;&gt;N2 -->
<g id="edge19" class="edge">
<title>N4&#45;&gt;N2</title>
<path fill="none" stroke="#000000" d="M1688.0591,-360.0607C1693.8644,-349.8073 1700.7174,-336.5301 1705.1949,-324 1712.4273,-303.7609 1717.3066,-279.9273 1720.3079,-261.8725"/>
<polygon fill="#000000" stroke="#000000" points="1723.7675,-262.4028 1721.8617,-251.9808 1716.8523,-261.3165 1723.7675,-262.4028"/>
</g>
<!-- N4&#45;&gt;N3 -->
<g id="edge20" class="edge">
<title>N4&#45;&gt;N3</title>
<path fill="none" stroke="#000000" d="M1666.5657,-360.2022C1661.6041,-351.8944 1655.5943,-341.8316 1650.1065,-332.6427"/>
<polygon fill="#000000" stroke="#000000" points="1652.9833,-330.6334 1644.8509,-323.8425 1646.9734,-334.2226 1652.9833,-330.6334"/>
</g>
<!-- N6&#45;&gt;N5 -->
<g id="edge21" class="edge">
<title>N6&#45;&gt;N5</title>
<path fill="none" stroke="#000000" d="M1858.9145,-359.8314C1857.5241,-352.131 1855.8708,-342.9743 1854.3257,-334.4166"/>
<polygon fill="#000000" stroke="#000000" points="1857.7408,-333.6322 1852.5195,-324.4133 1850.8521,-334.8761 1857.7408,-333.6322"/>
</g>
<!-- N8 -->
<g id="node9" class="node">
<title>N8</title>
<ellipse fill="none" stroke="#000000" cx="1160.1949" cy="-234" rx="61.99" ry="18"/>
<text text-anchor="middle" x="1160.1949" y="-230.3" font-family="Times,serif" font-size="14.00" fill="#000000">rustc&#45;serialize</text>
</g>
<!-- N7&#45;&gt;N8 -->
<g id="edge22" class="edge">
<title>N7&#45;&gt;N8</title>
<path fill="none" stroke="#000000" d="M1244.6077,-288.7542C1229.5634,-278.9958 1210.5868,-266.6866 1194.4384,-256.212"/>
<polygon fill="#000000" stroke="#000000" points="1196.0953,-253.115 1185.801,-250.6094 1192.286,-258.9877 1196.0953,-253.115"/>
</g>
<!-- N10 -->
<g id="node11" class="node">
<title>N10</title>
<ellipse fill="none" stroke="#000000" cx="1390.1949" cy="-90" rx="47.3916" ry="18"/>
<text text-anchor="middle" x="1390.1949" y="-86.3" font-family="Times,serif" font-size="14.00" fill="#000000">traitobject</text>
</g>
<!-- N9&#45;&gt;N10 -->
<g id="edge23" class="edge">
<title>N9&#45;&gt;N10</title>
<path fill="none" stroke="#000000" d="M1400.276,-287.9555C1398.3631,-250.3938 1393.9407,-163.5541 1391.6417,-118.4103"/>
<polygon fill="#000000" stroke="#000000" points="1395.1231,-117.9541 1391.119,-108.1451 1388.1322,-118.3102 1395.1231,-117.9541"/>
</g>
<!-- N11 -->
<g id="node12" class="node">
<title>N11</title>
<ellipse fill="none" stroke="#000000" cx="1307.1949" cy="-234" rx="41.6928" ry="18"/>
<text text-anchor="middle" x="1307.1949" y="-230.3" font-family="Times,serif" font-size="14.00" fill="#000000">typeable</text>
</g>
<!-- N9&#45;&gt;N11 -->
<g id="edge24" class="edge">
<title>N9&#45;&gt;N11</title>
<path fill="none" stroke="#000000" d="M1382.6235,-291.7751C1369.2607,-281.5398 1350.9868,-267.5427 1335.7726,-255.8893"/>
<polygon fill="#000000" stroke="#000000" points="1337.7528,-252.9973 1327.6857,-249.6951 1333.4962,-258.5545 1337.7528,-252.9973"/>
</g>
<!-- N12 -->
<g id="node13" class="node">
<title>N12</title>
<ellipse fill="none" stroke="#000000" cx="631.1949" cy="-234" rx="39.7935" ry="18"/>
<text text-anchor="middle" x="631.1949" y="-230.3" font-family="Times,serif" font-size="14.00" fill="#000000">httparse</text>
</g>
<!-- N13&#45;&gt;N8 -->
<g id="edge25" class="edge">
<title>N13&#45;&gt;N8</title>
<path fill="none" stroke="#000000" d="M780.3933,-301.0877C836.8074,-291.8594 962.0117,-271.1354 1067.1949,-252 1077.4944,-250.1263 1088.4221,-248.0714 1099.0287,-246.0414"/>
<polygon fill="#000000" stroke="#000000" points="1099.9101,-249.4361 1109.0685,-244.1094 1098.5873,-242.5622 1099.9101,-249.4361"/>
</g>
<!-- N13&#45;&gt;N10 -->
<g id="edge26" class="edge">
<title>N13&#45;&gt;N10</title>
<path fill="none" stroke="#000000" d="M780.7922,-301.9053C829.9896,-294.822 929.3528,-278.448 1010.1949,-252 1046.8671,-240.0025 1053.839,-231.4514 1089.1949,-216 1181.1477,-175.8144 1289.9638,-130.9137 1348.2799,-107.0637"/>
<polygon fill="#000000" stroke="#000000" points="1349.605,-110.3032 1357.5381,-103.2806 1346.9572,-103.8233 1349.605,-110.3032"/>
</g>
<!-- N13&#45;&gt;N11 -->
<g id="edge27" class="edge">
<title>N13&#45;&gt;N11</title>
<path fill="none" stroke="#000000" d="M781.3292,-303.8148C858.1493,-298.1393 1062.7192,-281.2978 1231.1949,-252 1241.114,-250.2751 1251.6725,-248.0365 1261.6652,-245.7274"/>
<polygon fill="#000000" stroke="#000000" points="1262.5031,-249.1259 1271.4246,-243.4112 1260.8866,-242.3151 1262.5031,-249.1259"/>
</g>
<!-- N13&#45;&gt;N12 -->
<g id="edge28" class="edge">
<title>N13&#45;&gt;N12</title>
<path fill="none" stroke="#000000" d="M728.6449,-292.9613C710.5584,-282.0182 684.4424,-266.2169 663.7979,-253.7262"/>
<polygon fill="#000000" stroke="#000000" points="665.4038,-250.607 655.0361,-248.4249 661.7801,-256.5961 665.4038,-250.607"/>
</g>
<!-- N14 -->
<g id="node15" class="node">
<title>N14</title>
<ellipse fill="none" stroke="#000000" cx="750.1949" cy="-234" rx="61.1893" ry="18"/>
<text text-anchor="middle" x="750.1949" y="-230.3" font-family="Times,serif" font-size="14.00" fill="#000000">language&#45;tags</text>
</g>
<!-- N13&#45;&gt;N14 -->
<g id="edge29" class="edge">
<title>N13&#45;&gt;N14</title>
<path fill="none" stroke="#000000" d="M750.1949,-287.8314C750.1949,-280.131 750.1949,-270.9743 750.1949,-262.4166"/>
<polygon fill="#000000" stroke="#000000" points="753.695,-262.4132 750.1949,-252.4133 746.695,-262.4133 753.695,-262.4132"/>
</g>
<!-- N13&#45;&gt;N15 -->
<g id="edge30" class="edge">
<title>N13&#45;&gt;N15</title>
<path fill="none" stroke="#000000" d="M719.5862,-301.659C660.722,-292.0787 541.0453,-265.9119 582.1949,-216 612.2537,-179.5407 753.9017,-167.3885 822.6199,-163.5962"/>
<polygon fill="#000000" stroke="#000000" points="823.1895,-167.0714 832.9943,-163.0569 822.826,-160.0809 823.1895,-167.0714"/>
</g>
<!-- N16 -->
<g id="node17" class="node">
<title>N16</title>
<ellipse fill="none" stroke="#000000" cx="860.1949" cy="-234" rx="31.3957" ry="18"/>
<text text-anchor="middle" x="860.1949" y="-230.3" font-family="Times,serif" font-size="14.00" fill="#000000">mime</text>
</g>
<!-- N13&#45;&gt;N16 -->
<g id="edge31" class="edge">
<title>N13&#45;&gt;N16</title>
<path fill="none" stroke="#000000" d="M770.8851,-292.4574C787.7551,-281.4151 811.7956,-265.6795 830.6853,-253.3154"/>
<polygon fill="#000000" stroke="#000000" points="832.7733,-256.1318 839.2235,-247.7267 828.9397,-250.2749 832.7733,-256.1318"/>
</g>
<!-- N13&#45;&gt;N17 -->
<g id="edge32" class="edge">
<title>N13&#45;&gt;N17</title>
<path fill="none" stroke="#000000" d="M719.1386,-302.5927C659.2401,-295.6795 523.8079,-278.3869 412.1949,-252 408.3841,-251.0991 404.4582,-250.0726 400.5341,-248.9773"/>
<polygon fill="#000000" stroke="#000000" points="401.4302,-245.5928 390.8498,-246.1448 399.4651,-252.3114 401.4302,-245.5928"/>
</g>
<!-- N18 -->
<g id="node19" class="node">
<title>N18</title>
<ellipse fill="none" stroke="#000000" cx="496.1949" cy="-162" rx="59.5901" ry="18"/>
<text text-anchor="middle" x="496.1949" y="-158.3" font-family="Times,serif" font-size="14.00" fill="#000000">rustc_version</text>
</g>
<!-- N13&#45;&gt;N18 -->
<g id="edge33" class="edge">
<title>N13&#45;&gt;N18</title>
<path fill="none" stroke="#000000" d="M719.5343,-302.3641C681.7318,-296.6953 616.7805,-282.9933 570.1949,-252 545.6586,-235.676 525.0831,-208.7839 511.9067,-188.6388"/>
<polygon fill="#000000" stroke="#000000" points="514.6926,-186.4961 506.3857,-179.9199 508.7786,-190.241 514.6926,-186.4961"/>
</g>
<!-- N19 -->
<g id="node20" class="node">
<title>N19</title>
<ellipse fill="none" stroke="#000000" cx="256.1949" cy="-234" rx="27" ry="18"/>
<text text-anchor="middle" x="256.1949" y="-230.3" font-family="Times,serif" font-size="14.00" fill="#000000">time</text>
</g>
<!-- N13&#45;&gt;N19 -->
<g id="edge34" class="edge">
<title>N13&#45;&gt;N19</title>
<path fill="none" stroke="#000000" d="M718.9276,-305.3229C644.671,-303.059 452.3923,-293.3335 298.1949,-252 294.6127,-251.0398 290.9381,-249.8299 287.3244,-248.4937"/>
<polygon fill="#000000" stroke="#000000" points="288.59,-245.2303 278.0062,-244.7461 285.978,-251.7248 288.59,-245.2303"/>
</g>
<!-- N20 -->
<g id="node21" class="node">
<title>N20</title>
<ellipse fill="none" stroke="#000000" cx="459.1949" cy="-234" rx="37.8943" ry="18"/>
<text text-anchor="middle" x="459.1949" y="-230.3" font-family="Times,serif" font-size="14.00" fill="#000000">unicase</text>
</g>
<!-- N13&#45;&gt;N20 -->
<g id="edge35" class="edge">
<title>N13&#45;&gt;N20</title>
<path fill="none" stroke="#000000" d="M720.4933,-300.3932C675.0371,-291.5649 585.6492,-273.2266 511.1949,-252 507.164,-250.8508 502.9874,-249.5668 498.8334,-248.228"/>
<polygon fill="#000000" stroke="#000000" points="499.8545,-244.8791 489.2609,-245.0421 497.6439,-251.5209 499.8545,-244.8791"/>
</g>
<!-- N13&#45;&gt;N21 -->
<g id="edge36" class="edge">
<title>N13&#45;&gt;N21</title>
<path fill="none" stroke="#000000" d="M777.6617,-297.1714C818.522,-284.0377 895.2695,-259.3689 939.8066,-245.0534"/>
<polygon fill="#000000" stroke="#000000" points="941.1464,-248.2992 949.5957,-241.9069 939.0043,-241.635 941.1464,-248.2992"/>
</g>
<!-- N16&#45;&gt;N15 -->
<g id="edge37" class="edge">
<title>N16&#45;&gt;N15</title>
<path fill="none" stroke="#000000" d="M860.1949,-215.8314C860.1949,-208.131 860.1949,-198.9743 860.1949,-190.4166"/>
<polygon fill="#000000" stroke="#000000" points="863.695,-190.4132 860.1949,-180.4133 856.695,-190.4133 863.695,-190.4132"/>
</g>
<!-- N34 -->
<g id="node35" class="node">
<title>N34</title>
<ellipse fill="none" stroke="#000000" cx="361.1949" cy="-162" rx="27" ry="18"/>
<text text-anchor="middle" x="361.1949" y="-158.3" font-family="Times,serif" font-size="14.00" fill="#000000">libc</text>
</g>
<!-- N17&#45;&gt;N34 -->
<g id="edge38" class="edge">
<title>N17&#45;&gt;N34</title>
<path fill="none" stroke="#000000" d="M356.709,-215.8314C357.3507,-208.131 358.1137,-198.9743 358.8269,-190.4166"/>
<polygon fill="#000000" stroke="#000000" points="362.3179,-190.6694 359.6605,-180.4133 355.342,-190.088 362.3179,-190.6694"/>
</g>
<!-- N36 -->
<g id="node37" class="node">
<title>N36</title>
<ellipse fill="none" stroke="#000000" cx="496.1949" cy="-90" rx="37.0935" ry="18"/>
<text text-anchor="middle" x="496.1949" y="-86.3" font-family="Times,serif" font-size="14.00" fill="#000000">semver</text>
</g>
<!-- N18&#45;&gt;N36 -->
<g id="edge39" class="edge">
<title>N18&#45;&gt;N36</title>
<path fill="none" stroke="#000000" d="M496.1949,-143.8314C496.1949,-136.131 496.1949,-126.9743 496.1949,-118.4166"/>
<polygon fill="#000000" stroke="#000000" points="499.695,-118.4132 496.1949,-108.4133 492.695,-118.4133 499.695,-118.4132"/>
</g>
<!-- N31 -->
<g id="node32" class="node">
<title>N31</title>
<ellipse fill="none" stroke="#000000" cx="83.1949" cy="-162" rx="57.3905" ry="18"/>
<text text-anchor="middle" x="83.1949" y="-158.3" font-family="Times,serif" font-size="14.00" fill="#000000">kernel32&#45;sys</text>
</g>
<!-- N19&#45;&gt;N31 -->
<g id="edge40" class="edge">
<title>N19&#45;&gt;N31</title>
<path fill="none" stroke="#000000" d="M233.2219,-224.439C206.3686,-213.263 161.3109,-194.5107 127.5683,-180.4675"/>
<polygon fill="#000000" stroke="#000000" points="128.5123,-177.0694 117.9351,-176.4583 125.8226,-183.5321 128.5123,-177.0694"/>
</g>
<!-- N32 -->
<g id="node33" class="node">
<title>N32</title>
<ellipse fill="none" stroke="#000000" cx="168.1949" cy="-90" rx="35.9954" ry="18"/>
<text text-anchor="middle" x="168.1949" y="-86.3" font-family="Times,serif" font-size="14.00" fill="#000000">winapi</text>
</g>
<!-- N19&#45;&gt;N32 -->
<g id="edge41" class="edge">
<title>N19&#45;&gt;N32</title>
<path fill="none" stroke="#000000" d="M234.7836,-222.7103C219.1658,-213.3513 198.7821,-198.589 187.1949,-180 175.6307,-161.4479 171.0012,-137.0014 169.1966,-118.2695"/>
<polygon fill="#000000" stroke="#000000" points="172.6838,-117.9666 168.4439,-108.2571 165.7035,-118.4914 172.6838,-117.9666"/>
</g>
<!-- N19&#45;&gt;N34 -->
<g id="edge42" class="edge">
<title>N19&#45;&gt;N34</title>
<path fill="none" stroke="#000000" d="M275.4535,-220.7941C291.7347,-209.6298 315.2616,-193.4971 333.5538,-180.9539"/>
<polygon fill="#000000" stroke="#000000" points="335.7905,-183.6641 342.0584,-175.1222 331.8317,-177.891 335.7905,-183.6641"/>
</g>
<!-- N35 -->
<g id="node36" class="node">
<title>N35</title>
<ellipse fill="none" stroke="#000000" cx="256.1949" cy="-162" rx="60.3893" ry="18"/>
<text text-anchor="middle" x="256.1949" y="-158.3" font-family="Times,serif" font-size="14.00" fill="#000000">redox_syscall</text>
</g>
<!-- N19&#45;&gt;N35 -->
<g id="edge43" class="edge">
<title>N19&#45;&gt;N35</title>
<path fill="none" stroke="#000000" d="M256.1949,-215.8314C256.1949,-208.131 256.1949,-198.9743 256.1949,-190.4166"/>
<polygon fill="#000000" stroke="#000000" points="259.695,-190.4132 256.1949,-180.4133 252.695,-190.4133 259.695,-190.4132"/>
</g>
<!-- N20&#45;&gt;N18 -->
<g id="edge44" class="edge">
<title>N20&#45;&gt;N18</title>
<path fill="none" stroke="#000000" d="M468.341,-216.2022C472.5658,-207.981 477.6738,-198.041 482.3558,-188.9301"/>
<polygon fill="#000000" stroke="#000000" points="485.5681,-190.3366 487.0258,-179.8425 479.3421,-187.1371 485.5681,-190.3366"/>
</g>
<!-- N22 -->
<g id="node23" class="node">
<title>N22</title>
<ellipse fill="none" stroke="#000000" cx="990.1949" cy="-162" rx="27" ry="18"/>
<text text-anchor="middle" x="990.1949" y="-158.3" font-family="Times,serif" font-size="14.00" fill="#000000">idna</text>
</g>
<!-- N21&#45;&gt;N22 -->
<g id="edge45" class="edge">
<title>N21&#45;&gt;N22</title>
<path fill="none" stroke="#000000" d="M978.2324,-215.8314C979.989,-207.9266 982.0866,-198.4872 984.0313,-189.7365"/>
<polygon fill="#000000" stroke="#000000" points="987.4614,-190.4346 986.2142,-179.9134 980.6281,-188.916 987.4614,-190.4346"/>
</g>
<!-- N23 -->
<g id="node24" class="node">
<title>N23</title>
<ellipse fill="none" stroke="#000000" cx="955.1949" cy="-18" rx="40.0939" ry="18"/>
<text text-anchor="middle" x="955.1949" y="-14.3" font-family="Times,serif" font-size="14.00" fill="#000000">matches</text>
</g>
<!-- N21&#45;&gt;N23 -->
<g id="edge46" class="edge">
<title>N21&#45;&gt;N23</title>
<path fill="none" stroke="#000000" d="M965.8882,-216.4469C961.4526,-206.0959 956.4526,-192.5959 954.1949,-180 945.9029,-133.7368 948.8626,-78.8424 951.9177,-46.2983"/>
<polygon fill="#000000" stroke="#000000" points="955.4186,-46.4643 952.9413,-36.1632 948.4541,-45.7609 955.4186,-46.4643"/>
</g>
<!-- N22&#45;&gt;N23 -->
<g id="edge47" class="edge">
<title>N22&#45;&gt;N23</title>
<path fill="none" stroke="#000000" d="M984.4996,-144.0994C981.2678,-133.6326 977.2678,-120.1326 974.1949,-108 968.9754,-87.3915 964.0464,-63.8788 960.5172,-46.0553"/>
<polygon fill="#000000" stroke="#000000" points="963.9108,-45.1716 958.5601,-36.0272 957.0405,-46.5124 963.9108,-45.1716"/>
</g>
<!-- N24 -->
<g id="node25" class="node">
<title>N24</title>
<ellipse fill="none" stroke="#000000" cx="1243.1949" cy="-90" rx="56.59" ry="18"/>
<text text-anchor="middle" x="1243.1949" y="-86.3" font-family="Times,serif" font-size="14.00" fill="#000000">unicode&#45;bidi</text>
</g>
<!-- N22&#45;&gt;N24 -->
<g id="edge48" class="edge">
<title>N22&#45;&gt;N24</title>
<path fill="none" stroke="#000000" d="M1013.9591,-152.7349C1021.9235,-149.7735 1030.8903,-146.5938 1039.1949,-144 1100.109,-124.9744 1116.5531,-124.5162 1178.1949,-108 1182.2667,-106.909 1186.4787,-105.7689 1190.7109,-104.6151"/>
<polygon fill="#000000" stroke="#000000" points="1191.847,-107.9329 1200.5665,-101.9146 1189.997,-101.1818 1191.847,-107.9329"/>
</g>
<!-- N25 -->
<g id="node26" class="node">
<title>N25</title>
<ellipse fill="none" stroke="#000000" cx="1076.1949" cy="-90" rx="92.8835" ry="18"/>
<text text-anchor="middle" x="1076.1949" y="-86.3" font-family="Times,serif" font-size="14.00" fill="#000000">unicode&#45;normalization</text>
</g>
<!-- N22&#45;&gt;N25 -->
<g id="edge49" class="edge">
<title>N22&#45;&gt;N25</title>
<path fill="none" stroke="#000000" d="M1007.1858,-147.7751C1018.5363,-138.2723 1033.7598,-125.5271 1047.0203,-114.4253"/>
<polygon fill="#000000" stroke="#000000" points="1049.5502,-116.8719 1054.971,-107.7689 1045.0566,-111.5046 1049.5502,-116.8719"/>
</g>
<!-- N24&#45;&gt;N23 -->
<g id="edge50" class="edge">
<title>N24&#45;&gt;N23</title>
<path fill="none" stroke="#000000" d="M1200.592,-77.9886C1193.1382,-75.9482 1185.4488,-73.8821 1178.1949,-72 1117.0768,-56.142 1046.1494,-39.219 1000.9923,-28.6296"/>
<polygon fill="#000000" stroke="#000000" points="1001.7387,-25.2098 991.2042,-26.3389 1000.1436,-32.0256 1001.7387,-25.2098"/>
</g>
<!-- N29&#45;&gt;N30 -->
<g id="edge51" class="edge">
<title>N29&#45;&gt;N30</title>
<path fill="none" stroke="#000000" d="M1508.1086,-288.937C1501.9119,-280.1886 1494.2377,-269.3545 1487.3464,-259.6256"/>
<polygon fill="#000000" stroke="#000000" points="1490.185,-257.5779 1481.5487,-251.4407 1484.4729,-261.624 1490.185,-257.5779"/>
</g>
<!-- N37 -->
<g id="node38" class="node">
<title>N37</title>
<ellipse fill="none" stroke="#000000" cx="1469.1949" cy="-162" rx="50.8918" ry="18"/>
<text text-anchor="middle" x="1469.1949" y="-158.3" font-family="Times,serif" font-size="14.00" fill="#000000">unsafe&#45;any</text>
</g>
<!-- N30&#45;&gt;N37 -->
<g id="edge52" class="edge">
<title>N30&#45;&gt;N37</title>
<path fill="none" stroke="#000000" d="M1469.1949,-215.8314C1469.1949,-208.131 1469.1949,-198.9743 1469.1949,-190.4166"/>
<polygon fill="#000000" stroke="#000000" points="1472.695,-190.4132 1469.1949,-180.4133 1465.695,-190.4133 1472.695,-190.4132"/>
</g>
<!-- N31&#45;&gt;N32 -->
<g id="edge53" class="edge">
<title>N31&#45;&gt;N32</title>
<path fill="none" stroke="#000000" d="M103.3387,-144.937C114.8564,-135.1808 129.4365,-122.8307 141.8541,-112.3123"/>
<polygon fill="#000000" stroke="#000000" points="144.2797,-114.8445 149.648,-105.7103 139.7553,-109.5032 144.2797,-114.8445"/>
</g>
<!-- N33 -->
<g id="node34" class="node">
<title>N33</title>
<ellipse fill="none" stroke="#000000" cx="57.1949" cy="-90" rx="57.3905" ry="18"/>
<text text-anchor="middle" x="57.1949" y="-86.3" font-family="Times,serif" font-size="14.00" fill="#000000">winapi&#45;build</text>
</g>
<!-- N31&#45;&gt;N33 -->
<g id="edge54" class="edge">
<title>N31&#45;&gt;N33</title>
<path fill="none" stroke="#000000" d="M76.634,-143.8314C73.7485,-135.8406 70.2967,-126.2819 67.1079,-117.4514"/>
<polygon fill="#000000" stroke="#000000" points="70.3521,-116.1302 63.6637,-107.9134 63.7682,-118.5077 70.3521,-116.1302"/>
</g>
<!-- N37&#45;&gt;N10 -->
<g id="edge55" class="edge">
<title>N37&#45;&gt;N10</title>
<path fill="none" stroke="#000000" d="M1450.473,-144.937C1440.1669,-135.5441 1427.2225,-123.7467 1415.9735,-113.4944"/>
<polygon fill="#000000" stroke="#000000" points="1418.2585,-110.8414 1408.5099,-106.6921 1413.5432,-116.015 1418.2585,-110.8414"/>
</g>
</g>
</svg>
