<?xml version="1.0" encoding="UTF-8" standalone="no"?>
<!DOCTYPE svg PUBLIC "-//W3C//DTD SVG 1.1//EN"
 "http://www.w3.org/Graphics/SVG/1.1/DTD/svg11.dtd">
<!-- Generated by graphviz version 2.40.1 (20161225.0304)
 -->
<!-- Title: dependencies Pages: 1 -->
<svg width="3588pt" height="1052pt"
 viewBox="0.00 0.00 3588.29 1052.00" xmlns="http://www.w3.org/2000/svg" xmlns:xlink="http://www.w3.org/1999/xlink">
<g id="graph0" class="graph" transform="scale(1 1) rotate(0) translate(4 1048)">
<title>dependencies</title>
<polygon fill="#ffffff" stroke="transparent" points="-4,4 -4,-1048 3584.286,-1048 3584.286,4 -4,4"/>
<!-- N0 -->
<g id="node1" class="node">
<title>N0</title>
<ellipse fill="none" stroke="#000000" cx="2045.7901" cy="-1026" rx="29.4969" ry="18"/>
<text text-anchor="middle" x="2045.7901" y="-1022.3" font-family="Times,serif" font-size="14.00" fill="#000000">news</text>
</g>
<!-- N1 -->
<g id="node2" class="node">
<title>N1</title>
<ellipse fill="none" stroke="#000000" cx="1627.7901" cy="-810" rx="31.3957" ry="18"/>
<text text-anchor="middle" x="1627.7901" y="-806.3" font-family="Times,serif" font-size="14.00" fill="#000000">maud</text>
</g>
<!-- N0&#45;&gt;N1 -->
<g id="edge1" class="edge">
<title>N0&#45;&gt;N1</title>
<path fill="none" stroke="#000000" d="M2017.339,-1021.0763C1954.8855,-1009.1756 1803.134,-974.1916 1699.7901,-900 1675.9681,-882.8979 1655.8245,-855.8811 1642.955,-835.9064"/>
<polygon fill="#000000" stroke="#000000" points="1645.8348,-833.9102 1637.5668,-827.2853 1639.8988,-837.6203 1645.8348,-833.9102"/>
</g>
<!-- N2 -->
<g id="node3" class="node">
<title>N2</title>
<ellipse fill="none" stroke="#000000" cx="1537.7901" cy="-882" rx="61.99" ry="18"/>
<text text-anchor="middle" x="1537.7901" y="-878.3" font-family="Times,serif" font-size="14.00" fill="#000000">maud_macros</text>
</g>
<!-- N0&#45;&gt;N2 -->
<g id="edge2" class="edge">
<title>N0&#45;&gt;N2</title>
<path fill="none" stroke="#000000" d="M2016.4954,-1025.1338C1912.8723,-1021.7727 1568.1341,-1007.9495 1535.7901,-972 1520.9244,-955.4772 1523.192,-929.5382 1528.1449,-909.7435"/>
<polygon fill="#000000" stroke="#000000" points="1531.537,-910.6105 1530.9032,-900.0346 1524.8035,-908.6974 1531.537,-910.6105"/>
</g>
<!-- N3 -->
<g id="node4" class="node">
<title>N3</title>
<ellipse fill="none" stroke="#000000" cx="2754.7901" cy="-954" rx="33.2948" ry="18"/>
<text text-anchor="middle" x="2754.7901" y="-950.3" font-family="Times,serif" font-size="14.00" fill="#000000">pencil</text>
</g>
<!-- N0&#45;&gt;N3 -->
<g id="edge3" class="edge">
<title>N0&#45;&gt;N3</title>
<path fill="none" stroke="#000000" d="M2074.9055,-1023.0433C2185.5214,-1011.8101 2580.0796,-971.7421 2711.702,-958.3757"/>
<polygon fill="#000000" stroke="#000000" points="2712.2109,-961.8421 2721.8061,-957.3496 2711.5036,-954.8779 2712.2109,-961.8421"/>
</g>
<!-- N4 -->
<g id="node5" class="node">
<title>N4</title>
<ellipse fill="none" stroke="#000000" cx="1601.7901" cy="-954" rx="56.59" ry="18"/>
<text text-anchor="middle" x="1601.7901" y="-950.3" font-family="Times,serif" font-size="14.00" fill="#000000">slideby&#45;html</text>
</g>
<!-- N0&#45;&gt;N4 -->
<g id="edge4" class="edge">
<title>N0&#45;&gt;N4</title>
<path fill="none" stroke="#000000" d="M2016.5952,-1022.8264C1953.5012,-1015.7375 1799.8642,-997.2346 1672.7901,-972 1667.037,-970.8575 1661.0522,-969.5424 1655.1058,-968.154"/>
<polygon fill="#000000" stroke="#000000" points="1655.7241,-964.7029 1645.1827,-965.7656 1654.086,-971.5085 1655.7241,-964.7029"/>
</g>
<!-- N5 -->
<g id="node6" class="node">
<title>N5</title>
<ellipse fill="none" stroke="#000000" cx="3534.7901" cy="-882" rx="45.4919" ry="18"/>
<text text-anchor="middle" x="3534.7901" y="-878.3" font-family="Times,serif" font-size="14.00" fill="#000000">yaml&#45;rust</text>
</g>
<!-- N0&#45;&gt;N5 -->
<g id="edge5" class="edge">
<title>N0&#45;&gt;N5</title>
<path fill="none" stroke="#000000" d="M2075.0966,-1024.3237C2253.313,-1013.9933 3193.2648,-957.5294 3475.7901,-900 3480.5254,-899.0358 3485.4245,-897.8522 3490.2826,-896.5565"/>
<polygon fill="#000000" stroke="#000000" points="3491.4594,-899.8612 3500.131,-893.7741 3489.5561,-893.1248 3491.4594,-899.8612"/>
</g>
<!-- N6 -->
<g id="node7" class="node">
<title>N6</title>
<ellipse fill="none" stroke="#000000" cx="3369.7901" cy="-954" rx="33.5952" ry="18"/>
<text text-anchor="middle" x="3369.7901" y="-950.3" font-family="Times,serif" font-size="14.00" fill="#000000">yassyl</text>
</g>
<!-- N0&#45;&gt;N6 -->
<g id="edge6" class="edge">
<title>N0&#45;&gt;N6</title>
<path fill="none" stroke="#000000" d="M2075.021,-1024.9696C2203.1235,-1020.3721 2727.7248,-1000.6903 3157.7901,-972 3216.1835,-968.1045 3283.5004,-962.1363 3326.3291,-958.153"/>
<polygon fill="#000000" stroke="#000000" points="3326.7744,-961.6267 3336.4049,-957.2105 3326.1223,-954.6572 3326.7744,-961.6267"/>
</g>
<!-- N2&#45;&gt;N1 -->
<g id="edge7" class="edge">
<title>N2&#45;&gt;N1</title>
<path fill="none" stroke="#000000" d="M1559.1188,-864.937C1571.7745,-854.8124 1587.9223,-841.8943 1601.3791,-831.1287"/>
<polygon fill="#000000" stroke="#000000" points="1603.7327,-833.7281 1609.355,-824.7481 1599.3598,-828.262 1603.7327,-833.7281"/>
</g>
<!-- N51 -->
<g id="node52" class="node">
<title>N51</title>
<ellipse fill="none" stroke="#000000" cx="1537.7901" cy="-810" rx="40.0939" ry="18"/>
<text text-anchor="middle" x="1537.7901" y="-806.3" font-family="Times,serif" font-size="14.00" fill="#000000">if_chain</text>
</g>
<!-- N2&#45;&gt;N51 -->
<g id="edge8" class="edge">
<title>N2&#45;&gt;N51</title>
<path fill="none" stroke="#000000" d="M1537.7901,-863.8314C1537.7901,-856.131 1537.7901,-846.9743 1537.7901,-838.4166"/>
<polygon fill="#000000" stroke="#000000" points="1541.2902,-838.4132 1537.7901,-828.4133 1534.2902,-838.4133 1541.2902,-838.4132"/>
</g>
<!-- N13 -->
<g id="node14" class="node">
<title>N13</title>
<ellipse fill="none" stroke="#000000" cx="2508.7901" cy="-594" rx="61.99" ry="18"/>
<text text-anchor="middle" x="2508.7901" y="-590.3" font-family="Times,serif" font-size="14.00" fill="#000000">rustc&#45;serialize</text>
</g>
<!-- N3&#45;&gt;N13 -->
<g id="edge9" class="edge">
<title>N3&#45;&gt;N13</title>
<path fill="none" stroke="#000000" d="M2754.7901,-935.8146C2754.7901,-908.4983 2754.7901,-855.25 2754.7901,-810 2754.7901,-810 2754.7901,-810 2754.7901,-738 2754.7901,-697.1184 2764.327,-677.2737 2735.7901,-648 2713.8375,-625.4806 2635.0099,-610.4135 2576.3738,-602.0427"/>
<polygon fill="#000000" stroke="#000000" points="2576.8019,-598.5687 2566.415,-600.6571 2575.8372,-605.5019 2576.8019,-598.5687"/>
</g>
<!-- N15 -->
<g id="node16" class="node">
<title>N15</title>
<ellipse fill="none" stroke="#000000" cx="1403.7901" cy="-594" rx="27" ry="18"/>
<text text-anchor="middle" x="1403.7901" y="-590.3" font-family="Times,serif" font-size="14.00" fill="#000000">url</text>
</g>
<!-- N3&#45;&gt;N15 -->
<g id="edge10" class="edge">
<title>N3&#45;&gt;N15</title>
<path fill="none" stroke="#000000" d="M2721.9016,-951.4477C2646.9478,-945.333 2457.8624,-928.2209 2301.7901,-900 2202.0793,-881.9704 1483.5216,-759.3641 1415.7901,-684 1400.9431,-667.4799 1398.8046,-641.8795 1399.8827,-622.1996"/>
<polygon fill="#000000" stroke="#000000" points="1403.3926,-622.2312 1400.7524,-611.9706 1396.4178,-621.6382 1403.3926,-622.2312"/>
</g>
<!-- N23 -->
<g id="node24" class="node">
<title>N23</title>
<ellipse fill="none" stroke="#000000" cx="2507.7901" cy="-882" rx="43.5923" ry="18"/>
<text text-anchor="middle" x="2507.7901" y="-878.3" font-family="Times,serif" font-size="14.00" fill="#000000">formdata</text>
</g>
<!-- N3&#45;&gt;N23 -->
<g id="edge11" class="edge">
<title>N3&#45;&gt;N23</title>
<path fill="none" stroke="#000000" d="M2725.486,-945.4579C2682.8366,-933.0257 2603.2873,-909.8372 2553.0673,-895.1982"/>
<polygon fill="#000000" stroke="#000000" points="2554.0139,-891.8285 2543.434,-892.3901 2552.0549,-898.5489 2554.0139,-891.8285"/>
</g>
<!-- N25 -->
<g id="node26" class="node">
<title>N25</title>
<ellipse fill="none" stroke="#000000" cx="2045.7901" cy="-738" rx="31.3957" ry="18"/>
<text text-anchor="middle" x="2045.7901" y="-734.3" font-family="Times,serif" font-size="14.00" fill="#000000">hyper</text>
</g>
<!-- N3&#45;&gt;N25 -->
<g id="edge12" class="edge">
<title>N3&#45;&gt;N25</title>
<path fill="none" stroke="#000000" d="M2722.0813,-950.6122C2634.6215,-940.7058 2389.28,-907.3284 2201.7901,-828 2155.1385,-808.2613 2105.0567,-777.4615 2074.5697,-757.5056"/>
<polygon fill="#000000" stroke="#000000" points="2076.4093,-754.5261 2066.1364,-751.934 2072.5506,-760.3666 2076.4093,-754.5261"/>
</g>
<!-- N26 -->
<g id="node27" class="node">
<title>N26</title>
<ellipse fill="none" stroke="#000000" cx="2608.7901" cy="-522" rx="27" ry="18"/>
<text text-anchor="middle" x="2608.7901" y="-518.3" font-family="Times,serif" font-size="14.00" fill="#000000">log</text>
</g>
<!-- N3&#45;&gt;N26 -->
<g id="edge13" class="edge">
<title>N3&#45;&gt;N26</title>
<path fill="none" stroke="#000000" d="M2785.6475,-947.4005C2867.2986,-929.0541 3082.7901,-874.5227 3082.7901,-810 3082.7901,-810 3082.7901,-810 3082.7901,-738 3082.7901,-661.8818 3018.2853,-668.0554 2966.7901,-612 2952.1062,-596.0158 2952.8992,-586.2934 2933.7901,-576 2845.0171,-528.1809 2809.2059,-556.8464 2709.7901,-540 2688.2062,-536.3425 2664.0661,-532.0479 2644.7998,-528.571"/>
<polygon fill="#000000" stroke="#000000" points="2645.3908,-525.1211 2634.9273,-526.784 2644.144,-532.0092 2645.3908,-525.1211"/>
</g>
<!-- N27 -->
<g id="node28" class="node">
<title>N27</title>
<ellipse fill="none" stroke="#000000" cx="2695.7901" cy="-666" rx="31.3957" ry="18"/>
<text text-anchor="middle" x="2695.7901" y="-662.3" font-family="Times,serif" font-size="14.00" fill="#000000">mime</text>
</g>
<!-- N3&#45;&gt;N27 -->
<g id="edge14" class="edge">
<title>N3&#45;&gt;N27</title>
<path fill="none" stroke="#000000" d="M2749.8357,-936.0697C2747.0176,-925.593 2743.5176,-912.093 2740.7901,-900 2724.099,-825.9958 2708.2298,-737.9428 2700.5697,-693.9415"/>
<polygon fill="#000000" stroke="#000000" points="2704.0012,-693.2448 2698.8465,-683.9885 2697.1038,-694.439 2704.0012,-693.2448"/>
</g>
<!-- N34 -->
<g id="node35" class="node">
<title>N34</title>
<ellipse fill="none" stroke="#000000" cx="3246.7901" cy="-666" rx="50.0912" ry="18"/>
<text text-anchor="middle" x="3246.7901" y="-662.3" font-family="Times,serif" font-size="14.00" fill="#000000">handlebars</text>
</g>
<!-- N3&#45;&gt;N34 -->
<g id="edge15" class="edge">
<title>N3&#45;&gt;N34</title>
<path fill="none" stroke="#000000" d="M2784.9972,-946.1509C2799.6424,-942.5938 2817.5402,-938.6097 2833.7901,-936 2917.5395,-922.5499 3146.7475,-951.963 3213.7901,-900 3279.6067,-848.9873 3279.8093,-802.0828 3265.7901,-720 3264.2913,-711.2245 3261.515,-701.9785 3258.5388,-693.6659"/>
<polygon fill="#000000" stroke="#000000" points="3261.7174,-692.1782 3254.8818,-684.0835 3255.1774,-694.6742 3261.7174,-692.1782"/>
</g>
<!-- N38 -->
<g id="node39" class="node">
<title>N38</title>
<ellipse fill="none" stroke="#000000" cx="2947.7901" cy="-306" rx="31.3957" ry="18"/>
<text text-anchor="middle" x="2947.7901" y="-302.3" font-family="Times,serif" font-size="14.00" fill="#000000">regex</text>
</g>
<!-- N3&#45;&gt;N38 -->
<g id="edge16" class="edge">
<title>N3&#45;&gt;N38</title>
<path fill="none" stroke="#000000" d="M2784.9886,-946.0969C2799.6318,-942.5275 2817.5305,-938.5487 2833.7901,-936 2974.4098,-913.9578 3461.7901,-952.3368 3461.7901,-810 3461.7901,-810 3461.7901,-810 3461.7901,-450 3461.7901,-352.0734 3111.4838,-317.6928 2989.2606,-308.6775"/>
<polygon fill="#000000" stroke="#000000" points="2989.3944,-305.1782 2979.1693,-307.9529 2988.893,-312.1602 2989.3944,-305.1782"/>
</g>
<!-- N57 -->
<g id="node58" class="node">
<title>N57</title>
<ellipse fill="none" stroke="#000000" cx="2859.7901" cy="-882" rx="55.7903" ry="18"/>
<text text-anchor="middle" x="2859.7901" y="-878.3" font-family="Times,serif" font-size="14.00" fill="#000000">mime_guess</text>
</g>
<!-- N3&#45;&gt;N57 -->
<g id="edge17" class="edge">
<title>N3&#45;&gt;N57</title>
<path fill="none" stroke="#000000" d="M2775.5347,-939.7751C2790.2941,-929.6544 2810.4171,-915.8558 2827.2959,-904.2817"/>
<polygon fill="#000000" stroke="#000000" points="2829.5132,-907.0051 2835.7812,-898.4632 2825.5545,-901.232 2829.5132,-907.0051"/>
</g>
<!-- N65 -->
<g id="node66" class="node">
<title>N65</title>
<ellipse fill="none" stroke="#000000" cx="3162.7901" cy="-882" rx="42.4939" ry="18"/>
<text text-anchor="middle" x="3162.7901" y="-878.3" font-family="Times,serif" font-size="14.00" fill="#000000">typemap</text>
</g>
<!-- N3&#45;&gt;N65 -->
<g id="edge18" class="edge">
<title>N3&#45;&gt;N65</title>
<path fill="none" stroke="#000000" d="M2787.5471,-950.044C2848.7018,-942.3898 2984.2416,-924.1568 3096.7901,-900 3103.6559,-898.5264 3110.8708,-896.7733 3117.9073,-894.9484"/>
<polygon fill="#000000" stroke="#000000" points="3119.2682,-898.2078 3128.0276,-892.2477 3117.4632,-891.4445 3119.2682,-898.2078"/>
</g>
<!-- N4&#45;&gt;N1 -->
<g id="edge19" class="edge">
<title>N4&#45;&gt;N1</title>
<path fill="none" stroke="#000000" d="M1605.083,-935.7623C1609.5372,-911.0928 1617.5237,-866.8598 1622.7394,-837.9731"/>
<polygon fill="#000000" stroke="#000000" points="1626.1913,-838.5524 1624.5239,-828.0896 1619.3027,-837.3086 1626.1913,-838.5524"/>
</g>
<!-- N4&#45;&gt;N2 -->
<g id="edge20" class="edge">
<title>N4&#45;&gt;N2</title>
<path fill="none" stroke="#000000" d="M1586.2975,-936.5708C1578.416,-927.7041 1568.6948,-916.7678 1560.0295,-907.0194"/>
<polygon fill="#000000" stroke="#000000" points="1562.6215,-904.6671 1553.3618,-899.5182 1557.3896,-909.3176 1562.6215,-904.6671"/>
</g>
<!-- N6&#45;&gt;N5 -->
<g id="edge21" class="edge">
<title>N6&#45;&gt;N5</title>
<path fill="none" stroke="#000000" d="M3395.9348,-942.5914C3422.4196,-931.0344 3463.7471,-913.0006 3494.4365,-899.6088"/>
<polygon fill="#000000" stroke="#000000" points="3496.2289,-902.6455 3503.9945,-895.4381 3493.4292,-896.2297 3496.2289,-902.6455"/>
</g>
<!-- N7 -->
<g id="node8" class="node">
<title>N7</title>
<ellipse fill="none" stroke="#000000" cx="2684.7901" cy="-234" rx="57.3905" ry="18"/>
<text text-anchor="middle" x="2684.7901" y="-230.3" font-family="Times,serif" font-size="14.00" fill="#000000">aho&#45;corasick</text>
</g>
<!-- N8 -->
<g id="node9" class="node">
<title>N8</title>
<ellipse fill="none" stroke="#000000" cx="2599.7901" cy="-162" rx="40.0939" ry="18"/>
<text text-anchor="middle" x="2599.7901" y="-158.3" font-family="Times,serif" font-size="14.00" fill="#000000">memchr</text>
</g>
<!-- N7&#45;&gt;N8 -->
<g id="edge22" class="edge">
<title>N7&#45;&gt;N8</title>
<path fill="none" stroke="#000000" d="M2664.6463,-216.937C2653.2091,-207.2491 2638.7523,-195.0033 2626.3918,-184.5332"/>
<polygon fill="#000000" stroke="#000000" points="2628.5174,-181.7468 2618.6247,-177.954 2623.9929,-187.0882 2628.5174,-181.7468"/>
</g>
<!-- N54 -->
<g id="node55" class="node">
<title>N54</title>
<ellipse fill="none" stroke="#000000" cx="1896.7901" cy="-90" rx="27" ry="18"/>
<text text-anchor="middle" x="1896.7901" y="-86.3" font-family="Times,serif" font-size="14.00" fill="#000000">libc</text>
</g>
<!-- N8&#45;&gt;N54 -->
<g id="edge23" class="edge">
<title>N8&#45;&gt;N54</title>
<path fill="none" stroke="#000000" d="M2560.5679,-157.8508C2524.5129,-154.0802 2469.5721,-148.4441 2421.7901,-144 2233.4804,-126.4856 2185.3036,-132.6169 1997.7901,-108 1976.0848,-105.1505 1951.9399,-100.888 1932.7013,-97.2261"/>
<polygon fill="#000000" stroke="#000000" points="1933.329,-93.7827 1922.8465,-95.3216 1932.0007,-100.6555 1933.329,-93.7827"/>
</g>
<!-- N9 -->
<g id="node10" class="node">
<title>N9</title>
<ellipse fill="none" stroke="#000000" cx="2070.7901" cy="-522" rx="37.8943" ry="18"/>
<text text-anchor="middle" x="2070.7901" y="-518.3" font-family="Times,serif" font-size="14.00" fill="#000000">bitflags</text>
</g>
<!-- N10 -->
<g id="node11" class="node">
<title>N10</title>
<ellipse fill="none" stroke="#000000" cx="2290.7901" cy="-738" rx="55.7903" ry="18"/>
<text text-anchor="middle" x="2290.7901" y="-734.3" font-family="Times,serif" font-size="14.00" fill="#000000">buf&#45;read&#45;ext</text>
</g>
<!-- N11 -->
<g id="node12" class="node">
<title>N11</title>
<ellipse fill="none" stroke="#000000" cx="1504.7901" cy="-666" rx="35.194" ry="18"/>
<text text-anchor="middle" x="1504.7901" y="-662.3" font-family="Times,serif" font-size="14.00" fill="#000000">cookie</text>
</g>
<!-- N12 -->
<g id="node13" class="node">
<title>N12</title>
<ellipse fill="none" stroke="#000000" cx="1948.7901" cy="-594" rx="38.1938" ry="18"/>
<text text-anchor="middle" x="1948.7901" y="-590.3" font-family="Times,serif" font-size="14.00" fill="#000000">openssl</text>
</g>
<!-- N11&#45;&gt;N12 -->
<g id="edge24" class="edge">
<title>N11&#45;&gt;N12</title>
<path fill="none" stroke="#000000" d="M1531.4093,-653.8493C1537.0572,-651.6302 1543.0493,-649.5349 1548.7901,-648 1672.9286,-614.8098 1824.4634,-601.4611 1900.4508,-596.5585"/>
<polygon fill="#000000" stroke="#000000" points="1900.8982,-600.0375 1910.6608,-595.9216 1900.4623,-593.0511 1900.8982,-600.0375"/>
</g>
<!-- N11&#45;&gt;N13 -->
<g id="edge25" class="edge">
<title>N11&#45;&gt;N13</title>
<path fill="none" stroke="#000000" d="M1530.8466,-653.6554C1536.6371,-651.3916 1542.8286,-649.3275 1548.7901,-648 1705.3766,-613.1315 2109.6818,-622.0247 2269.7901,-612 2326.6649,-608.4389 2391.0865,-603.5366 2438.7035,-599.7472"/>
<polygon fill="#000000" stroke="#000000" points="2439.2148,-603.2175 2448.9042,-598.932 2438.6571,-596.2398 2439.2148,-603.2175"/>
</g>
<!-- N14 -->
<g id="node15" class="node">
<title>N14</title>
<ellipse fill="none" stroke="#000000" cx="1668.7901" cy="-594" rx="27" ry="18"/>
<text text-anchor="middle" x="1668.7901" y="-590.3" font-family="Times,serif" font-size="14.00" fill="#000000">time</text>
</g>
<!-- N11&#45;&gt;N14 -->
<g id="edge26" class="edge">
<title>N11&#45;&gt;N14</title>
<path fill="none" stroke="#000000" d="M1531.5045,-654.2717C1560.2516,-641.651 1605.9672,-621.5808 1636.6574,-608.107"/>
<polygon fill="#000000" stroke="#000000" points="1638.3038,-611.2067 1646.0532,-603.982 1635.4898,-604.7972 1638.3038,-611.2067"/>
</g>
<!-- N11&#45;&gt;N15 -->
<g id="edge27" class="edge">
<title>N11&#45;&gt;N15</title>
<path fill="none" stroke="#000000" d="M1483.8628,-651.0816C1468.4129,-640.0678 1447.2611,-624.9893 1430.5769,-613.0955"/>
<polygon fill="#000000" stroke="#000000" points="1432.4877,-610.1594 1422.3132,-607.2046 1428.4243,-615.8594 1432.4877,-610.1594"/>
</g>
<!-- N12&#45;&gt;N9 -->
<g id="edge28" class="edge">
<title>N12&#45;&gt;N9</title>
<path fill="none" stroke="#000000" d="M1972.8934,-579.7751C1991.5245,-568.7797 2017.5115,-553.4431 2038.0291,-541.3344"/>
<polygon fill="#000000" stroke="#000000" points="2039.9037,-544.2921 2046.7369,-536.1953 2036.3459,-538.2637 2039.9037,-544.2921"/>
</g>
<!-- N30 -->
<g id="node31" class="node">
<title>N30</title>
<ellipse fill="none" stroke="#000000" cx="2020.7901" cy="-450" rx="27" ry="18"/>
<text text-anchor="middle" x="2020.7901" y="-446.3" font-family="Times,serif" font-size="14.00" fill="#000000">gcc</text>
</g>
<!-- N12&#45;&gt;N30 -->
<g id="edge29" class="edge">
<title>N12&#45;&gt;N30</title>
<path fill="none" stroke="#000000" d="M1979.5265,-583.1625C1986.5021,-580.7582 1993.8887,-578.2555 2000.7901,-576 2052.5043,-559.0991 2085.4674,-583.7635 2117.7901,-540 2127.2957,-527.1298 2125.8981,-517.7935 2117.7901,-504 2104.4923,-481.3777 2077.9031,-467.5443 2055.9212,-459.5499"/>
<polygon fill="#000000" stroke="#000000" points="2056.804,-456.1541 2046.2099,-456.2772 2054.5684,-462.7875 2056.804,-456.1541"/>
</g>
<!-- N53 -->
<g id="node54" class="node">
<title>N53</title>
<ellipse fill="none" stroke="#000000" cx="2277.7901" cy="-522" rx="74.9875" ry="18"/>
<text text-anchor="middle" x="2277.7901" y="-518.3" font-family="Times,serif" font-size="14.00" fill="#000000">lazy_static v0.2.8</text>
</g>
<!-- N12&#45;&gt;N53 -->
<g id="edge30" class="edge">
<title>N12&#45;&gt;N53</title>
<path fill="none" stroke="#000000" d="M1978.8086,-582.786C1985.9518,-580.3472 1993.5913,-577.9245 2000.7901,-576 2082.9777,-554.0288 2105.3185,-556.4324 2188.7901,-540 2195.8084,-538.6184 2203.1348,-537.161 2210.4396,-535.6982"/>
<polygon fill="#000000" stroke="#000000" points="2211.2413,-539.1072 2220.3564,-533.7066 2209.863,-532.2442 2211.2413,-539.1072"/>
</g>
<!-- N12&#45;&gt;N54 -->
<g id="edge31" class="edge">
<title>N12&#45;&gt;N54</title>
<path fill="none" stroke="#000000" d="M1916.4908,-583.9831C1894.9218,-575.6286 1867.6913,-561.5615 1851.7901,-540 1827.5255,-507.098 1832.7901,-490.8816 1832.7901,-450 1832.7901,-450 1832.7901,-450 1832.7901,-234 1832.7901,-188.8241 1859.4186,-142.0142 1878.3229,-114.4746"/>
<polygon fill="#000000" stroke="#000000" points="1881.2317,-116.423 1884.1457,-106.2368 1875.5155,-112.3826 1881.2317,-116.423"/>
</g>
<!-- N61 -->
<g id="node62" class="node">
<title>N61</title>
<ellipse fill="none" stroke="#000000" cx="2174.7901" cy="-450" rx="52.7911" ry="18"/>
<text text-anchor="middle" x="2174.7901" y="-446.3" font-family="Times,serif" font-size="14.00" fill="#000000">openssl&#45;sys</text>
</g>
<!-- N12&#45;&gt;N61 -->
<g id="edge32" class="edge">
<title>N12&#45;&gt;N61</title>
<path fill="none" stroke="#000000" d="M1979.4649,-582.968C1986.4437,-580.5737 1993.8473,-578.1243 2000.7901,-576 2060.1695,-557.8318 2088.7488,-580.5353 2135.7901,-540 2154.2455,-524.097 2164.2535,-497.8614 2169.4918,-477.8082"/>
<polygon fill="#000000" stroke="#000000" points="2172.9224,-478.5096 2171.8159,-467.9727 2166.11,-476.8999 2172.9224,-478.5096"/>
</g>
<!-- N62 -->
<g id="node63" class="node">
<title>N62</title>
<ellipse fill="none" stroke="#000000" cx="1937.7901" cy="-522" rx="77.1866" ry="18"/>
<text text-anchor="middle" x="1937.7901" y="-518.3" font-family="Times,serif" font-size="14.00" fill="#000000">openssl&#45;sys&#45;extras</text>
</g>
<!-- N12&#45;&gt;N62 -->
<g id="edge33" class="edge">
<title>N12&#45;&gt;N62</title>
<path fill="none" stroke="#000000" d="M1946.0143,-575.8314C1944.8379,-568.131 1943.4389,-558.9743 1942.1315,-550.4166"/>
<polygon fill="#000000" stroke="#000000" points="1945.5734,-549.7699 1940.6032,-540.4133 1938.6537,-550.8272 1945.5734,-549.7699"/>
</g>
<!-- N32 -->
<g id="node33" class="node">
<title>N32</title>
<ellipse fill="none" stroke="#000000" cx="2021.7901" cy="-18" rx="35.9954" ry="18"/>
<text text-anchor="middle" x="2021.7901" y="-14.3" font-family="Times,serif" font-size="14.00" fill="#000000">winapi</text>
</g>
<!-- N14&#45;&gt;N32 -->
<g id="edge34" class="edge">
<title>N14&#45;&gt;N32</title>
<path fill="none" stroke="#000000" d="M1646.5716,-583.5307C1630.3042,-574.519 1609.451,-559.8284 1599.7901,-540 1592.782,-525.6164 1599.0308,-519.982 1599.7901,-504 1602.4598,-447.81 1611.7901,-434.2534 1611.7901,-378 1611.7901,-378 1611.7901,-378 1611.7901,-162 1611.7901,-85.2462 1870.8041,-39.5328 1977.0922,-24.0052"/>
<polygon fill="#000000" stroke="#000000" points="1977.7867,-27.4414 1987.1871,-22.5544 1976.7908,-20.5126 1977.7867,-27.4414"/>
</g>
<!-- N52 -->
<g id="node53" class="node">
<title>N52</title>
<ellipse fill="none" stroke="#000000" cx="2063.7901" cy="-90" rx="57.3905" ry="18"/>
<text text-anchor="middle" x="2063.7901" y="-86.3" font-family="Times,serif" font-size="14.00" fill="#000000">kernel32&#45;sys</text>
</g>
<!-- N14&#45;&gt;N52 -->
<g id="edge35" class="edge">
<title>N14&#45;&gt;N52</title>
<path fill="none" stroke="#000000" d="M1691.8838,-584.0883C1711.7486,-574.764 1740.3496,-559.3562 1760.7901,-540 1858.3501,-447.615 1820.2795,-368.5879 1927.7901,-288 1970.9838,-255.6228 2008.852,-293.1498 2043.7901,-252 2075.538,-214.6076 2073.4969,-153.7184 2068.8451,-118.2018"/>
<polygon fill="#000000" stroke="#000000" points="2072.2697,-117.4325 2067.3521,-108.0481 2065.3442,-118.4509 2072.2697,-117.4325"/>
</g>
<!-- N14&#45;&gt;N54 -->
<g id="edge36" class="edge">
<title>N14&#45;&gt;N54</title>
<path fill="none" stroke="#000000" d="M1690.2014,-582.7103C1705.8192,-573.3513 1726.2029,-558.589 1737.7901,-540 1759.4158,-505.3065 1756.7901,-490.8816 1756.7901,-450 1756.7901,-450 1756.7901,-450 1756.7901,-234 1756.7901,-172.2153 1823.8653,-126.9708 1865.1599,-104.9706"/>
<polygon fill="#000000" stroke="#000000" points="1867.0151,-107.9519 1874.2967,-100.2558 1863.8051,-101.7313 1867.0151,-107.9519"/>
</g>
<!-- N71 -->
<g id="node72" class="node">
<title>N71</title>
<ellipse fill="none" stroke="#000000" cx="1668.7901" cy="-522" rx="60.3893" ry="18"/>
<text text-anchor="middle" x="1668.7901" y="-518.3" font-family="Times,serif" font-size="14.00" fill="#000000">redox_syscall</text>
</g>
<!-- N14&#45;&gt;N71 -->
<g id="edge37" class="edge">
<title>N14&#45;&gt;N71</title>
<path fill="none" stroke="#000000" d="M1668.7901,-575.8314C1668.7901,-568.131 1668.7901,-558.9743 1668.7901,-550.4166"/>
<polygon fill="#000000" stroke="#000000" points="1672.2902,-550.4132 1668.7901,-540.4133 1665.2902,-550.4133 1672.2902,-550.4132"/>
</g>
<!-- N47 -->
<g id="node48" class="node">
<title>N47</title>
<ellipse fill="none" stroke="#000000" cx="1367.7901" cy="-522" rx="27" ry="18"/>
<text text-anchor="middle" x="1367.7901" y="-518.3" font-family="Times,serif" font-size="14.00" fill="#000000">idna</text>
</g>
<!-- N15&#45;&gt;N47 -->
<g id="edge38" class="edge">
<title>N15&#45;&gt;N47</title>
<path fill="none" stroke="#000000" d="M1395.0755,-576.5708C1390.8304,-568.0807 1385.6365,-557.6929 1380.9238,-548.2674"/>
<polygon fill="#000000" stroke="#000000" points="1384.0271,-546.6477 1376.4244,-539.2687 1377.7661,-549.7782 1384.0271,-546.6477"/>
</g>
<!-- N48 -->
<g id="node49" class="node">
<title>N48</title>
<ellipse fill="none" stroke="#000000" cx="1331.7901" cy="-378" rx="40.0939" ry="18"/>
<text text-anchor="middle" x="1331.7901" y="-374.3" font-family="Times,serif" font-size="14.00" fill="#000000">matches</text>
</g>
<!-- N15&#45;&gt;N48 -->
<g id="edge39" class="edge">
<title>N15&#45;&gt;N48</title>
<path fill="none" stroke="#000000" d="M1426.7322,-583.9318C1479.824,-559.2645 1603.0501,-493.341 1554.7901,-432 1533.6459,-405.1246 1440.5584,-390.0092 1381.5385,-382.9681"/>
<polygon fill="#000000" stroke="#000000" points="1381.6343,-379.456 1371.299,-381.7863 1380.8317,-386.4098 1381.6343,-379.456"/>
</g>
<!-- N16 -->
<g id="node17" class="node">
<title>N16</title>
<ellipse fill="none" stroke="#000000" cx="784.7901" cy="-738" rx="44.393" ry="18"/>
<text text-anchor="middle" x="784.7901" y="-734.3" font-family="Times,serif" font-size="14.00" fill="#000000">encoding</text>
</g>
<!-- N17 -->
<g id="node18" class="node">
<title>N17</title>
<ellipse fill="none" stroke="#000000" cx="342.7901" cy="-666" rx="101.2821" ry="18"/>
<text text-anchor="middle" x="342.7901" y="-662.3" font-family="Times,serif" font-size="14.00" fill="#000000">encoding&#45;index&#45;japanese</text>
</g>
<!-- N16&#45;&gt;N17 -->
<g id="edge40" class="edge">
<title>N16&#45;&gt;N17</title>
<path fill="none" stroke="#000000" d="M743.6404,-731.32C680.8963,-721.1316 557.5406,-701.0894 452.7901,-684 444.5538,-682.6563 435.9708,-681.2545 427.3918,-679.8523"/>
<polygon fill="#000000" stroke="#000000" points="427.7772,-676.369 417.3435,-678.2096 426.6477,-683.2772 427.7772,-676.369"/>
</g>
<!-- N18 -->
<g id="node19" class="node">
<title>N18</title>
<ellipse fill="none" stroke="#000000" cx="556.7901" cy="-666" rx="94.7833" ry="18"/>
<text text-anchor="middle" x="556.7901" y="-662.3" font-family="Times,serif" font-size="14.00" fill="#000000">encoding&#45;index&#45;korean</text>
</g>
<!-- N16&#45;&gt;N18 -->
<g id="edge41" class="edge">
<title>N16&#45;&gt;N18</title>
<path fill="none" stroke="#000000" d="M749.6647,-726.9078C713.9716,-715.6363 658.0448,-697.9752 615.5859,-684.5671"/>
<polygon fill="#000000" stroke="#000000" points="616.5148,-681.1901 605.925,-681.5163 614.4069,-687.8652 616.5148,-681.1901"/>
</g>
<!-- N19 -->
<g id="node20" class="node">
<title>N19</title>
<ellipse fill="none" stroke="#000000" cx="784.7901" cy="-666" rx="115.0796" ry="18"/>
<text text-anchor="middle" x="784.7901" y="-662.3" font-family="Times,serif" font-size="14.00" fill="#000000">encoding&#45;index&#45;simpchinese</text>
</g>
<!-- N16&#45;&gt;N19 -->
<g id="edge42" class="edge">
<title>N16&#45;&gt;N19</title>
<path fill="none" stroke="#000000" d="M784.7901,-719.8314C784.7901,-712.131 784.7901,-702.9743 784.7901,-694.4166"/>
<polygon fill="#000000" stroke="#000000" points="788.2902,-694.4132 784.7901,-684.4133 781.2902,-694.4133 788.2902,-694.4132"/>
</g>
<!-- N20 -->
<g id="node21" class="node">
<title>N20</title>
<ellipse fill="none" stroke="#000000" cx="1025.7901" cy="-666" rx="107.781" ry="18"/>
<text text-anchor="middle" x="1025.7901" y="-662.3" font-family="Times,serif" font-size="14.00" fill="#000000">encoding&#45;index&#45;singlebyte</text>
</g>
<!-- N16&#45;&gt;N20 -->
<g id="edge43" class="edge">
<title>N16&#45;&gt;N20</title>
<path fill="none" stroke="#000000" d="M820.61,-727.2986C858.113,-716.0944 917.744,-698.2793 963.0776,-684.7357"/>
<polygon fill="#000000" stroke="#000000" points="964.2317,-688.0438 972.8113,-681.8277 962.2279,-681.3367 964.2317,-688.0438"/>
</g>
<!-- N21 -->
<g id="node22" class="node">
<title>N21</title>
<ellipse fill="none" stroke="#000000" cx="111.7901" cy="-666" rx="111.5806" ry="18"/>
<text text-anchor="middle" x="111.7901" y="-662.3" font-family="Times,serif" font-size="14.00" fill="#000000">encoding&#45;index&#45;tradchinese</text>
</g>
<!-- N16&#45;&gt;N21 -->
<g id="edge44" class="edge">
<title>N16&#45;&gt;N21</title>
<path fill="none" stroke="#000000" d="M741.4118,-734.5017C648.1696,-726.8184 421.776,-707.2858 232.7901,-684 222.8065,-682.7699 212.3753,-681.3788 202.0039,-679.9284"/>
<polygon fill="#000000" stroke="#000000" points="202.4874,-676.4621 192.095,-678.523 201.5044,-683.3927 202.4874,-676.4621"/>
</g>
<!-- N22 -->
<g id="node23" class="node">
<title>N22</title>
<ellipse fill="none" stroke="#000000" cx="556.7901" cy="-594" rx="89.8845" ry="18"/>
<text text-anchor="middle" x="556.7901" y="-590.3" font-family="Times,serif" font-size="14.00" fill="#000000">encoding_index_tests</text>
</g>
<!-- N17&#45;&gt;N22 -->
<g id="edge45" class="edge">
<title>N17&#45;&gt;N22</title>
<path fill="none" stroke="#000000" d="M390.2836,-650.0209C422.8971,-639.0481 466.3253,-624.4368 500.6521,-612.8875"/>
<polygon fill="#000000" stroke="#000000" points="502.1705,-616.0695 510.5323,-609.5634 499.9383,-609.435 502.1705,-616.0695"/>
</g>
<!-- N18&#45;&gt;N22 -->
<g id="edge46" class="edge">
<title>N18&#45;&gt;N22</title>
<path fill="none" stroke="#000000" d="M556.7901,-647.8314C556.7901,-640.131 556.7901,-630.9743 556.7901,-622.4166"/>
<polygon fill="#000000" stroke="#000000" points="560.2902,-622.4132 556.7901,-612.4133 553.2902,-622.4133 560.2902,-622.4132"/>
</g>
<!-- N19&#45;&gt;N22 -->
<g id="edge47" class="edge">
<title>N19&#45;&gt;N22</title>
<path fill="none" stroke="#000000" d="M733.6224,-649.8418C698.3092,-638.6903 651.2984,-623.8447 614.6252,-612.2637"/>
<polygon fill="#000000" stroke="#000000" points="615.6468,-608.916 605.057,-609.2422 613.5388,-615.5911 615.6468,-608.916"/>
</g>
<!-- N20&#45;&gt;N22 -->
<g id="edge48" class="edge">
<title>N20&#45;&gt;N22</title>
<path fill="none" stroke="#000000" d="M946.176,-653.747C933.6648,-651.8228 920.8764,-649.8568 908.7901,-648 816.1811,-633.7727 709.8625,-617.4662 638.5198,-606.528"/>
<polygon fill="#000000" stroke="#000000" points="638.6683,-603.0099 628.2534,-604.954 637.6075,-609.9291 638.6683,-603.0099"/>
</g>
<!-- N21&#45;&gt;N22 -->
<g id="edge49" class="edge">
<title>N21&#45;&gt;N22</title>
<path fill="none" stroke="#000000" d="M190.8344,-653.2108C271.4303,-640.1706 395.8042,-620.0472 476.7562,-606.9493"/>
<polygon fill="#000000" stroke="#000000" points="477.5855,-610.3607 486.898,-605.3084 476.4673,-603.4506 477.5855,-610.3607"/>
</g>
<!-- N23&#45;&gt;N16 -->
<g id="edge50" class="edge">
<title>N23&#45;&gt;N16</title>
<path fill="none" stroke="#000000" d="M2465.9012,-876.827C2343.3357,-861.8388 1974.7093,-817.8134 1667.7901,-792 1354.5567,-765.6556 977.782,-746.9196 839.2776,-740.4651"/>
<polygon fill="#000000" stroke="#000000" points="839.0945,-736.9529 828.9431,-739.9857 838.7701,-743.9454 839.0945,-736.9529"/>
</g>
<!-- N24 -->
<g id="node25" class="node">
<title>N24</title>
<ellipse fill="none" stroke="#000000" cx="2420.7901" cy="-666" rx="39.7935" ry="18"/>
<text text-anchor="middle" x="2420.7901" y="-662.3" font-family="Times,serif" font-size="14.00" fill="#000000">httparse</text>
</g>
<!-- N23&#45;&gt;N24 -->
<g id="edge51" class="edge">
<title>N23&#45;&gt;N24</title>
<path fill="none" stroke="#000000" d="M2500.5221,-863.9555C2485.2592,-826.0613 2449.7952,-738.0128 2431.7542,-693.2213"/>
<polygon fill="#000000" stroke="#000000" points="2434.9589,-691.8095 2427.9761,-683.8413 2428.4658,-694.4248 2434.9589,-691.8095"/>
</g>
<!-- N23&#45;&gt;N25 -->
<g id="edge52" class="edge">
<title>N23&#45;&gt;N25</title>
<path fill="none" stroke="#000000" d="M2469.0582,-873.74C2426.2208,-864.2343 2355.3756,-847.4133 2295.7901,-828 2254.828,-814.6543 2246.215,-806.8939 2205.7901,-792 2163.907,-776.5689 2115.2499,-760.3926 2082.6902,-749.8154"/>
<polygon fill="#000000" stroke="#000000" points="2083.7195,-746.4699 2073.1276,-746.7196 2081.5635,-753.1296 2083.7195,-746.4699"/>
</g>
<!-- N23&#45;&gt;N26 -->
<g id="edge53" class="edge">
<title>N23&#45;&gt;N26</title>
<path fill="none" stroke="#000000" d="M2519.4114,-864.3421C2545.9194,-822.6252 2609.5828,-713.8107 2622.7901,-612 2624.8484,-596.133 2624.814,-591.8715 2622.7901,-576 2621.6752,-567.2575 2619.5839,-557.907 2617.3513,-549.4855"/>
<polygon fill="#000000" stroke="#000000" points="2620.6964,-548.452 2614.614,-539.7771 2613.9591,-550.3517 2620.6964,-548.452"/>
</g>
<!-- N23&#45;&gt;N27 -->
<g id="edge54" class="edge">
<title>N23&#45;&gt;N27</title>
<path fill="none" stroke="#000000" d="M2543.3135,-871.4716C2566.7369,-862.9799 2596.6901,-848.9571 2616.7901,-828 2653.1491,-790.0905 2641.0161,-766.8392 2664.7901,-720 2669.5107,-710.6995 2675.0765,-700.739 2680.1798,-691.9371"/>
<polygon fill="#000000" stroke="#000000" points="2683.2294,-693.6556 2685.2757,-683.2602 2677.1934,-690.1106 2683.2294,-693.6556"/>
</g>
<!-- N28 -->
<g id="node29" class="node">
<title>N28</title>
<ellipse fill="none" stroke="#000000" cx="2374.7901" cy="-810" rx="69.5877" ry="18"/>
<text text-anchor="middle" x="2374.7901" y="-806.3" font-family="Times,serif" font-size="14.00" fill="#000000">mime_multipart</text>
</g>
<!-- N23&#45;&gt;N28 -->
<g id="edge55" class="edge">
<title>N23&#45;&gt;N28</title>
<path fill="none" stroke="#000000" d="M2481.1952,-867.6028C2461.9594,-857.1894 2435.6546,-842.9492 2414.0124,-831.2332"/>
<polygon fill="#000000" stroke="#000000" points="2415.5173,-828.0679 2405.0569,-826.3851 2412.1847,-834.2237 2415.5173,-828.0679"/>
</g>
<!-- N29 -->
<g id="node30" class="node">
<title>N29</title>
<ellipse fill="none" stroke="#000000" cx="2524.7901" cy="-666" rx="46.2923" ry="18"/>
<text text-anchor="middle" x="2524.7901" y="-662.3" font-family="Times,serif" font-size="14.00" fill="#000000">textnonce</text>
</g>
<!-- N23&#45;&gt;N29 -->
<g id="edge56" class="edge">
<title>N23&#45;&gt;N29</title>
<path fill="none" stroke="#000000" d="M2509.2103,-863.9555C2512.1727,-826.3144 2519.03,-739.1867 2522.5766,-694.1246"/>
<polygon fill="#000000" stroke="#000000" points="2526.0665,-694.3889 2523.362,-684.1451 2519.0881,-693.8396 2526.0665,-694.3889"/>
</g>
<!-- N25&#45;&gt;N11 -->
<g id="edge57" class="edge">
<title>N25&#45;&gt;N11</title>
<path fill="none" stroke="#000000" d="M2014.6947,-735.7662C1920.2836,-728.8039 1637.9693,-706.6072 1548.7901,-684 1546.015,-683.2965 1543.1841,-682.4532 1540.3635,-681.5208"/>
<polygon fill="#000000" stroke="#000000" points="1541.5032,-678.2111 1530.9092,-678.0818 1539.1103,-684.7894 1541.5032,-678.2111"/>
</g>
<!-- N25&#45;&gt;N12 -->
<g id="edge58" class="edge">
<title>N25&#45;&gt;N12</title>
<path fill="none" stroke="#000000" d="M2031.2475,-722.0336C2022.0397,-711.5765 2010.149,-697.4098 2000.7901,-684 1986.5426,-663.5858 1972.5501,-639.038 1962.6752,-620.7397"/>
<polygon fill="#000000" stroke="#000000" points="1965.6999,-618.9734 1957.907,-611.7955 1959.5228,-622.2665 1965.6999,-618.9734"/>
</g>
<!-- N25&#45;&gt;N13 -->
<g id="edge59" class="edge">
<title>N25&#45;&gt;N13</title>
<path fill="none" stroke="#000000" d="M2065.8198,-723.9249C2080.5354,-713.359 2100.8336,-698.3095 2117.7901,-684 2135.5696,-668.9959 2134.8934,-658.2257 2155.7901,-648 2204.335,-624.2448 2350.4857,-607.8 2438.7788,-599.7263"/>
<polygon fill="#000000" stroke="#000000" points="2439.3391,-603.1901 2448.9846,-598.8067 2438.7109,-596.2183 2439.3391,-603.1901"/>
</g>
<!-- N25&#45;&gt;N14 -->
<g id="edge60" class="edge">
<title>N25&#45;&gt;N14</title>
<path fill="none" stroke="#000000" d="M2014.2261,-737.5134C1897.9547,-735.399 1498.3319,-725.1668 1460.7901,-684 1408.734,-626.9174 1558.8824,-604.4543 1631.6881,-597.0848"/>
<polygon fill="#000000" stroke="#000000" points="1632.2183,-600.55 1641.8355,-596.1047 1631.5453,-593.5824 1632.2183,-600.55"/>
</g>
<!-- N25&#45;&gt;N15 -->
<g id="edge61" class="edge">
<title>N25&#45;&gt;N15</title>
<path fill="none" stroke="#000000" d="M2014.4118,-736.9731C1897.7984,-732.914 1493.6753,-716.5945 1446.7901,-684 1426.1122,-669.6248 1415.0509,-642.5374 1409.3533,-621.8203"/>
<polygon fill="#000000" stroke="#000000" points="1412.7111,-620.8191 1406.9043,-611.9573 1405.9174,-622.506 1412.7111,-620.8191"/>
</g>
<!-- N25&#45;&gt;N24 -->
<g id="edge62" class="edge">
<title>N25&#45;&gt;N24</title>
<path fill="none" stroke="#000000" d="M2076.6553,-734.4267C2134.2516,-727.4024 2261.7802,-710.1664 2366.7901,-684 2371.1141,-682.9225 2375.5903,-681.6662 2380.0309,-680.3273"/>
<polygon fill="#000000" stroke="#000000" points="2381.1383,-683.6481 2389.6223,-677.3021 2379.0326,-676.9723 2381.1383,-683.6481"/>
</g>
<!-- N25&#45;&gt;N26 -->
<g id="edge63" class="edge">
<title>N25&#45;&gt;N26</title>
<path fill="none" stroke="#000000" d="M2037.8206,-720.4652C2030.4895,-701.5972 2022.3461,-671.1808 2033.7901,-648 2057.0858,-600.8122 2078.9724,-595.6524 2127.7901,-576 2168.7221,-559.5221 2466.2722,-533.733 2571.7996,-525.0036"/>
<polygon fill="#000000" stroke="#000000" points="2572.2955,-528.4747 2581.9745,-524.1657 2571.7209,-521.4983 2572.2955,-528.4747"/>
</g>
<!-- N25&#45;&gt;N27 -->
<g id="edge64" class="edge">
<title>N25&#45;&gt;N27</title>
<path fill="none" stroke="#000000" d="M2076.7626,-734.8904C2188.8168,-723.6373 2567.197,-685.6126 2579.7901,-684 2605.0942,-680.7597 2633.3869,-676.3846 2655.6956,-672.7591"/>
<polygon fill="#000000" stroke="#000000" points="2656.5071,-676.1729 2665.8088,-671.1006 2655.3742,-669.2652 2656.5071,-676.1729"/>
</g>
<!-- N40 -->
<g id="node41" class="node">
<title>N40</title>
<ellipse fill="none" stroke="#000000" cx="2225.7901" cy="-666" rx="61.1893" ry="18"/>
<text text-anchor="middle" x="2225.7901" y="-662.3" font-family="Times,serif" font-size="14.00" fill="#000000">language&#45;tags</text>
</g>
<!-- N25&#45;&gt;N40 -->
<g id="edge65" class="edge">
<title>N25&#45;&gt;N40</title>
<path fill="none" stroke="#000000" d="M2071.5797,-727.6842C2099.836,-716.3817 2145.7117,-698.0314 2180.094,-684.2784"/>
<polygon fill="#000000" stroke="#000000" points="2181.4777,-687.4946 2189.4626,-680.531 2178.8779,-680.9953 2181.4777,-687.4946"/>
</g>
<!-- N41 -->
<g id="node42" class="node">
<title>N41</title>
<ellipse fill="none" stroke="#000000" cx="1348.7901" cy="-306" rx="48.1917" ry="18"/>
<text text-anchor="middle" x="1348.7901" y="-302.3" font-family="Times,serif" font-size="14.00" fill="#000000">num_cpus</text>
</g>
<!-- N25&#45;&gt;N41 -->
<g id="edge66" class="edge">
<title>N25&#45;&gt;N41</title>
<path fill="none" stroke="#000000" d="M2014.4862,-736.3753C1903.9286,-730.4723 1532.205,-709.1803 1415.7901,-684 1298.731,-658.6804 1161.7901,-713.766 1161.7901,-594 1161.7901,-594 1161.7901,-594 1161.7901,-450 1161.7901,-380.0351 1244.9805,-339.3402 1300.3878,-319.9951"/>
<polygon fill="#000000" stroke="#000000" points="1301.6858,-323.2512 1310.0436,-316.7398 1299.4494,-316.618 1301.6858,-323.2512"/>
</g>
<!-- N42 -->
<g id="node43" class="node">
<title>N42</title>
<ellipse fill="none" stroke="#000000" cx="1885.7901" cy="-666" rx="63.0888" ry="18"/>
<text text-anchor="middle" x="1885.7901" y="-662.3" font-family="Times,serif" font-size="14.00" fill="#000000">openssl&#45;verify</text>
</g>
<!-- N25&#45;&gt;N42 -->
<g id="edge67" class="edge">
<title>N25&#45;&gt;N42</title>
<path fill="none" stroke="#000000" d="M2021.1407,-726.9078C1996.6202,-715.8736 1958.4922,-698.716 1928.9445,-685.4195"/>
<polygon fill="#000000" stroke="#000000" points="1930.2362,-682.1628 1919.6807,-681.2508 1927.3636,-688.5462 1930.2362,-682.1628"/>
</g>
<!-- N43 -->
<g id="node44" class="node">
<title>N43</title>
<ellipse fill="none" stroke="#000000" cx="2075.7901" cy="-666" rx="33.2948" ry="18"/>
<text text-anchor="middle" x="2075.7901" y="-662.3" font-family="Times,serif" font-size="14.00" fill="#000000">solicit</text>
</g>
<!-- N25&#45;&gt;N43 -->
<g id="edge68" class="edge">
<title>N25&#45;&gt;N43</title>
<path fill="none" stroke="#000000" d="M2053.2058,-720.2022C2056.6208,-712.0064 2060.7474,-702.1024 2064.534,-693.0145"/>
<polygon fill="#000000" stroke="#000000" points="2067.8442,-694.17 2068.4597,-683.593 2061.3827,-691.4776 2067.8442,-694.17"/>
</g>
<!-- N44 -->
<g id="node45" class="node">
<title>N44</title>
<ellipse fill="none" stroke="#000000" cx="1630.7901" cy="-666" rx="72.5877" ry="18"/>
<text text-anchor="middle" x="1630.7901" y="-662.3" font-family="Times,serif" font-size="14.00" fill="#000000">traitobject v0.0.1</text>
</g>
<!-- N25&#45;&gt;N44 -->
<g id="edge69" class="edge">
<title>N25&#45;&gt;N44</title>
<path fill="none" stroke="#000000" d="M2015.2912,-733.678C1956.4261,-725.2016 1823.1275,-705.3523 1711.7901,-684 1706.0802,-682.905 1700.1574,-681.7078 1694.2308,-680.4679"/>
<polygon fill="#000000" stroke="#000000" points="1694.7997,-677.0107 1684.2901,-678.3515 1693.342,-683.8572 1694.7997,-677.0107"/>
</g>
<!-- N45 -->
<g id="node46" class="node">
<title>N45</title>
<ellipse fill="none" stroke="#000000" cx="1762.7901" cy="-666" rx="41.6928" ry="18"/>
<text text-anchor="middle" x="1762.7901" y="-662.3" font-family="Times,serif" font-size="14.00" fill="#000000">typeable</text>
</g>
<!-- N25&#45;&gt;N45 -->
<g id="edge70" class="edge">
<title>N25&#45;&gt;N45</title>
<path fill="none" stroke="#000000" d="M2016.2212,-732.2114C1971.8669,-723.2828 1885.6435,-704.9725 1813.7901,-684 1810.6354,-683.0792 1807.39,-682.0738 1804.1378,-681.024"/>
<polygon fill="#000000" stroke="#000000" points="1805.0377,-677.6345 1794.4439,-677.7821 1802.8175,-684.2731 1805.0377,-677.6345"/>
</g>
<!-- N46 -->
<g id="node47" class="node">
<title>N46</title>
<ellipse fill="none" stroke="#000000" cx="2778.7901" cy="-594" rx="37.8943" ry="18"/>
<text text-anchor="middle" x="2778.7901" y="-590.3" font-family="Times,serif" font-size="14.00" fill="#000000">unicase</text>
</g>
<!-- N25&#45;&gt;N46 -->
<g id="edge71" class="edge">
<title>N25&#45;&gt;N46</title>
<path fill="none" stroke="#000000" d="M2076.4135,-733.7088C2124.1607,-726.5039 2218.8516,-710.1432 2295.7901,-684 2331.1785,-671.9752 2335.9447,-658.5852 2371.7901,-648 2438.3544,-628.3434 2639.1745,-607.3436 2731.4674,-598.4194"/>
<polygon fill="#000000" stroke="#000000" points="2732.0212,-601.8824 2741.6407,-597.4421 2731.3518,-594.9144 2732.0212,-601.8824"/>
</g>
<!-- N27&#45;&gt;N26 -->
<g id="edge72" class="edge">
<title>N27&#45;&gt;N26</title>
<path fill="none" stroke="#000000" d="M2688.1472,-648.1921C2679.8913,-629.6232 2665.879,-599.9422 2650.7901,-576 2644.2934,-565.6915 2636.2585,-554.9727 2628.9616,-545.828"/>
<polygon fill="#000000" stroke="#000000" points="2631.5601,-543.476 2622.5332,-537.9293 2626.1309,-547.8947 2631.5601,-543.476"/>
</g>
<!-- N28&#45;&gt;N10 -->
<g id="edge73" class="edge">
<title>N28&#45;&gt;N10</title>
<path fill="none" stroke="#000000" d="M2354.456,-792.5708C2343.6465,-783.3055 2330.2004,-771.7802 2318.4541,-761.7121"/>
<polygon fill="#000000" stroke="#000000" points="2320.5174,-758.8708 2310.647,-755.0202 2315.9618,-764.1856 2320.5174,-758.8708"/>
</g>
<!-- N28&#45;&gt;N16 -->
<g id="edge74" class="edge">
<title>N28&#45;&gt;N16</title>
<path fill="none" stroke="#000000" d="M2311.8812,-802.2697C2280.1189,-798.6289 2240.9586,-794.5381 2205.7901,-792 1674.1158,-753.6286 1028.4395,-741.5702 839.2855,-738.7348"/>
<polygon fill="#000000" stroke="#000000" points="839.1013,-735.2318 829.0507,-738.5838 838.9979,-742.2311 839.1013,-735.2318"/>
</g>
<!-- N28&#45;&gt;N24 -->
<g id="edge75" class="edge">
<title>N28&#45;&gt;N24</title>
<path fill="none" stroke="#000000" d="M2378.9115,-791.8718C2383.242,-773.5534 2390.5593,-744.5296 2398.7901,-720 2401.7528,-711.1705 2405.4273,-701.7131 2408.9195,-693.2194"/>
<polygon fill="#000000" stroke="#000000" points="2412.2358,-694.3617 2412.8816,-683.7866 2405.782,-691.6509 2412.2358,-694.3617"/>
</g>
<!-- N28&#45;&gt;N25 -->
<g id="edge76" class="edge">
<title>N28&#45;&gt;N25</title>
<path fill="none" stroke="#000000" d="M2321.5649,-798.3519C2255.5133,-783.8969 2144.4023,-759.5808 2085.3956,-746.6675"/>
<polygon fill="#000000" stroke="#000000" points="2085.8687,-743.1882 2075.3516,-744.4694 2084.3721,-750.0264 2085.8687,-743.1882"/>
</g>
<!-- N28&#45;&gt;N26 -->
<g id="edge77" class="edge">
<title>N28&#45;&gt;N26</title>
<path fill="none" stroke="#000000" d="M2394.752,-792.3998C2417.5465,-772.9169 2456.5172,-741.4392 2493.7901,-720 2529.7081,-699.3401 2553.8728,-716.33 2579.7901,-684 2610.6431,-645.513 2613.0717,-585.2604 2611.382,-550.1019"/>
<polygon fill="#000000" stroke="#000000" points="2614.8707,-549.8098 2610.7523,-540.0482 2607.8844,-550.2475 2614.8707,-549.8098"/>
</g>
<!-- N28&#45;&gt;N27 -->
<g id="edge78" class="edge">
<title>N28&#45;&gt;N27</title>
<path fill="none" stroke="#000000" d="M2409.7538,-794.3154C2471.7586,-766.5001 2600.2197,-708.8727 2661.6388,-681.3202"/>
<polygon fill="#000000" stroke="#000000" points="2663.2086,-684.4521 2670.9001,-677.1656 2660.3435,-678.0653 2663.2086,-684.4521"/>
</g>
<!-- N28&#45;&gt;N29 -->
<g id="edge79" class="edge">
<title>N28&#45;&gt;N29</title>
<path fill="none" stroke="#000000" d="M2384.1127,-792.1353C2394.8856,-772.7047 2414.0758,-741.5446 2436.7901,-720 2451.3844,-706.1572 2470.0933,-694.0742 2486.5052,-684.8681"/>
<polygon fill="#000000" stroke="#000000" points="2488.2356,-687.9112 2495.3459,-680.0566 2484.8893,-681.7628 2488.2356,-687.9112"/>
</g>
<!-- N60 -->
<g id="node61" class="node">
<title>N60</title>
<ellipse fill="none" stroke="#000000" cx="2351.7901" cy="-234" rx="38.9931" ry="18"/>
<text text-anchor="middle" x="2351.7901" y="-230.3" font-family="Times,serif" font-size="14.00" fill="#000000">tempdir</text>
</g>
<!-- N28&#45;&gt;N60 -->
<g id="edge80" class="edge">
<title>N28&#45;&gt;N60</title>
<path fill="none" stroke="#000000" d="M2322.6802,-797.87C2284.4848,-787.8009 2237.3615,-772.5015 2225.7901,-756 2216.6039,-742.8999 2217.4558,-733.658 2225.7901,-720 2244.013,-690.1366 2271.6184,-709.2909 2295.7901,-684 2372.2406,-604.0095 2380.7901,-560.6488 2380.7901,-450 2380.7901,-450 2380.7901,-450 2380.7901,-378 2380.7901,-336.8901 2369.291,-290.4549 2360.7747,-261.702"/>
<polygon fill="#000000" stroke="#000000" points="2364.0656,-260.4943 2357.7989,-251.9514 2357.3704,-262.5376 2364.0656,-260.4943"/>
</g>
<!-- N29&#45;&gt;N13 -->
<g id="edge81" class="edge">
<title>N29&#45;&gt;N13</title>
<path fill="none" stroke="#000000" d="M2520.7526,-647.8314C2519.0414,-640.131 2517.0066,-630.9743 2515.1049,-622.4166"/>
<polygon fill="#000000" stroke="#000000" points="2518.468,-621.4159 2512.8819,-612.4133 2511.6346,-622.9344 2518.468,-621.4159"/>
</g>
<!-- N29&#45;&gt;N14 -->
<g id="edge82" class="edge">
<title>N29&#45;&gt;N14</title>
<path fill="none" stroke="#000000" d="M2491.1103,-653.494C2484.1454,-651.3296 2476.7953,-649.3457 2469.7901,-648 2221.3812,-600.2799 2154.1181,-629.742 1901.7901,-612 1832.5154,-607.1291 1751.7141,-600.7248 1705.7696,-597.0152"/>
<polygon fill="#000000" stroke="#000000" points="1705.9393,-593.5175 1695.6895,-596.1993 1705.3746,-600.4947 1705.9393,-593.5175"/>
</g>
<!-- N68 -->
<g id="node69" class="node">
<title>N68</title>
<ellipse fill="none" stroke="#000000" cx="2385.7901" cy="-162" rx="27" ry="18"/>
<text text-anchor="middle" x="2385.7901" y="-158.3" font-family="Times,serif" font-size="14.00" fill="#000000">rand</text>
</g>
<!-- N29&#45;&gt;N68 -->
<g id="edge83" class="edge">
<title>N29&#45;&gt;N68</title>
<path fill="none" stroke="#000000" d="M2491.5227,-653.1781C2472.9472,-644.3396 2450.9589,-630.7745 2437.7901,-612 2414.3141,-578.5308 2418.7901,-562.8816 2418.7901,-522 2418.7901,-522 2418.7901,-522 2418.7901,-306 2418.7901,-264.6545 2405.7049,-218.2804 2396.0139,-189.6051"/>
<polygon fill="#000000" stroke="#000000" points="2399.2223,-188.1756 2392.6277,-179.8833 2392.6119,-190.4782 2399.2223,-188.1756"/>
</g>
<!-- N31 -->
<g id="node32" class="node">
<title>N31</title>
<ellipse fill="none" stroke="#000000" cx="2184.7901" cy="-90" rx="46.2923" ry="18"/>
<text text-anchor="middle" x="2184.7901" y="-86.3" font-family="Times,serif" font-size="14.00" fill="#000000">gdi32&#45;sys</text>
</g>
<!-- N31&#45;&gt;N32 -->
<g id="edge84" class="edge">
<title>N31&#45;&gt;N32</title>
<path fill="none" stroke="#000000" d="M2154.131,-76.4574C2126.8718,-64.4165 2086.9785,-46.7949 2058.1242,-34.0494"/>
<polygon fill="#000000" stroke="#000000" points="2059.3578,-30.7681 2048.7962,-29.9291 2056.5294,-37.1713 2059.3578,-30.7681"/>
</g>
<!-- N33 -->
<g id="node34" class="node">
<title>N33</title>
<ellipse fill="none" stroke="#000000" cx="2184.7901" cy="-18" rx="57.3905" ry="18"/>
<text text-anchor="middle" x="2184.7901" y="-14.3" font-family="Times,serif" font-size="14.00" fill="#000000">winapi&#45;build</text>
</g>
<!-- N31&#45;&gt;N33 -->
<g id="edge85" class="edge">
<title>N31&#45;&gt;N33</title>
<path fill="none" stroke="#000000" d="M2184.7901,-71.8314C2184.7901,-64.131 2184.7901,-54.9743 2184.7901,-46.4166"/>
<polygon fill="#000000" stroke="#000000" points="2188.2902,-46.4132 2184.7901,-36.4133 2181.2902,-46.4133 2188.2902,-46.4132"/>
</g>
<!-- N34&#45;&gt;N13 -->
<g id="edge86" class="edge">
<title>N34&#45;&gt;N13</title>
<path fill="none" stroke="#000000" d="M3198.3678,-661.2759C3070.9124,-648.8412 2725.7834,-615.1701 2577.745,-600.7273"/>
<polygon fill="#000000" stroke="#000000" points="2577.7252,-597.2088 2567.4325,-599.7212 2577.0454,-604.1758 2577.7252,-597.2088"/>
</g>
<!-- N34&#45;&gt;N26 -->
<g id="edge87" class="edge">
<title>N34&#45;&gt;N26</title>
<path fill="none" stroke="#000000" d="M3197.7835,-661.6292C3148.2172,-655.684 3070.4654,-642.101 3009.7901,-612 2987.4621,-600.9231 2989.5677,-586.1199 2966.7901,-576 2861.3875,-529.1705 2823.695,-558.1213 2709.7901,-540 2688.1704,-536.5605 2664.0289,-532.2745 2644.7707,-528.7477"/>
<polygon fill="#000000" stroke="#000000" points="2645.3723,-525.2997 2634.9035,-526.929 2644.1034,-532.1837 2645.3723,-525.2997"/>
</g>
<!-- N35 -->
<g id="node36" class="node">
<title>N35</title>
<ellipse fill="none" stroke="#000000" cx="3393.7901" cy="-594" rx="40.0939" ry="18"/>
<text text-anchor="middle" x="3393.7901" y="-590.3" font-family="Times,serif" font-size="14.00" fill="#000000">itertools</text>
</g>
<!-- N34&#45;&gt;N35 -->
<g id="edge88" class="edge">
<title>N34&#45;&gt;N35</title>
<path fill="none" stroke="#000000" d="M3276.5377,-651.4297C3299.8964,-639.9888 3332.5245,-624.0076 3357.4327,-611.8077"/>
<polygon fill="#000000" stroke="#000000" points="3359.1245,-614.8764 3366.5655,-607.3345 3356.0453,-608.59 3359.1245,-614.8764"/>
</g>
<!-- N36 -->
<g id="node37" class="node">
<title>N36</title>
<ellipse fill="none" stroke="#000000" cx="3097.7901" cy="-594" rx="79.0865" ry="18"/>
<text text-anchor="middle" x="3097.7901" y="-590.3" font-family="Times,serif" font-size="14.00" fill="#000000">lazy_static v0.1.16</text>
</g>
<!-- N34&#45;&gt;N36 -->
<g id="edge89" class="edge">
<title>N34&#45;&gt;N36</title>
<path fill="none" stroke="#000000" d="M3216.6377,-651.4297C3194.7709,-640.8632 3164.8899,-626.4241 3140.5608,-614.6677"/>
<polygon fill="#000000" stroke="#000000" points="3142.0632,-611.5065 3131.5365,-610.307 3139.0175,-617.8093 3142.0632,-611.5065"/>
</g>
<!-- N37 -->
<g id="node38" class="node">
<title>N37</title>
<ellipse fill="none" stroke="#000000" cx="3246.7901" cy="-594" rx="51.1914" ry="18"/>
<text text-anchor="middle" x="3246.7901" y="-590.3" font-family="Times,serif" font-size="14.00" fill="#000000">quick&#45;error</text>
</g>
<!-- N34&#45;&gt;N37 -->
<g id="edge90" class="edge">
<title>N34&#45;&gt;N37</title>
<path fill="none" stroke="#000000" d="M3246.7901,-647.8314C3246.7901,-640.131 3246.7901,-630.9743 3246.7901,-622.4166"/>
<polygon fill="#000000" stroke="#000000" points="3250.2902,-622.4132 3246.7901,-612.4133 3243.2902,-622.4133 3250.2902,-622.4132"/>
</g>
<!-- N34&#45;&gt;N38 -->
<g id="edge91" class="edge">
<title>N34&#45;&gt;N38</title>
<path fill="none" stroke="#000000" d="M3270.9708,-649.9726C3283.5298,-640.4062 3298.04,-627.1759 3306.7901,-612 3327.2104,-576.5836 3325.7901,-562.8816 3325.7901,-522 3325.7901,-522 3325.7901,-522 3325.7901,-450 3325.7901,-378.3472 3085.6047,-329.4279 2988.1503,-312.5282"/>
<polygon fill="#000000" stroke="#000000" points="2988.531,-309.0426 2978.0844,-310.8088 2987.3523,-315.9426 2988.531,-309.0426"/>
</g>
<!-- N38&#45;&gt;N7 -->
<g id="edge92" class="edge">
<title>N38&#45;&gt;N7</title>
<path fill="none" stroke="#000000" d="M2919.3946,-298.2263C2876.1302,-286.3821 2792.9624,-263.6137 2738.1735,-248.6145"/>
<polygon fill="#000000" stroke="#000000" points="2738.8588,-245.1733 2728.2895,-245.9086 2737.0104,-251.9249 2738.8588,-245.1733"/>
</g>
<!-- N38&#45;&gt;N8 -->
<g id="edge93" class="edge">
<title>N38&#45;&gt;N8</title>
<path fill="none" stroke="#000000" d="M2916.5137,-305.2248C2842.8042,-302.7368 2661.2124,-292.5399 2618.7901,-252 2602.3488,-236.2883 2598.3199,-210.2069 2597.9816,-190.1545"/>
<polygon fill="#000000" stroke="#000000" points="2601.4828,-190.0645 2598.1061,-180.0222 2594.4834,-189.9784 2601.4828,-190.0645"/>
</g>
<!-- N72 -->
<g id="node73" class="node">
<title>N72</title>
<ellipse fill="none" stroke="#000000" cx="2947.7901" cy="-234" rx="57.6901" ry="18"/>
<text text-anchor="middle" x="2947.7901" y="-230.3" font-family="Times,serif" font-size="14.00" fill="#000000">regex&#45;syntax</text>
</g>
<!-- N38&#45;&gt;N72 -->
<g id="edge94" class="edge">
<title>N38&#45;&gt;N72</title>
<path fill="none" stroke="#000000" d="M2947.7901,-287.8314C2947.7901,-280.131 2947.7901,-270.9743 2947.7901,-262.4166"/>
<polygon fill="#000000" stroke="#000000" points="2951.2902,-262.4132 2947.7901,-252.4133 2944.2902,-262.4133 2951.2902,-262.4132"/>
</g>
<!-- N73 -->
<g id="node74" class="node">
<title>N73</title>
<ellipse fill="none" stroke="#000000" cx="2815.7901" cy="-234" rx="55.7903" ry="18"/>
<text text-anchor="middle" x="2815.7901" y="-230.3" font-family="Times,serif" font-size="14.00" fill="#000000">thread_local</text>
</g>
<!-- N38&#45;&gt;N73 -->
<g id="edge95" class="edge">
<title>N38&#45;&gt;N73</title>
<path fill="none" stroke="#000000" d="M2925.0985,-293.6228C2905.4461,-282.9033 2876.6214,-267.1807 2853.5057,-254.5722"/>
<polygon fill="#000000" stroke="#000000" points="2855.0919,-251.4506 2844.637,-249.7347 2851.7399,-257.5959 2855.0919,-251.4506"/>
</g>
<!-- N74 -->
<g id="node75" class="node">
<title>N74</title>
<ellipse fill="none" stroke="#000000" cx="3075.7901" cy="-234" rx="51.9908" ry="18"/>
<text text-anchor="middle" x="3075.7901" y="-230.3" font-family="Times,serif" font-size="14.00" fill="#000000">utf8&#45;ranges</text>
</g>
<!-- N38&#45;&gt;N74 -->
<g id="edge96" class="edge">
<title>N38&#45;&gt;N74</title>
<path fill="none" stroke="#000000" d="M2970.3793,-293.2936C2989.5553,-282.507 3017.4236,-266.8311 3039.6899,-254.3064"/>
<polygon fill="#000000" stroke="#000000" points="3041.537,-257.2831 3048.5369,-249.3299 3038.1052,-251.1821 3041.537,-257.2831"/>
</g>
<!-- N39 -->
<g id="node40" class="node">
<title>N39</title>
<ellipse fill="none" stroke="#000000" cx="2228.7901" cy="-594" rx="32.4942" ry="18"/>
<text text-anchor="middle" x="2228.7901" y="-590.3" font-family="Times,serif" font-size="14.00" fill="#000000">hpack</text>
</g>
<!-- N39&#45;&gt;N26 -->
<g id="edge97" class="edge">
<title>N39&#45;&gt;N26</title>
<path fill="none" stroke="#000000" d="M2259.5652,-588.1689C2329.091,-574.9956 2498.0209,-542.9879 2572.4973,-528.8765"/>
<polygon fill="#000000" stroke="#000000" points="2573.1856,-532.3085 2582.3592,-527.008 2571.8824,-525.4308 2573.1856,-532.3085"/>
</g>
<!-- N41&#45;&gt;N54 -->
<g id="edge98" class="edge">
<title>N41&#45;&gt;N54</title>
<path fill="none" stroke="#000000" d="M1380.4818,-292.3014C1447.1117,-263.6493 1606.7927,-195.7612 1742.7901,-144 1783.767,-128.404 1831.4775,-111.9309 1862.8069,-101.3402"/>
<polygon fill="#000000" stroke="#000000" points="1864.0148,-104.6266 1872.3739,-98.1169 1861.7798,-97.993 1864.0148,-104.6266"/>
</g>
<!-- N42&#45;&gt;N12 -->
<g id="edge99" class="edge">
<title>N42&#45;&gt;N12</title>
<path fill="none" stroke="#000000" d="M1901.3631,-648.2022C1909.1061,-639.3531 1918.5915,-628.5127 1927.0391,-618.8583"/>
<polygon fill="#000000" stroke="#000000" points="1929.879,-620.9278 1933.83,-611.0972 1924.6109,-616.3182 1929.879,-620.9278"/>
</g>
<!-- N43&#45;&gt;N26 -->
<g id="edge100" class="edge">
<title>N43&#45;&gt;N26</title>
<path fill="none" stroke="#000000" d="M2090.2683,-649.8038C2110.0332,-628.8714 2147.6214,-593.0893 2187.7901,-576 2256.777,-546.6503 2482.0712,-529.8417 2571.611,-524.1801"/>
<polygon fill="#000000" stroke="#000000" points="2572.0742,-527.6581 2581.8379,-523.5448 2571.6401,-520.6716 2572.0742,-527.6581"/>
</g>
<!-- N43&#45;&gt;N39 -->
<g id="edge101" class="edge">
<title>N43&#45;&gt;N39</title>
<path fill="none" stroke="#000000" d="M2101.0549,-654.1107C2126.6767,-642.0533 2166.4896,-623.3179 2194.8526,-609.9706"/>
<polygon fill="#000000" stroke="#000000" points="2196.4375,-613.093 2203.9954,-605.6681 2193.4569,-606.7593 2196.4375,-613.093"/>
</g>
<!-- N75 -->
<g id="node76" class="node">
<title>N75</title>
<ellipse fill="none" stroke="#000000" cx="2778.7901" cy="-522" rx="59.5901" ry="18"/>
<text text-anchor="middle" x="2778.7901" y="-518.3" font-family="Times,serif" font-size="14.00" fill="#000000">rustc_version</text>
</g>
<!-- N46&#45;&gt;N75 -->
<g id="edge102" class="edge">
<title>N46&#45;&gt;N75</title>
<path fill="none" stroke="#000000" d="M2778.7901,-575.8314C2778.7901,-568.131 2778.7901,-558.9743 2778.7901,-550.4166"/>
<polygon fill="#000000" stroke="#000000" points="2782.2902,-550.4132 2778.7901,-540.4133 2775.2902,-550.4133 2782.2902,-550.4132"/>
</g>
<!-- N47&#45;&gt;N48 -->
<g id="edge103" class="edge">
<title>N47&#45;&gt;N48</title>
<path fill="none" stroke="#000000" d="M1361.684,-504.1267C1358.232,-493.6689 1353.982,-480.1689 1350.7901,-468 1345.3962,-447.4364 1340.4742,-423.9219 1336.9919,-406.0864"/>
<polygon fill="#000000" stroke="#000000" points="1340.388,-405.2116 1335.0669,-396.0499 1333.5133,-406.5303 1340.388,-405.2116"/>
</g>
<!-- N49 -->
<g id="node50" class="node">
<title>N49</title>
<ellipse fill="none" stroke="#000000" cx="1246.7901" cy="-450" rx="56.59" ry="18"/>
<text text-anchor="middle" x="1246.7901" y="-446.3" font-family="Times,serif" font-size="14.00" fill="#000000">unicode&#45;bidi</text>
</g>
<!-- N47&#45;&gt;N49 -->
<g id="edge104" class="edge">
<title>N47&#45;&gt;N49</title>
<path fill="none" stroke="#000000" d="M1347.5374,-509.9488C1329.7595,-499.3702 1303.4961,-483.7424 1282.2416,-471.0951"/>
<polygon fill="#000000" stroke="#000000" points="1283.8621,-467.9866 1273.4786,-465.8808 1280.2825,-474.0022 1283.8621,-467.9866"/>
</g>
<!-- N50 -->
<g id="node51" class="node">
<title>N50</title>
<ellipse fill="none" stroke="#000000" cx="1452.7901" cy="-450" rx="92.8835" ry="18"/>
<text text-anchor="middle" x="1452.7901" y="-446.3" font-family="Times,serif" font-size="14.00" fill="#000000">unicode&#45;normalization</text>
</g>
<!-- N47&#45;&gt;N50 -->
<g id="edge105" class="edge">
<title>N47&#45;&gt;N50</title>
<path fill="none" stroke="#000000" d="M1384.5833,-507.7751C1395.8019,-498.2723 1410.8484,-485.5271 1423.9547,-474.4253"/>
<polygon fill="#000000" stroke="#000000" points="1426.4447,-476.903 1431.8129,-467.7689 1421.9202,-471.5617 1426.4447,-476.903"/>
</g>
<!-- N49&#45;&gt;N48 -->
<g id="edge106" class="edge">
<title>N49&#45;&gt;N48</title>
<path fill="none" stroke="#000000" d="M1266.9339,-432.937C1278.371,-423.2491 1292.8279,-411.0033 1305.1884,-400.5332"/>
<polygon fill="#000000" stroke="#000000" points="1307.5872,-403.0882 1312.9555,-393.954 1303.0628,-397.7468 1307.5872,-403.0882"/>
</g>
<!-- N52&#45;&gt;N32 -->
<g id="edge107" class="edge">
<title>N52&#45;&gt;N32</title>
<path fill="none" stroke="#000000" d="M2053.4081,-72.2022C2048.489,-63.7695 2042.5151,-53.5285 2037.0902,-44.2288"/>
<polygon fill="#000000" stroke="#000000" points="2039.9697,-42.2188 2031.9078,-35.3446 2033.9233,-45.746 2039.9697,-42.2188"/>
</g>
<!-- N52&#45;&gt;N33 -->
<g id="edge108" class="edge">
<title>N52&#45;&gt;N33</title>
<path fill="none" stroke="#000000" d="M2090.6439,-74.0209C2107.8759,-63.7671 2130.4476,-50.336 2149.1699,-39.1955"/>
<polygon fill="#000000" stroke="#000000" points="2151.2074,-42.0559 2158.0113,-33.9345 2147.6279,-36.0403 2151.2074,-42.0559"/>
</g>
<!-- N55 -->
<g id="node56" class="node">
<title>N55</title>
<ellipse fill="none" stroke="#000000" cx="2010.7901" cy="-378" rx="74.187" ry="18"/>
<text text-anchor="middle" x="2010.7901" y="-374.3" font-family="Times,serif" font-size="14.00" fill="#000000">libressl&#45;pnacl&#45;sys</text>
</g>
<!-- N56 -->
<g id="node57" class="node">
<title>N56</title>
<ellipse fill="none" stroke="#000000" cx="2014.7901" cy="-306" rx="77.9862" ry="18"/>
<text text-anchor="middle" x="2014.7901" y="-302.3" font-family="Times,serif" font-size="14.00" fill="#000000">pnacl&#45;build&#45;helper</text>
</g>
<!-- N55&#45;&gt;N56 -->
<g id="edge109" class="edge">
<title>N55&#45;&gt;N56</title>
<path fill="none" stroke="#000000" d="M2011.7994,-359.8314C2012.2272,-352.131 2012.736,-342.9743 2013.2114,-334.4166"/>
<polygon fill="#000000" stroke="#000000" points="2016.7069,-334.592 2013.7671,-324.4133 2009.7177,-334.2037 2016.7069,-334.592"/>
</g>
<!-- N56&#45;&gt;N60 -->
<g id="edge110" class="edge">
<title>N56&#45;&gt;N60</title>
<path fill="none" stroke="#000000" d="M2072.3395,-293.7046C2138.4476,-279.5806 2245.5721,-256.6935 2306.185,-243.7435"/>
<polygon fill="#000000" stroke="#000000" points="2307.1727,-247.1116 2316.2207,-241.5994 2305.7101,-240.2661 2307.1727,-247.1116"/>
</g>
<!-- N70 -->
<g id="node71" class="node">
<title>N70</title>
<ellipse fill="none" stroke="#000000" cx="1996.7901" cy="-234" rx="38.1938" ry="18"/>
<text text-anchor="middle" x="1996.7901" y="-230.3" font-family="Times,serif" font-size="14.00" fill="#000000">walkdir</text>
</g>
<!-- N56&#45;&gt;N70 -->
<g id="edge111" class="edge">
<title>N56&#45;&gt;N70</title>
<path fill="none" stroke="#000000" d="M2010.2479,-287.8314C2008.2717,-279.9266 2005.9119,-270.4872 2003.7242,-261.7365"/>
<polygon fill="#000000" stroke="#000000" points="2007.0894,-260.7659 2001.2684,-251.9134 2000.2984,-262.4637 2007.0894,-260.7659"/>
</g>
<!-- N57&#45;&gt;N27 -->
<g id="edge112" class="edge">
<title>N57&#45;&gt;N27</title>
<path fill="none" stroke="#000000" d="M2835.3839,-865.5879C2821.8298,-855.7163 2805.2432,-842.3146 2792.7901,-828 2755.7785,-785.456 2724.7096,-726.941 2708.3084,-693.1279"/>
<polygon fill="#000000" stroke="#000000" points="2711.3573,-691.3903 2703.8885,-683.8757 2705.041,-694.4077 2711.3573,-691.3903"/>
</g>
<!-- N57&#45;&gt;N46 -->
<g id="edge113" class="edge">
<title>N57&#45;&gt;N46</title>
<path fill="none" stroke="#000000" d="M2895.9475,-868.1051C2953.8376,-843.5148 3057.7374,-788.4121 3025.7901,-720 2983.046,-628.4676 2921.1683,-645.2901 2825.7901,-612 2823.0832,-611.0552 2820.298,-610.0569 2817.4992,-609.0343"/>
<polygon fill="#000000" stroke="#000000" points="2818.617,-605.7158 2808.0243,-605.5065 2816.1745,-612.2759 2818.617,-605.7158"/>
</g>
<!-- N58 -->
<g id="node59" class="node">
<title>N58</title>
<ellipse fill="none" stroke="#000000" cx="2989.7901" cy="-738" rx="27" ry="18"/>
<text text-anchor="middle" x="2989.7901" y="-734.3" font-family="Times,serif" font-size="14.00" fill="#000000">phf</text>
</g>
<!-- N57&#45;&gt;N58 -->
<g id="edge114" class="edge">
<title>N57&#45;&gt;N58</title>
<path fill="none" stroke="#000000" d="M2883.4975,-865.4785C2896.9833,-855.4713 2913.7333,-841.9713 2926.7901,-828 2945.3678,-808.1211 2962.8039,-782.4497 2974.6018,-763.6145"/>
<polygon fill="#000000" stroke="#000000" points="2977.6598,-765.3234 2979.9209,-754.9726 2971.6985,-761.6542 2977.6598,-765.3234"/>
</g>
<!-- N59 -->
<g id="node60" class="node">
<title>N59</title>
<ellipse fill="none" stroke="#000000" cx="2859.7901" cy="-810" rx="57.6901" ry="18"/>
<text text-anchor="middle" x="2859.7901" y="-806.3" font-family="Times,serif" font-size="14.00" fill="#000000">phf_codegen</text>
</g>
<!-- N57&#45;&gt;N59 -->
<g id="edge115" class="edge">
<title>N57&#45;&gt;N59</title>
<path fill="none" stroke="#000000" d="M2859.7901,-863.8314C2859.7901,-856.131 2859.7901,-846.9743 2859.7901,-838.4166"/>
<polygon fill="#000000" stroke="#000000" points="2863.2902,-838.4132 2859.7901,-828.4133 2856.2902,-838.4133 2863.2902,-838.4132"/>
</g>
<!-- N66 -->
<g id="node67" class="node">
<title>N66</title>
<ellipse fill="none" stroke="#000000" cx="2879.7901" cy="-666" rx="51.1914" ry="18"/>
<text text-anchor="middle" x="2879.7901" y="-662.3" font-family="Times,serif" font-size="14.00" fill="#000000">phf_shared</text>
</g>
<!-- N58&#45;&gt;N66 -->
<g id="edge116" class="edge">
<title>N58&#45;&gt;N66</title>
<path fill="none" stroke="#000000" d="M2970.3775,-725.2936C2954.5105,-714.9079 2931.7185,-699.9895 2912.9664,-687.7154"/>
<polygon fill="#000000" stroke="#000000" points="2914.6884,-684.6595 2904.4045,-682.1113 2910.8547,-690.5164 2914.6884,-684.6595"/>
</g>
<!-- N59&#45;&gt;N66 -->
<g id="edge117" class="edge">
<title>N59&#45;&gt;N66</title>
<path fill="none" stroke="#000000" d="M2884.4609,-793.5681C2896.3261,-784.14 2909.3464,-771.1651 2915.7901,-756 2922.0471,-741.2742 2920.4266,-735.3135 2915.7901,-720 2912.7852,-710.0755 2907.2882,-700.3077 2901.4793,-691.8667"/>
<polygon fill="#000000" stroke="#000000" points="2904.1462,-689.5853 2895.4043,-683.5996 2898.5054,-693.7304 2904.1462,-689.5853"/>
</g>
<!-- N67 -->
<g id="node68" class="node">
<title>N67</title>
<ellipse fill="none" stroke="#000000" cx="2844.7901" cy="-738" rx="61.99" ry="18"/>
<text text-anchor="middle" x="2844.7901" y="-734.3" font-family="Times,serif" font-size="14.00" fill="#000000">phf_generator</text>
</g>
<!-- N59&#45;&gt;N67 -->
<g id="edge118" class="edge">
<title>N59&#45;&gt;N67</title>
<path fill="none" stroke="#000000" d="M2856.0049,-791.8314C2854.4007,-784.131 2852.4931,-774.9743 2850.7102,-766.4166"/>
<polygon fill="#000000" stroke="#000000" points="2854.0922,-765.4892 2848.6262,-756.4133 2847.2394,-766.9169 2854.0922,-765.4892"/>
</g>
<!-- N60&#45;&gt;N68 -->
<g id="edge119" class="edge">
<title>N60&#45;&gt;N68</title>
<path fill="none" stroke="#000000" d="M2360.1946,-216.2022C2364.1352,-207.8574 2368.9121,-197.7417 2373.2669,-188.5197"/>
<polygon fill="#000000" stroke="#000000" points="2376.4943,-189.8816 2377.5996,-179.3446 2370.1646,-186.8925 2376.4943,-189.8816"/>
</g>
<!-- N61&#45;&gt;N31 -->
<g id="edge120" class="edge">
<title>N61&#45;&gt;N31</title>
<path fill="none" stroke="#000000" d="M2202.6706,-434.5984C2217.2227,-425.2214 2234.1611,-411.9725 2244.7901,-396 2267.7245,-361.5357 2268.7901,-347.3978 2268.7901,-306 2268.7901,-306 2268.7901,-306 2268.7901,-234 2268.7901,-186.5839 2234.3887,-140.8822 2209.6165,-114.1194"/>
<polygon fill="#000000" stroke="#000000" points="2212.0378,-111.5869 2202.6043,-106.7641 2206.9713,-116.4171 2212.0378,-111.5869"/>
</g>
<!-- N61&#45;&gt;N54 -->
<g id="edge121" class="edge">
<title>N61&#45;&gt;N54</title>
<path fill="none" stroke="#000000" d="M2190.8315,-432.4715C2198.8096,-422.5513 2207.6208,-409.4612 2211.7901,-396 2216.5239,-380.7163 2217.2369,-375.0443 2211.7901,-360 2169.2492,-242.4999 2132.8907,-217.4483 2031.7901,-144 2001.3729,-121.9023 1960.6533,-107.2391 1931.9149,-98.8394"/>
<polygon fill="#000000" stroke="#000000" points="1932.8603,-95.4695 1922.286,-96.1276 1930.9627,-102.2074 1932.8603,-95.4695"/>
</g>
<!-- N61&#45;&gt;N55 -->
<g id="edge122" class="edge">
<title>N61&#45;&gt;N55</title>
<path fill="none" stroke="#000000" d="M2142.389,-435.7751C2117.7554,-424.9604 2083.5563,-409.9461 2056.1955,-397.9341"/>
<polygon fill="#000000" stroke="#000000" points="2057.3931,-394.6375 2046.8297,-393.8223 2054.5792,-401.047 2057.3931,-394.6375"/>
</g>
<!-- N63 -->
<g id="node64" class="node">
<title>N63</title>
<ellipse fill="none" stroke="#000000" cx="2152.7901" cy="-378" rx="50.0912" ry="18"/>
<text text-anchor="middle" x="2152.7901" y="-374.3" font-family="Times,serif" font-size="14.00" fill="#000000">pkg&#45;config</text>
</g>
<!-- N61&#45;&gt;N63 -->
<g id="edge123" class="edge">
<title>N61&#45;&gt;N63</title>
<path fill="none" stroke="#000000" d="M2169.2386,-431.8314C2166.8232,-423.9266 2163.939,-414.4872 2161.2651,-405.7365"/>
<polygon fill="#000000" stroke="#000000" points="2164.5331,-404.4541 2158.2636,-395.9134 2157.8386,-406.4997 2164.5331,-404.4541"/>
</g>
<!-- N64 -->
<g id="node65" class="node">
<title>N64</title>
<ellipse fill="none" stroke="#000000" cx="2298.7901" cy="-90" rx="49.2915" ry="18"/>
<text text-anchor="middle" x="2298.7901" y="-86.3" font-family="Times,serif" font-size="14.00" fill="#000000">user32&#45;sys</text>
</g>
<!-- N61&#45;&gt;N64 -->
<g id="edge124" class="edge">
<title>N61&#45;&gt;N64</title>
<path fill="none" stroke="#000000" d="M2221.0956,-441.4358C2317.6911,-422.2478 2531.7901,-372.2465 2531.7901,-306 2531.7901,-306 2531.7901,-306 2531.7901,-234 2531.7901,-150.83 2423.0354,-114.0898 2354.1278,-99.1583"/>
<polygon fill="#000000" stroke="#000000" points="2354.7708,-95.7172 2344.2679,-97.1106 2353.3473,-102.571 2354.7708,-95.7172"/>
</g>
<!-- N62&#45;&gt;N30 -->
<g id="edge125" class="edge">
<title>N62&#45;&gt;N30</title>
<path fill="none" stroke="#000000" d="M1957.8821,-504.5708C1969.5314,-494.4653 1984.2799,-481.6714 1996.5681,-471.0118"/>
<polygon fill="#000000" stroke="#000000" points="1998.9702,-473.5615 2004.2306,-464.3649 1994.3832,-468.2738 1998.9702,-473.5615"/>
</g>
<!-- N62&#45;&gt;N54 -->
<g id="edge126" class="edge">
<title>N62&#45;&gt;N54</title>
<path fill="none" stroke="#000000" d="M1923.2521,-504.15C1903.5468,-478.0937 1870.7901,-427.3567 1870.7901,-378 1870.7901,-378 1870.7901,-378 1870.7901,-234 1870.7901,-193.0476 1881.0996,-146.5715 1888.7349,-117.7668"/>
<polygon fill="#000000" stroke="#000000" points="1892.1448,-118.5658 1891.4029,-107.997 1885.3921,-116.7217 1892.1448,-118.5658"/>
</g>
<!-- N62&#45;&gt;N61 -->
<g id="edge127" class="edge">
<title>N62&#45;&gt;N61</title>
<path fill="none" stroke="#000000" d="M1984.897,-507.689C2025.6385,-495.3119 2084.3302,-477.4815 2125.6539,-464.9275"/>
<polygon fill="#000000" stroke="#000000" points="2126.6886,-468.2711 2135.2394,-462.0154 2124.6538,-461.5734 2126.6886,-468.2711"/>
</g>
<!-- N64&#45;&gt;N32 -->
<g id="edge128" class="edge">
<title>N64&#45;&gt;N32</title>
<path fill="none" stroke="#000000" d="M2261.1078,-78.1769C2254.0436,-76.0534 2246.7063,-73.9101 2239.7901,-72 2179.1198,-55.2438 2108.2825,-38.1482 2064.2238,-27.8037"/>
<polygon fill="#000000" stroke="#000000" points="2064.9673,-24.3832 2054.4328,-25.5126 2063.3723,-31.1991 2064.9673,-24.3832"/>
</g>
<!-- N64&#45;&gt;N33 -->
<g id="edge129" class="edge">
<title>N64&#45;&gt;N33</title>
<path fill="none" stroke="#000000" d="M2274.0538,-74.3771C2258.1051,-64.3042 2237.1317,-51.0578 2219.5225,-39.9363"/>
<polygon fill="#000000" stroke="#000000" points="2220.989,-36.7229 2210.6651,-34.3421 2217.251,-42.6413 2220.989,-36.7229"/>
</g>
<!-- N80 -->
<g id="node81" class="node">
<title>N80</title>
<ellipse fill="none" stroke="#000000" cx="3172.7901" cy="-810" rx="50.8918" ry="18"/>
<text text-anchor="middle" x="3172.7901" y="-806.3" font-family="Times,serif" font-size="14.00" fill="#000000">unsafe&#45;any</text>
</g>
<!-- N65&#45;&gt;N80 -->
<g id="edge130" class="edge">
<title>N65&#45;&gt;N80</title>
<path fill="none" stroke="#000000" d="M3165.3135,-863.8314C3166.383,-856.131 3167.6548,-846.9743 3168.8433,-838.4166"/>
<polygon fill="#000000" stroke="#000000" points="3172.3236,-838.7997 3170.2327,-828.4133 3165.3902,-837.8367 3172.3236,-838.7997"/>
</g>
<!-- N66&#45;&gt;N46 -->
<g id="edge131" class="edge">
<title>N66&#45;&gt;N46</title>
<path fill="none" stroke="#000000" d="M2857.1237,-649.8418C2842.6963,-639.5569 2823.8611,-626.1298 2808.2759,-615.0196"/>
<polygon fill="#000000" stroke="#000000" points="2810.175,-612.0751 2800.0005,-609.1203 2806.1116,-617.7751 2810.175,-612.0751"/>
</g>
<!-- N69 -->
<g id="node70" class="node">
<title>N69</title>
<ellipse fill="none" stroke="#000000" cx="2879.7901" cy="-594" rx="44.6926" ry="18"/>
<text text-anchor="middle" x="2879.7901" y="-590.3" font-family="Times,serif" font-size="14.00" fill="#000000">siphasher</text>
</g>
<!-- N66&#45;&gt;N69 -->
<g id="edge132" class="edge">
<title>N66&#45;&gt;N69</title>
<path fill="none" stroke="#000000" d="M2879.7901,-647.8314C2879.7901,-640.131 2879.7901,-630.9743 2879.7901,-622.4166"/>
<polygon fill="#000000" stroke="#000000" points="2883.2902,-622.4132 2879.7901,-612.4133 2876.2902,-622.4133 2883.2902,-622.4132"/>
</g>
<!-- N67&#45;&gt;N66 -->
<g id="edge133" class="edge">
<title>N67&#45;&gt;N66</title>
<path fill="none" stroke="#000000" d="M2853.6221,-719.8314C2857.5482,-711.7547 2862.2531,-702.0761 2866.584,-693.1668"/>
<polygon fill="#000000" stroke="#000000" points="2869.858,-694.4373 2871.0822,-683.9134 2863.5624,-691.3769 2869.858,-694.4373"/>
</g>
<!-- N67&#45;&gt;N68 -->
<g id="edge134" class="edge">
<title>N67&#45;&gt;N68</title>
<path fill="none" stroke="#000000" d="M2828.2638,-720.4298C2805.8556,-696.4153 2764.8387,-651.777 2731.7901,-612 2664.0382,-530.4545 2465.7626,-268.1071 2404.2248,-186.4775"/>
<polygon fill="#000000" stroke="#000000" points="2406.8693,-184.1711 2398.0555,-178.2917 2401.2791,-188.3842 2406.8693,-184.1711"/>
</g>
<!-- N68&#45;&gt;N54 -->
<g id="edge135" class="edge">
<title>N68&#45;&gt;N54</title>
<path fill="none" stroke="#000000" d="M2358.9251,-158.6192C2295.8009,-150.5973 2133.1385,-129.4713 1997.7901,-108 1976.1689,-104.5701 1952.0273,-100.2844 1932.7695,-96.7554"/>
<polygon fill="#000000" stroke="#000000" points="1933.3715,-93.3075 1922.9025,-94.9354 1932.1016,-100.1914 1933.3715,-93.3075"/>
</g>
<!-- N70&#45;&gt;N32 -->
<g id="edge136" class="edge">
<title>N70&#45;&gt;N32</title>
<path fill="none" stroke="#000000" d="M1970.182,-220.6909C1919.7716,-193.6976 1818.9744,-130.1302 1860.7901,-72 1874.736,-52.613 1935.5124,-36.1369 1978.2597,-26.6521"/>
<polygon fill="#000000" stroke="#000000" points="1979.1272,-30.0454 1988.1596,-24.5078 1977.6453,-23.204 1979.1272,-30.0454"/>
</g>
<!-- N70&#45;&gt;N52 -->
<g id="edge137" class="edge">
<title>N70&#45;&gt;N52</title>
<path fill="none" stroke="#000000" d="M2009.5446,-216.6181C2016.7128,-206.3242 2025.4628,-192.8242 2031.7901,-180 2041.7115,-159.8913 2050.0795,-135.9168 2055.7673,-117.7701"/>
<polygon fill="#000000" stroke="#000000" points="2059.1496,-118.6776 2058.721,-108.0915 2052.4544,-116.6344 2059.1496,-118.6776"/>
</g>
<!-- N77 -->
<g id="node78" class="node">
<title>N77</title>
<ellipse fill="none" stroke="#000000" cx="1978.7901" cy="-162" rx="44.393" ry="18"/>
<text text-anchor="middle" x="1978.7901" y="-158.3" font-family="Times,serif" font-size="14.00" fill="#000000">same&#45;file</text>
</g>
<!-- N70&#45;&gt;N77 -->
<g id="edge138" class="edge">
<title>N70&#45;&gt;N77</title>
<path fill="none" stroke="#000000" d="M1992.2479,-215.8314C1990.2717,-207.9266 1987.9119,-198.4872 1985.7242,-189.7365"/>
<polygon fill="#000000" stroke="#000000" points="1989.0894,-188.7659 1983.2684,-179.9134 1982.2984,-190.4637 1989.0894,-188.7659"/>
</g>
<!-- N78 -->
<g id="node79" class="node">
<title>N78</title>
<ellipse fill="none" stroke="#000000" cx="2701.7901" cy="-162" rx="43.5923" ry="18"/>
<text text-anchor="middle" x="2701.7901" y="-158.3" font-family="Times,serif" font-size="14.00" fill="#000000">thread&#45;id</text>
</g>
<!-- N73&#45;&gt;N78 -->
<g id="edge139" class="edge">
<title>N73&#45;&gt;N78</title>
<path fill="none" stroke="#000000" d="M2790.2063,-217.8418C2773.771,-207.4617 2752.2682,-193.8809 2734.5834,-182.7116"/>
<polygon fill="#000000" stroke="#000000" points="2736.0544,-179.5011 2725.7305,-177.1203 2732.3165,-185.4195 2736.0544,-179.5011"/>
</g>
<!-- N76 -->
<g id="node77" class="node">
<title>N76</title>
<ellipse fill="none" stroke="#000000" cx="2778.7901" cy="-450" rx="37.0935" ry="18"/>
<text text-anchor="middle" x="2778.7901" y="-446.3" font-family="Times,serif" font-size="14.00" fill="#000000">semver</text>
</g>
<!-- N75&#45;&gt;N76 -->
<g id="edge140" class="edge">
<title>N75&#45;&gt;N76</title>
<path fill="none" stroke="#000000" d="M2778.7901,-503.8314C2778.7901,-496.131 2778.7901,-486.9743 2778.7901,-478.4166"/>
<polygon fill="#000000" stroke="#000000" points="2782.2902,-478.4132 2778.7901,-468.4133 2775.2902,-478.4133 2782.2902,-478.4132"/>
</g>
<!-- N77&#45;&gt;N32 -->
<g id="edge141" class="edge">
<title>N77&#45;&gt;N32</title>
<path fill="none" stroke="#000000" d="M1981.4812,-143.7786C1984.465,-125.3876 1989.9191,-96.3085 1997.7901,-72 2000.7292,-62.9229 2004.7002,-53.3143 2008.5655,-44.7583"/>
<polygon fill="#000000" stroke="#000000" points="2011.768,-46.1722 2012.824,-35.6301 2005.4244,-43.2127 2011.768,-46.1722"/>
</g>
<!-- N77&#45;&gt;N52 -->
<g id="edge142" class="edge">
<title>N77&#45;&gt;N52</title>
<path fill="none" stroke="#000000" d="M1998.0779,-145.6621C2009.248,-136.2004 2023.504,-124.1247 2035.8809,-113.6407"/>
<polygon fill="#000000" stroke="#000000" points="2038.3234,-116.1587 2043.6917,-107.0245 2033.799,-110.8173 2038.3234,-116.1587"/>
</g>
<!-- N78&#45;&gt;N52 -->
<g id="edge143" class="edge">
<title>N78&#45;&gt;N52</title>
<path fill="none" stroke="#000000" d="M2669.9229,-149.6989C2663.0429,-147.4619 2655.7449,-145.3977 2648.7901,-144 2422.1016,-98.4427 2357.7652,-146.6063 2129.7901,-108 2124.9926,-107.1876 2120.0403,-106.1742 2115.1056,-105.045"/>
<polygon fill="#000000" stroke="#000000" points="2115.6014,-101.5633 2105.0566,-102.5917 2113.9411,-108.3635 2115.6014,-101.5633"/>
</g>
<!-- N78&#45;&gt;N54 -->
<g id="edge144" class="edge">
<title>N78&#45;&gt;N54</title>
<path fill="none" stroke="#000000" d="M2669.9376,-149.6242C2663.0566,-147.3922 2655.7545,-145.3489 2648.7901,-144 2364.302,-88.8973 2285.6246,-141.4824 1997.7901,-108 1976.0452,-105.4705 1951.8987,-101.2207 1932.6692,-97.4856"/>
<polygon fill="#000000" stroke="#000000" points="1933.3097,-94.0445 1922.8201,-95.5345 1931.9494,-100.9111 1933.3097,-94.0445"/>
</g>
<!-- N79 -->
<g id="node80" class="node">
<title>N79</title>
<ellipse fill="none" stroke="#000000" cx="3183.7901" cy="-738" rx="72.5877" ry="18"/>
<text text-anchor="middle" x="3183.7901" y="-734.3" font-family="Times,serif" font-size="14.00" fill="#000000">traitobject v0.1.0</text>
</g>
<!-- N80&#45;&gt;N79 -->
<g id="edge145" class="edge">
<title>N80&#45;&gt;N79</title>
<path fill="none" stroke="#000000" d="M3175.5658,-791.8314C3176.7423,-784.131 3178.1412,-774.9743 3179.4487,-766.4166"/>
<polygon fill="#000000" stroke="#000000" points="3182.9265,-766.8272 3180.9769,-756.4133 3176.0067,-765.7699 3182.9265,-766.8272"/>
</g>
</g>
</svg>
