<?xml version="1.0" encoding="UTF-8" standalone="no"?>
<!DOCTYPE svg PUBLIC "-//W3C//DTD SVG 1.1//EN"
 "http://www.w3.org/Graphics/SVG/1.1/DTD/svg11.dtd">
<!-- Generated by graphviz version 2.40.1 (20161225.0304)
 -->
<!-- Title: dependencies Pages: 1 -->
<svg width="3754pt" height="908pt"
 viewBox="0.00 0.00 3753.66 908.00" xmlns="http://www.w3.org/2000/svg" xmlns:xlink="http://www.w3.org/1999/xlink">
<g id="graph0" class="graph" transform="scale(1 1) rotate(0) translate(4 904)">
<title>dependencies</title>
<polygon fill="#ffffff" stroke="transparent" points="-4,4 -4,-904 3749.665,-904 3749.665,4 -4,4"/>
<!-- N0 -->
<g id="node1" class="node">
<title>N0</title>
<ellipse fill="none" stroke="#000000" cx="3489" cy="-882" rx="29.4969" ry="18"/>
<text text-anchor="middle" x="3489" y="-878.3" font-family="Times,serif" font-size="14.00" fill="#000000">news</text>
</g>
<!-- N1 -->
<g id="node2" class="node">
<title>N1</title>
<ellipse fill="none" stroke="#000000" cx="3489" cy="-738" rx="52.7911" ry="18"/>
<text text-anchor="middle" x="3489" y="-734.3" font-family="Times,serif" font-size="14.00" fill="#000000">horrorshow</text>
</g>
<!-- N0&#45;&gt;N1 -->
<g id="edge1" class="edge">
<title>N0&#45;&gt;N1</title>
<path fill="none" stroke="#000000" d="M3469.7975,-868.3492C3457.8812,-858.6305 3443.6191,-844.4163 3437,-828 3431.0168,-813.1608 3431.0168,-806.8392 3437,-792 3441.7149,-780.3064 3450.3078,-769.7302 3459.1685,-761.1001"/>
<polygon fill="#000000" stroke="#000000" points="3461.5651,-763.6514 3466.5953,-754.3268 3456.8481,-758.4794 3461.5651,-763.6514"/>
</g>
<!-- N2 -->
<g id="node3" class="node">
<title>N2</title>
<ellipse fill="none" stroke="#000000" cx="2253" cy="-810" rx="33.2948" ry="18"/>
<text text-anchor="middle" x="2253" y="-806.3" font-family="Times,serif" font-size="14.00" fill="#000000">pencil</text>
</g>
<!-- N0&#45;&gt;N2 -->
<g id="edge2" class="edge">
<title>N0&#45;&gt;N2</title>
<path fill="none" stroke="#000000" d="M3459.6661,-880.2912C3295.6182,-870.735 2492.2073,-823.9344 2296.1924,-812.5161"/>
<polygon fill="#000000" stroke="#000000" points="2296.1844,-809.0098 2285.9977,-811.9222 2295.7772,-815.9979 2296.1844,-809.0098"/>
</g>
<!-- N3 -->
<g id="node4" class="node">
<title>N3</title>
<ellipse fill="none" stroke="#000000" cx="3489" cy="-810" rx="42.7926" ry="18"/>
<text text-anchor="middle" x="3489" y="-806.3" font-family="Times,serif" font-size="14.00" fill="#000000">walkdir_</text>
</g>
<!-- N0&#45;&gt;N3 -->
<g id="edge3" class="edge">
<title>N0&#45;&gt;N3</title>
<path fill="none" stroke="#000000" d="M3489,-863.8314C3489,-856.131 3489,-846.9743 3489,-838.4166"/>
<polygon fill="#000000" stroke="#000000" points="3492.5001,-838.4132 3489,-828.4133 3485.5001,-838.4133 3492.5001,-838.4132"/>
</g>
<!-- N4 -->
<g id="node5" class="node">
<title>N4</title>
<ellipse fill="none" stroke="#000000" cx="3605" cy="-810" rx="55.4913" ry="18"/>
<text text-anchor="middle" x="3605" y="-806.3" font-family="Times,serif" font-size="14.00" fill="#000000">webbrowser</text>
</g>
<!-- N0&#45;&gt;N4 -->
<g id="edge4" class="edge">
<title>N0&#45;&gt;N4</title>
<path fill="none" stroke="#000000" d="M3509.7385,-869.1278C3526.5792,-858.675 3550.688,-843.7109 3570.4378,-831.4524"/>
<polygon fill="#000000" stroke="#000000" points="3572.5129,-834.2838 3579.1635,-826.0364 3568.8213,-828.3364 3572.5129,-834.2838"/>
</g>
<!-- N5 -->
<g id="node6" class="node">
<title>N5</title>
<ellipse fill="none" stroke="#000000" cx="3647" cy="-738" rx="45.4919" ry="18"/>
<text text-anchor="middle" x="3647" y="-734.3" font-family="Times,serif" font-size="14.00" fill="#000000">yaml&#45;rust</text>
</g>
<!-- N0&#45;&gt;N5 -->
<g id="edge5" class="edge">
<title>N0&#45;&gt;N5</title>
<path fill="none" stroke="#000000" d="M3517.5811,-877.6181C3563.6069,-869.9129 3650.8392,-852.4087 3669,-828 3682.6974,-809.5903 3674.2974,-783.7507 3664.1741,-764.4785"/>
<polygon fill="#000000" stroke="#000000" points="3667.1254,-762.5872 3659.1554,-755.6066 3661.0327,-766.0337 3667.1254,-762.5872"/>
</g>
<!-- N14 -->
<g id="node15" class="node">
<title>N14</title>
<ellipse fill="none" stroke="#000000" cx="1466" cy="-162" rx="61.99" ry="18"/>
<text text-anchor="middle" x="1466" y="-158.3" font-family="Times,serif" font-size="14.00" fill="#000000">rustc&#45;serialize</text>
</g>
<!-- N2&#45;&gt;N14 -->
<g id="edge6" class="edge">
<title>N2&#45;&gt;N14</title>
<path fill="none" stroke="#000000" d="M2219.7872,-809.7084C2006.7952,-807.7308 830.2702,-795.1616 473,-756 260.2802,-732.6831 0,-879.9939 0,-666 0,-666 0,-666 0,-306 0,-235.0743 1101.1534,-178.9254 1394.7731,-165.2142"/>
<polygon fill="#000000" stroke="#000000" points="1395.0477,-168.7053 1404.8742,-164.7444 1394.7224,-161.7129 1395.0477,-168.7053"/>
</g>
<!-- N16 -->
<g id="node17" class="node">
<title>N16</title>
<ellipse fill="none" stroke="#000000" cx="2742" cy="-522" rx="27" ry="18"/>
<text text-anchor="middle" x="2742" y="-518.3" font-family="Times,serif" font-size="14.00" fill="#000000">url</text>
</g>
<!-- N2&#45;&gt;N16 -->
<g id="edge7" class="edge">
<title>N2&#45;&gt;N16</title>
<path fill="none" stroke="#000000" d="M2284.463,-804.1631C2439.717,-775.2189 3117.8433,-647.0835 3146,-612 3156.0146,-599.5217 3156.7088,-587.8879 3146,-576 3094.5565,-518.892 2877.3622,-555.1092 2802,-540 2793.3395,-538.2637 2784.1351,-535.8173 2775.6035,-533.2862"/>
<polygon fill="#000000" stroke="#000000" points="2776.5576,-529.9178 2765.9701,-530.3135 2774.4935,-536.6066 2776.5576,-529.9178"/>
</g>
<!-- N24 -->
<g id="node25" class="node">
<title>N24</title>
<ellipse fill="none" stroke="#000000" cx="1604" cy="-738" rx="43.5923" ry="18"/>
<text text-anchor="middle" x="1604" y="-734.3" font-family="Times,serif" font-size="14.00" fill="#000000">formdata</text>
</g>
<!-- N2&#45;&gt;N24 -->
<g id="edge8" class="edge">
<title>N2&#45;&gt;N24</title>
<path fill="none" stroke="#000000" d="M2220.3712,-806.3802C2115.2596,-794.7191 1784.8698,-758.0657 1656.1037,-743.7804"/>
<polygon fill="#000000" stroke="#000000" points="1656.4193,-740.294 1646.0943,-742.6699 1655.6474,-747.2513 1656.4193,-740.294"/>
</g>
<!-- N26 -->
<g id="node27" class="node">
<title>N26</title>
<ellipse fill="none" stroke="#000000" cx="2647" cy="-666" rx="31.3957" ry="18"/>
<text text-anchor="middle" x="2647" y="-662.3" font-family="Times,serif" font-size="14.00" fill="#000000">hyper</text>
</g>
<!-- N2&#45;&gt;N26 -->
<g id="edge9" class="edge">
<title>N2&#45;&gt;N26</title>
<path fill="none" stroke="#000000" d="M2286.1781,-809.4838C2404.4857,-807.3047 2800.63,-796.9784 2838,-756 2884.8708,-704.6034 2757.3122,-679.9518 2688.1612,-670.6355"/>
<polygon fill="#000000" stroke="#000000" points="2688.3716,-667.1336 2678.0049,-669.3205 2687.4727,-674.0757 2688.3716,-667.1336"/>
</g>
<!-- N27 -->
<g id="node28" class="node">
<title>N27</title>
<ellipse fill="none" stroke="#000000" cx="1713" cy="-234" rx="27" ry="18"/>
<text text-anchor="middle" x="1713" y="-230.3" font-family="Times,serif" font-size="14.00" fill="#000000">log</text>
</g>
<!-- N2&#45;&gt;N27 -->
<g id="edge10" class="edge">
<title>N2&#45;&gt;N27</title>
<path fill="none" stroke="#000000" d="M2219.7608,-809.6707C1956.0166,-806.7217 207.8926,-780.8495 57,-612 -103.3665,-432.5492 874.0801,-404.1708 1101,-324 1136.2409,-311.5494 1140.9805,-297.9768 1177,-288 1334.5208,-244.3693 1380.394,-268.6053 1543,-252 1588.8888,-247.3138 1641.7183,-241.6831 1676.1467,-237.9821"/>
<polygon fill="#000000" stroke="#000000" points="1676.6446,-241.4488 1686.2125,-236.8986 1675.8954,-234.489 1676.6446,-241.4488"/>
</g>
<!-- N28 -->
<g id="node29" class="node">
<title>N28</title>
<ellipse fill="none" stroke="#000000" cx="2118" cy="-594" rx="31.3957" ry="18"/>
<text text-anchor="middle" x="2118" y="-590.3" font-family="Times,serif" font-size="14.00" fill="#000000">mime</text>
</g>
<!-- N2&#45;&gt;N28 -->
<g id="edge11" class="edge">
<title>N2&#45;&gt;N28</title>
<path fill="none" stroke="#000000" d="M2225.0995,-799.8433C2205.016,-791.153 2178.7831,-776.7332 2163,-756 2132.767,-716.285 2122.8452,-657.3484 2119.5895,-622.5871"/>
<polygon fill="#000000" stroke="#000000" points="2123.0447,-621.8905 2118.7494,-612.2054 2116.0675,-622.4551 2123.0447,-621.8905"/>
</g>
<!-- N37 -->
<g id="node38" class="node">
<title>N37</title>
<ellipse fill="none" stroke="#000000" cx="1924" cy="-450" rx="50.0912" ry="18"/>
<text text-anchor="middle" x="1924" y="-446.3" font-family="Times,serif" font-size="14.00" fill="#000000">handlebars</text>
</g>
<!-- N2&#45;&gt;N37 -->
<g id="edge12" class="edge">
<title>N2&#45;&gt;N37</title>
<path fill="none" stroke="#000000" d="M2237.6203,-793.756C2215.4128,-768.5257 2177,-717.4482 2177,-666 2177,-666 2177,-666 2177,-594 2177,-504.822 2056.8048,-470.1662 1982.1059,-457.2393"/>
<polygon fill="#000000" stroke="#000000" points="1982.3207,-453.7276 1971.8848,-455.5561 1981.1831,-460.6346 1982.3207,-453.7276"/>
</g>
<!-- N41 -->
<g id="node42" class="node">
<title>N41</title>
<ellipse fill="none" stroke="#000000" cx="2211" cy="-378" rx="31.3957" ry="18"/>
<text text-anchor="middle" x="2211" y="-374.3" font-family="Times,serif" font-size="14.00" fill="#000000">regex</text>
</g>
<!-- N2&#45;&gt;N41 -->
<g id="edge13" class="edge">
<title>N2&#45;&gt;N41</title>
<path fill="none" stroke="#000000" d="M2251.2488,-791.9875C2244.7113,-724.7447 2221.7021,-488.0792 2213.7376,-406.1585"/>
<polygon fill="#000000" stroke="#000000" points="2217.21,-405.7038 2212.7587,-396.0894 2210.2429,-406.3812 2217.21,-405.7038"/>
</g>
<!-- N59 -->
<g id="node60" class="node">
<title>N59</title>
<ellipse fill="none" stroke="#000000" cx="3362" cy="-738" rx="55.7903" ry="18"/>
<text text-anchor="middle" x="3362" y="-734.3" font-family="Times,serif" font-size="14.00" fill="#000000">mime_guess</text>
</g>
<!-- N2&#45;&gt;N59 -->
<g id="edge14" class="edge">
<title>N2&#45;&gt;N59</title>
<path fill="none" stroke="#000000" d="M2286.1902,-807.8452C2440.3608,-797.8359 3087.8991,-755.7955 3296.7617,-742.2355"/>
<polygon fill="#000000" stroke="#000000" points="3297.2079,-745.714 3306.9601,-741.5734 3296.7543,-738.7287 3297.2079,-745.714"/>
</g>
<!-- N66 -->
<g id="node67" class="node">
<title>N66</title>
<ellipse fill="none" stroke="#000000" cx="2787" cy="-738" rx="42.4939" ry="18"/>
<text text-anchor="middle" x="2787" y="-734.3" font-family="Times,serif" font-size="14.00" fill="#000000">typemap</text>
</g>
<!-- N2&#45;&gt;N66 -->
<g id="edge15" class="edge">
<title>N2&#45;&gt;N66</title>
<path fill="none" stroke="#000000" d="M2286.1073,-808.5234C2364.3084,-804.5465 2566.2737,-791.411 2731,-756 2735.4445,-755.0446 2740.0365,-753.8772 2744.5905,-752.6004"/>
<polygon fill="#000000" stroke="#000000" points="2745.8422,-755.8796 2754.4269,-749.6703 2743.8438,-749.1709 2745.8422,-755.8796"/>
</g>
<!-- N3&#45;&gt;N1 -->
<g id="edge16" class="edge">
<title>N3&#45;&gt;N1</title>
<path fill="none" stroke="#000000" d="M3489,-791.8314C3489,-784.131 3489,-774.9743 3489,-766.4166"/>
<polygon fill="#000000" stroke="#000000" points="3492.5001,-766.4132 3489,-756.4133 3485.5001,-766.4133 3492.5001,-766.4132"/>
</g>
<!-- N3&#45;&gt;N5 -->
<g id="edge17" class="edge">
<title>N3&#45;&gt;N5</title>
<path fill="none" stroke="#000000" d="M3518.3483,-796.6261C3543.495,-785.1669 3579.929,-768.564 3607.6101,-755.9498"/>
<polygon fill="#000000" stroke="#000000" points="3609.355,-759.001 3617.0034,-751.6694 3606.4523,-752.6312 3609.355,-759.001"/>
</g>
<!-- N6 -->
<g id="node7" class="node">
<title>N6</title>
<ellipse fill="none" stroke="#000000" cx="1879" cy="-306" rx="57.3905" ry="18"/>
<text text-anchor="middle" x="1879" y="-302.3" font-family="Times,serif" font-size="14.00" fill="#000000">aho&#45;corasick</text>
</g>
<!-- N7 -->
<g id="node8" class="node">
<title>N7</title>
<ellipse fill="none" stroke="#000000" cx="1798" cy="-234" rx="40.0939" ry="18"/>
<text text-anchor="middle" x="1798" y="-230.3" font-family="Times,serif" font-size="14.00" fill="#000000">memchr</text>
</g>
<!-- N6&#45;&gt;N7 -->
<g id="edge18" class="edge">
<title>N6&#45;&gt;N7</title>
<path fill="none" stroke="#000000" d="M1859.8041,-288.937C1849.085,-279.4089 1835.5825,-267.4067 1823.9345,-257.0529"/>
<polygon fill="#000000" stroke="#000000" points="1826.0231,-254.2266 1816.2237,-250.1989 1821.3726,-259.4585 1826.0231,-254.2266"/>
</g>
<!-- N56 -->
<g id="node57" class="node">
<title>N56</title>
<ellipse fill="none" stroke="#000000" cx="2890" cy="-18" rx="27" ry="18"/>
<text text-anchor="middle" x="2890" y="-14.3" font-family="Times,serif" font-size="14.00" fill="#000000">libc</text>
</g>
<!-- N7&#45;&gt;N56 -->
<g id="edge19" class="edge">
<title>N7&#45;&gt;N56</title>
<path fill="none" stroke="#000000" d="M1834.9585,-226.6895C2002.2903,-193.5909 2687.9247,-57.9709 2853.7613,-25.1681"/>
<polygon fill="#000000" stroke="#000000" points="2854.7912,-28.5323 2863.9219,-23.1583 2853.4328,-21.6653 2854.7912,-28.5323"/>
</g>
<!-- N8 -->
<g id="node9" class="node">
<title>N8</title>
<ellipse fill="none" stroke="#000000" cx="1337" cy="-450" rx="27.8951" ry="18"/>
<text text-anchor="middle" x="1337" y="-446.3" font-family="Times,serif" font-size="14.00" fill="#000000">aster</text>
</g>
<!-- N9 -->
<g id="node10" class="node">
<title>N9</title>
<ellipse fill="none" stroke="#000000" cx="1309" cy="-378" rx="63.0888" ry="18"/>
<text text-anchor="middle" x="1309" y="-374.3" font-family="Times,serif" font-size="14.00" fill="#000000">syntex_syntax</text>
</g>
<!-- N8&#45;&gt;N9 -->
<g id="edge20" class="edge">
<title>N8&#45;&gt;N9</title>
<path fill="none" stroke="#000000" d="M1330.0786,-432.2022C1326.9389,-424.1287 1323.1546,-414.3976 1319.6641,-405.422"/>
<polygon fill="#000000" stroke="#000000" points="1322.9228,-404.1446 1316.0362,-396.0931 1316.3987,-406.6818 1322.9228,-404.1446"/>
</g>
<!-- N10 -->
<g id="node11" class="node">
<title>N10</title>
<ellipse fill="none" stroke="#000000" cx="1248" cy="-306" rx="62.2891" ry="18"/>
<text text-anchor="middle" x="1248" y="-302.3" font-family="Times,serif" font-size="14.00" fill="#000000">bitflags v0.5.0</text>
</g>
<!-- N9&#45;&gt;N10 -->
<g id="edge21" class="edge">
<title>N9&#45;&gt;N10</title>
<path fill="none" stroke="#000000" d="M1293.9213,-360.2022C1286.5344,-351.4832 1277.5097,-340.8311 1269.422,-331.2849"/>
<polygon fill="#000000" stroke="#000000" points="1272.0399,-328.9604 1262.9052,-323.593 1266.699,-333.4854 1272.0399,-328.9604"/>
</g>
<!-- N9&#45;&gt;N14 -->
<g id="edge22" class="edge">
<title>N9&#45;&gt;N14</title>
<path fill="none" stroke="#000000" d="M1341.0211,-362.2879C1357.3774,-352.9796 1376.5997,-339.8929 1390,-324 1423.8594,-283.8422 1415.2334,-263.337 1438,-216 1442.3025,-207.0541 1447.2205,-197.3972 1451.7219,-188.7576"/>
<polygon fill="#000000" stroke="#000000" points="1454.8419,-190.3443 1456.394,-179.8638 1448.6449,-187.0889 1454.8419,-190.3443"/>
</g>
<!-- N9&#45;&gt;N27 -->
<g id="edge23" class="edge">
<title>N9&#45;&gt;N27</title>
<path fill="none" stroke="#000000" d="M1348.9655,-363.9559C1379.8476,-353.0888 1423.6511,-337.6426 1462,-324 1539.9768,-296.2597 1631.4585,-263.3704 1679.5512,-246.0535"/>
<polygon fill="#000000" stroke="#000000" points="1680.9121,-249.2835 1689.1346,-242.6021 1678.5402,-242.6976 1680.9121,-249.2835"/>
</g>
<!-- N9&#45;&gt;N56 -->
<g id="edge24" class="edge">
<title>N9&#45;&gt;N56</title>
<path fill="none" stroke="#000000" d="M1323.538,-360.15C1343.2432,-334.0937 1376,-283.3567 1376,-234 1376,-234 1376,-234 1376,-162 1376,-150.3678 1384.3846,-148.7562 1395,-144 1531.9653,-82.6329 2634.1364,-29.6324 2852.4866,-19.6768"/>
<polygon fill="#000000" stroke="#000000" points="2852.9495,-23.1594 2862.7805,-19.2095 2852.632,-16.1666 2852.9495,-23.1594"/>
</g>
<!-- N71 -->
<g id="node72" class="node">
<title>N71</title>
<ellipse fill="none" stroke="#000000" cx="1032" cy="-306" rx="60.3893" ry="18"/>
<text text-anchor="middle" x="1032" y="-302.3" font-family="Times,serif" font-size="14.00" fill="#000000">syntex_errors</text>
</g>
<!-- N9&#45;&gt;N71 -->
<g id="edge25" class="edge">
<title>N9&#45;&gt;N71</title>
<path fill="none" stroke="#000000" d="M1262.324,-365.8676C1214.1892,-353.356 1139.1231,-333.8443 1087.8637,-320.5205"/>
<polygon fill="#000000" stroke="#000000" points="1088.5032,-317.0705 1077.9443,-317.9422 1086.7422,-323.8454 1088.5032,-317.0705"/>
</g>
<!-- N79 -->
<g id="node80" class="node">
<title>N79</title>
<ellipse fill="none" stroke="#000000" cx="1120" cy="-234" rx="51.9908" ry="18"/>
<text text-anchor="middle" x="1120" y="-230.3" font-family="Times,serif" font-size="14.00" fill="#000000">syntex_pos</text>
</g>
<!-- N9&#45;&gt;N79 -->
<g id="edge26" class="edge">
<title>N9&#45;&gt;N79</title>
<path fill="none" stroke="#000000" d="M1260.906,-366.1644C1234.038,-357.7454 1201.2008,-344.2715 1177,-324 1156.652,-306.9557 1141.2045,-280.7365 1131.5579,-260.986"/>
<polygon fill="#000000" stroke="#000000" points="1134.7034,-259.45 1127.2923,-251.8786 1128.3642,-262.419 1134.7034,-259.45"/>
</g>
<!-- N80 -->
<g id="node81" class="node">
<title>N80</title>
<ellipse fill="none" stroke="#000000" cx="1507" cy="-234" rx="27.0966" ry="18"/>
<text text-anchor="middle" x="1507" y="-230.3" font-family="Times,serif" font-size="14.00" fill="#000000">term</text>
</g>
<!-- N9&#45;&gt;N80 -->
<g id="edge27" class="edge">
<title>N9&#45;&gt;N80</title>
<path fill="none" stroke="#000000" d="M1350.1686,-364.296C1374.2279,-355.1162 1404.4027,-341.5031 1428,-324 1452.7281,-305.6582 1475.2824,-278.4209 1489.9035,-258.717"/>
<polygon fill="#000000" stroke="#000000" points="1492.8131,-260.6666 1495.8546,-250.5177 1487.148,-256.5548 1492.8131,-260.6666"/>
</g>
<!-- N81 -->
<g id="node82" class="node">
<title>N81</title>
<ellipse fill="none" stroke="#000000" cx="1269" cy="-234" rx="53.8905" ry="18"/>
<text text-anchor="middle" x="1269" y="-230.3" font-family="Times,serif" font-size="14.00" fill="#000000">unicode&#45;xid</text>
</g>
<!-- N9&#45;&gt;N81 -->
<g id="edge28" class="edge">
<title>N9&#45;&gt;N81</title>
<path fill="none" stroke="#000000" d="M1315.8132,-360.0993C1321.8195,-341.4546 1328.2922,-311.7126 1319,-288 1314.5292,-276.5911 1306.3907,-266.1516 1297.9601,-257.5564"/>
<polygon fill="#000000" stroke="#000000" points="1300.2131,-254.8686 1290.561,-250.4998 1295.382,-259.9342 1300.2131,-254.8686"/>
</g>
<!-- N11 -->
<g id="node12" class="node">
<title>N11</title>
<ellipse fill="none" stroke="#000000" cx="3229" cy="-450" rx="62.2891" ry="18"/>
<text text-anchor="middle" x="3229" y="-446.3" font-family="Times,serif" font-size="14.00" fill="#000000">bitflags v0.7.0</text>
</g>
<!-- N12 -->
<g id="node13" class="node">
<title>N12</title>
<ellipse fill="none" stroke="#000000" cx="2742" cy="-594" rx="35.194" ry="18"/>
<text text-anchor="middle" x="2742" y="-590.3" font-family="Times,serif" font-size="14.00" fill="#000000">cookie</text>
</g>
<!-- N13 -->
<g id="node14" class="node">
<title>N13</title>
<ellipse fill="none" stroke="#000000" cx="3074" cy="-522" rx="38.1938" ry="18"/>
<text text-anchor="middle" x="3074" y="-518.3" font-family="Times,serif" font-size="14.00" fill="#000000">openssl</text>
</g>
<!-- N12&#45;&gt;N13 -->
<g id="edge29" class="edge">
<title>N12&#45;&gt;N13</title>
<path fill="none" stroke="#000000" d="M2769.7279,-582.9199C2776.6078,-580.4197 2784.013,-577.9359 2791,-576 2872.6803,-553.3683 2970.2234,-537.0378 3026.8413,-528.5825"/>
<polygon fill="#000000" stroke="#000000" points="3027.5414,-532.0172 3036.9238,-527.0957 3026.5201,-525.0921 3027.5414,-532.0172"/>
</g>
<!-- N12&#45;&gt;N14 -->
<g id="edge30" class="edge">
<title>N12&#45;&gt;N14</title>
<path fill="none" stroke="#000000" d="M2716.3423,-581.5388C2665.8615,-555.3884 2554.8317,-489.3891 2512,-396 2505.3299,-381.4566 2509.839,-375.8534 2512,-360 2514.2428,-343.5463 2519.7572,-340.4537 2522,-324 2528.4829,-276.4398 2555.0631,-250.797 2522,-216 2488.1062,-180.3287 1770.0527,-166.5281 1537.7871,-162.9872"/>
<polygon fill="#000000" stroke="#000000" points="1537.8059,-159.4872 1527.7543,-162.836 1537.7004,-166.4864 1537.8059,-159.4872"/>
</g>
<!-- N15 -->
<g id="node16" class="node">
<title>N15</title>
<ellipse fill="none" stroke="#000000" cx="2838" cy="-522" rx="27" ry="18"/>
<text text-anchor="middle" x="2838" y="-518.3" font-family="Times,serif" font-size="14.00" fill="#000000">time</text>
</g>
<!-- N12&#45;&gt;N15 -->
<g id="edge31" class="edge">
<title>N12&#45;&gt;N15</title>
<path fill="none" stroke="#000000" d="M2761.8913,-579.0816C2776.2562,-568.3078 2795.8072,-553.6446 2811.4964,-541.8777"/>
<polygon fill="#000000" stroke="#000000" points="2813.8578,-544.4817 2819.7578,-535.6816 2809.6578,-538.8816 2813.8578,-544.4817"/>
</g>
<!-- N12&#45;&gt;N16 -->
<g id="edge32" class="edge">
<title>N12&#45;&gt;N16</title>
<path fill="none" stroke="#000000" d="M2742,-575.8314C2742,-568.131 2742,-558.9743 2742,-550.4166"/>
<polygon fill="#000000" stroke="#000000" points="2745.5001,-550.4132 2742,-540.4133 2738.5001,-550.4133 2745.5001,-550.4132"/>
</g>
<!-- N13&#45;&gt;N11 -->
<g id="edge33" class="edge">
<title>N13&#45;&gt;N11</title>
<path fill="none" stroke="#000000" d="M3101.3541,-509.2936C3124.9879,-498.3153 3159.5251,-482.2722 3186.7164,-469.6414"/>
<polygon fill="#000000" stroke="#000000" points="3188.4033,-472.7171 3195.9981,-465.3299 3185.4543,-466.3686 3188.4033,-472.7171"/>
</g>
<!-- N34 -->
<g id="node35" class="node">
<title>N34</title>
<ellipse fill="none" stroke="#000000" cx="3046" cy="-378" rx="27" ry="18"/>
<text text-anchor="middle" x="3046" y="-374.3" font-family="Times,serif" font-size="14.00" fill="#000000">gcc</text>
</g>
<!-- N13&#45;&gt;N34 -->
<g id="edge34" class="edge">
<title>N13&#45;&gt;N34</title>
<path fill="none" stroke="#000000" d="M3037.1661,-516.6165C3008.5556,-510.2891 2970.7019,-496.7298 2952,-468 2943.2712,-454.5908 2943.985,-445.8477 2952,-432 2958.9914,-419.9207 2989.4322,-403.713 3013.8052,-392.2147"/>
<polygon fill="#000000" stroke="#000000" points="3015.5148,-395.2802 3023.1215,-387.9053 3012.576,-388.927 3015.5148,-395.2802"/>
</g>
<!-- N55 -->
<g id="node56" class="node">
<title>N55</title>
<ellipse fill="none" stroke="#000000" cx="3036" cy="-450" rx="74.9875" ry="18"/>
<text text-anchor="middle" x="3036" y="-446.3" font-family="Times,serif" font-size="14.00" fill="#000000">lazy_static v0.2.1</text>
</g>
<!-- N13&#45;&gt;N55 -->
<g id="edge35" class="edge">
<title>N13&#45;&gt;N55</title>
<path fill="none" stroke="#000000" d="M3064.6067,-504.2022C3060.3004,-496.0428 3055.1005,-486.1904 3050.3217,-477.1358"/>
<polygon fill="#000000" stroke="#000000" points="3053.3121,-475.3033 3045.5491,-468.0931 3047.1214,-478.5707 3053.3121,-475.3033"/>
</g>
<!-- N13&#45;&gt;N56 -->
<g id="edge36" class="edge">
<title>N13&#45;&gt;N56</title>
<path fill="none" stroke="#000000" d="M3112.0722,-519.3277C3206.6836,-512.3429 3446.7539,-492.3838 3473,-468 3502.9508,-440.1745 3492,-418.8816 3492,-378 3492,-378 3492,-378 3492,-162 3492,-45.3252 3058.87,-22.9774 2927.3931,-18.8814"/>
<polygon fill="#000000" stroke="#000000" points="2927.1346,-15.3724 2917.0362,-18.5776 2926.9292,-22.3694 2927.1346,-15.3724"/>
</g>
<!-- N62 -->
<g id="node63" class="node">
<title>N62</title>
<ellipse fill="none" stroke="#000000" cx="3144" cy="-378" rx="52.7911" ry="18"/>
<text text-anchor="middle" x="3144" y="-374.3" font-family="Times,serif" font-size="14.00" fill="#000000">openssl&#45;sys</text>
</g>
<!-- N13&#45;&gt;N62 -->
<g id="edge37" class="edge">
<title>N13&#45;&gt;N62</title>
<path fill="none" stroke="#000000" d="M3091.5082,-505.4698C3101.1776,-495.4598 3112.6776,-481.9598 3120,-468 3130.1724,-448.6069 3136.2986,-424.5465 3139.8128,-406.1835"/>
<polygon fill="#000000" stroke="#000000" points="3143.2995,-406.5645 3141.5909,-396.1084 3136.4061,-405.3479 3143.2995,-406.5645"/>
</g>
<!-- N63 -->
<g id="node64" class="node">
<title>N63</title>
<ellipse fill="none" stroke="#000000" cx="3387" cy="-450" rx="77.1866" ry="18"/>
<text text-anchor="middle" x="3387" y="-446.3" font-family="Times,serif" font-size="14.00" fill="#000000">openssl&#45;sys&#45;extras</text>
</g>
<!-- N13&#45;&gt;N63 -->
<g id="edge38" class="edge">
<title>N13&#45;&gt;N63</title>
<path fill="none" stroke="#000000" d="M3108.6924,-514.0196C3159.9854,-502.2206 3256.9642,-479.9124 3321.7979,-464.9986"/>
<polygon fill="#000000" stroke="#000000" points="3322.9545,-468.324 3331.9153,-462.6712 3321.3852,-461.5022 3322.9545,-468.324"/>
</g>
<!-- N36 -->
<g id="node37" class="node">
<title>N36</title>
<ellipse fill="none" stroke="#000000" cx="2995" cy="-90" rx="35.9954" ry="18"/>
<text text-anchor="middle" x="2995" y="-86.3" font-family="Times,serif" font-size="14.00" fill="#000000">winapi</text>
</g>
<!-- N15&#45;&gt;N36 -->
<g id="edge39" class="edge">
<title>N15&#45;&gt;N36</title>
<path fill="none" stroke="#000000" d="M2855.0926,-507.8006C2886.8878,-480.9904 2953.0775,-423.175 2966,-396 3010.58,-302.252 3004.1538,-174.2865 2998.4977,-118.2393"/>
<polygon fill="#000000" stroke="#000000" points="3001.9475,-117.5857 2997.392,-108.0202 2994.9881,-118.3387 3001.9475,-117.5857"/>
</g>
<!-- N54 -->
<g id="node55" class="node">
<title>N54</title>
<ellipse fill="none" stroke="#000000" cx="2737" cy="-162" rx="57.3905" ry="18"/>
<text text-anchor="middle" x="2737" y="-158.3" font-family="Times,serif" font-size="14.00" fill="#000000">kernel32&#45;sys</text>
</g>
<!-- N15&#45;&gt;N54 -->
<g id="edge40" class="edge">
<title>N15&#45;&gt;N54</title>
<path fill="none" stroke="#000000" d="M2835.6187,-503.988C2833.9011,-485.2526 2833.3365,-455.4375 2843,-432 2851.16,-412.2089 2867.3923,-416.0098 2875,-396 2880.6861,-381.0445 2884.3554,-372.9799 2875,-360 2845.4157,-318.954 2800.2131,-362.1692 2767,-324 2734.4999,-286.6501 2732.2342,-225.7459 2734.1754,-190.2152"/>
<polygon fill="#000000" stroke="#000000" points="2737.6795,-190.2765 2734.8841,-180.0572 2730.6965,-189.7893 2737.6795,-190.2765"/>
</g>
<!-- N15&#45;&gt;N56 -->
<g id="edge41" class="edge">
<title>N15&#45;&gt;N56</title>
<path fill="none" stroke="#000000" d="M2849.1305,-505.4756C2870.4963,-472.6423 2916.593,-396.1236 2933,-324 2956.1412,-222.2734 2919.3116,-98.5209 2900.2696,-44.9068"/>
<polygon fill="#000000" stroke="#000000" points="2903.5345,-43.6433 2896.8304,-35.4393 2896.9552,-46.0334 2903.5345,-43.6433"/>
</g>
<!-- N50 -->
<g id="node51" class="node">
<title>N50</title>
<ellipse fill="none" stroke="#000000" cx="2675" cy="-450" rx="27" ry="18"/>
<text text-anchor="middle" x="2675" y="-446.3" font-family="Times,serif" font-size="14.00" fill="#000000">idna</text>
</g>
<!-- N16&#45;&gt;N50 -->
<g id="edge42" class="edge">
<title>N16&#45;&gt;N50</title>
<path fill="none" stroke="#000000" d="M2727.462,-506.3771C2718.4188,-496.659 2706.6268,-483.987 2696.5136,-473.1191"/>
<polygon fill="#000000" stroke="#000000" points="2698.8842,-470.5288 2689.5096,-465.5924 2693.7597,-475.2975 2698.8842,-470.5288"/>
</g>
<!-- N51 -->
<g id="node52" class="node">
<title>N51</title>
<ellipse fill="none" stroke="#000000" cx="2680" cy="-306" rx="40.0939" ry="18"/>
<text text-anchor="middle" x="2680" y="-302.3" font-family="Times,serif" font-size="14.00" fill="#000000">matches</text>
</g>
<!-- N16&#45;&gt;N51 -->
<g id="edge43" class="edge">
<title>N16&#45;&gt;N51</title>
<path fill="none" stroke="#000000" d="M2751.3614,-505.0753C2762.4896,-485.9192 2782.4193,-454.464 2805,-432 2824.9276,-412.1754 2843.9544,-420.8985 2857,-396 2864.4257,-381.8275 2866.594,-372.8045 2857,-360 2822.8453,-314.416 2788.3612,-341.0091 2734,-324 2730.0212,-322.7551 2725.8873,-321.4316 2721.7574,-320.0894"/>
<polygon fill="#000000" stroke="#000000" points="2722.7962,-316.7466 2712.2033,-316.9513 2720.6118,-323.3971 2722.7962,-316.7466"/>
</g>
<!-- N17 -->
<g id="node18" class="node">
<title>N17</title>
<ellipse fill="none" stroke="#000000" cx="749" cy="-666" rx="44.393" ry="18"/>
<text text-anchor="middle" x="749" y="-662.3" font-family="Times,serif" font-size="14.00" fill="#000000">encoding</text>
</g>
<!-- N18 -->
<g id="node19" class="node">
<title>N18</title>
<ellipse fill="none" stroke="#000000" cx="1099" cy="-594" rx="101.2821" ry="18"/>
<text text-anchor="middle" x="1099" y="-590.3" font-family="Times,serif" font-size="14.00" fill="#000000">encoding&#45;index&#45;japanese</text>
</g>
<!-- N17&#45;&gt;N18 -->
<g id="edge44" class="edge">
<title>N17&#45;&gt;N18</title>
<path fill="none" stroke="#000000" d="M788.4691,-657.8806C845.0714,-646.2367 950.4142,-624.5662 1022.5735,-609.722"/>
<polygon fill="#000000" stroke="#000000" points="1023.4371,-613.1177 1032.5268,-607.6745 1022.0266,-606.2613 1023.4371,-613.1177"/>
</g>
<!-- N19 -->
<g id="node20" class="node">
<title>N19</title>
<ellipse fill="none" stroke="#000000" cx="161" cy="-594" rx="94.7833" ry="18"/>
<text text-anchor="middle" x="161" y="-590.3" font-family="Times,serif" font-size="14.00" fill="#000000">encoding&#45;index&#45;korean</text>
</g>
<!-- N17&#45;&gt;N19 -->
<g id="edge45" class="edge">
<title>N17&#45;&gt;N19</title>
<path fill="none" stroke="#000000" d="M705.8319,-662.0647C621.1095,-654.1465 427.1826,-635.061 265,-612 256.7853,-610.8319 248.2228,-609.5139 239.6926,-608.1356"/>
<polygon fill="#000000" stroke="#000000" points="240.1519,-604.6642 229.7165,-606.4951 239.0161,-611.5714 240.1519,-604.6642"/>
</g>
<!-- N20 -->
<g id="node21" class="node">
<title>N20</title>
<ellipse fill="none" stroke="#000000" cx="389" cy="-594" rx="115.0796" ry="18"/>
<text text-anchor="middle" x="389" y="-590.3" font-family="Times,serif" font-size="14.00" fill="#000000">encoding&#45;index&#45;simpchinese</text>
</g>
<!-- N17&#45;&gt;N20 -->
<g id="edge46" class="edge">
<title>N17&#45;&gt;N20</title>
<path fill="none" stroke="#000000" d="M709.0982,-658.0196C651.6323,-646.5265 544.3093,-625.0619 469.8647,-610.1729"/>
<polygon fill="#000000" stroke="#000000" points="470.5361,-606.738 460.0438,-608.2088 469.1632,-613.602 470.5361,-606.738"/>
</g>
<!-- N21 -->
<g id="node22" class="node">
<title>N21</title>
<ellipse fill="none" stroke="#000000" cx="630" cy="-594" rx="107.781" ry="18"/>
<text text-anchor="middle" x="630" y="-590.3" font-family="Times,serif" font-size="14.00" fill="#000000">encoding&#45;index&#45;singlebyte</text>
</g>
<!-- N17&#45;&gt;N21 -->
<g id="edge47" class="edge">
<title>N17&#45;&gt;N21</title>
<path fill="none" stroke="#000000" d="M724.0537,-650.9064C707.7714,-641.055 686.206,-628.007 667.833,-616.8906"/>
<polygon fill="#000000" stroke="#000000" points="669.4748,-613.7932 659.1071,-611.611 665.8511,-619.7823 669.4748,-613.7932"/>
</g>
<!-- N22 -->
<g id="node23" class="node">
<title>N22</title>
<ellipse fill="none" stroke="#000000" cx="868" cy="-594" rx="111.5806" ry="18"/>
<text text-anchor="middle" x="868" y="-590.3" font-family="Times,serif" font-size="14.00" fill="#000000">encoding&#45;index&#45;tradchinese</text>
</g>
<!-- N17&#45;&gt;N22 -->
<g id="edge48" class="edge">
<title>N17&#45;&gt;N22</title>
<path fill="none" stroke="#000000" d="M773.9463,-650.9064C790.2286,-641.055 811.794,-628.007 830.167,-616.8906"/>
<polygon fill="#000000" stroke="#000000" points="832.1489,-619.7823 838.8929,-611.611 828.5252,-613.7932 832.1489,-619.7823"/>
</g>
<!-- N23 -->
<g id="node24" class="node">
<title>N23</title>
<ellipse fill="none" stroke="#000000" cx="630" cy="-522" rx="89.8845" ry="18"/>
<text text-anchor="middle" x="630" y="-518.3" font-family="Times,serif" font-size="14.00" fill="#000000">encoding_index_tests</text>
</g>
<!-- N18&#45;&gt;N23 -->
<g id="edge49" class="edge">
<title>N18&#45;&gt;N23</title>
<path fill="none" stroke="#000000" d="M1024.7623,-581.7181C1012.8085,-579.7791 1000.5658,-577.8161 989,-576 894.2979,-561.1298 785.4039,-544.868 712.6101,-534.117"/>
<polygon fill="#000000" stroke="#000000" points="712.9873,-530.6348 702.5834,-532.6373 711.9652,-537.5598 712.9873,-530.6348"/>
</g>
<!-- N19&#45;&gt;N23 -->
<g id="edge50" class="edge">
<title>N19&#45;&gt;N23</title>
<path fill="none" stroke="#000000" d="M230.6087,-581.7097C242.0903,-579.7523 253.8731,-577.7857 265,-576 361.3495,-560.5372 472.2764,-544.3558 546.315,-533.7864"/>
<polygon fill="#000000" stroke="#000000" points="547.106,-537.2091 556.512,-532.3329 546.1181,-530.2791 547.106,-537.2091"/>
</g>
<!-- N20&#45;&gt;N23 -->
<g id="edge51" class="edge">
<title>N20&#45;&gt;N23</title>
<path fill="none" stroke="#000000" d="M442.4857,-578.0209C480.3261,-566.7159 531.0943,-551.5486 570.2619,-539.8471"/>
<polygon fill="#000000" stroke="#000000" points="571.3753,-543.1674 579.9549,-536.9512 569.3715,-536.4603 571.3753,-543.1674"/>
</g>
<!-- N21&#45;&gt;N23 -->
<g id="edge52" class="edge">
<title>N21&#45;&gt;N23</title>
<path fill="none" stroke="#000000" d="M630,-575.8314C630,-568.131 630,-558.9743 630,-550.4166"/>
<polygon fill="#000000" stroke="#000000" points="633.5001,-550.4132 630,-540.4133 626.5001,-550.4133 633.5001,-550.4132"/>
</g>
<!-- N22&#45;&gt;N23 -->
<g id="edge53" class="edge">
<title>N22&#45;&gt;N23</title>
<path fill="none" stroke="#000000" d="M815.4753,-578.1102C778.2472,-566.8479 728.2391,-551.7194 689.5306,-540.0093"/>
<polygon fill="#000000" stroke="#000000" points="690.5326,-536.6558 679.9475,-537.1102 688.5057,-543.3559 690.5326,-536.6558"/>
</g>
<!-- N24&#45;&gt;N17 -->
<g id="edge54" class="edge">
<title>N24&#45;&gt;N17</title>
<path fill="none" stroke="#000000" d="M1561.3079,-734.4049C1418.9058,-722.4131 960.3119,-683.7947 802.7489,-670.5262"/>
<polygon fill="#000000" stroke="#000000" points="802.6306,-667.004 792.3721,-669.6524 802.0431,-673.9793 802.6306,-667.004"/>
</g>
<!-- N25 -->
<g id="node26" class="node">
<title>N25</title>
<ellipse fill="none" stroke="#000000" cx="2283" cy="-594" rx="39.7935" ry="18"/>
<text text-anchor="middle" x="2283" y="-590.3" font-family="Times,serif" font-size="14.00" fill="#000000">httparse</text>
</g>
<!-- N24&#45;&gt;N25 -->
<g id="edge55" class="edge">
<title>N24&#45;&gt;N25</title>
<path fill="none" stroke="#000000" d="M1643.5464,-730.3825C1696.3677,-720.1479 1792.8368,-701.2462 1875,-684 2006.702,-656.3555 2161.7936,-621.5116 2237.2047,-604.4219"/>
<polygon fill="#000000" stroke="#000000" points="2238.3278,-607.7561 2247.3059,-602.1309 2236.7794,-600.9295 2238.3278,-607.7561"/>
</g>
<!-- N24&#45;&gt;N26 -->
<g id="edge56" class="edge">
<title>N24&#45;&gt;N26</title>
<path fill="none" stroke="#000000" d="M1647.1594,-735.0206C1817.0973,-723.2895 2438.8828,-680.3667 2605.622,-668.8564"/>
<polygon fill="#000000" stroke="#000000" points="2606.2019,-672.3248 2615.9371,-668.1443 2605.7198,-665.3414 2606.2019,-672.3248"/>
</g>
<!-- N24&#45;&gt;N27 -->
<g id="edge57" class="edge">
<title>N24&#45;&gt;N27</title>
<path fill="none" stroke="#000000" d="M1620.1176,-720.9149C1642.4268,-695.4031 1680,-644.8828 1680,-594 1680,-594 1680,-594 1680,-378 1680,-336.6545 1693.0852,-290.2804 1702.7761,-261.6051"/>
<polygon fill="#000000" stroke="#000000" points="1706.1782,-262.4782 1706.1624,-251.8833 1699.5677,-260.1756 1706.1782,-262.4782"/>
</g>
<!-- N24&#45;&gt;N28 -->
<g id="edge58" class="edge">
<title>N24&#45;&gt;N28</title>
<path fill="none" stroke="#000000" d="M1640.1435,-727.8742C1733.8461,-701.6229 1983.9701,-631.5492 2079.857,-604.686"/>
<polygon fill="#000000" stroke="#000000" points="2081.0241,-607.9938 2089.7092,-601.9258 2079.1357,-601.2534 2081.0241,-607.9938"/>
</g>
<!-- N29 -->
<g id="node30" class="node">
<title>N29</title>
<ellipse fill="none" stroke="#000000" cx="1470" cy="-522" rx="29.795" ry="18"/>
<text text-anchor="middle" x="1470" y="-518.3" font-family="Times,serif" font-size="14.00" fill="#000000">serde</text>
</g>
<!-- N24&#45;&gt;N29 -->
<g id="edge59" class="edge">
<title>N24&#45;&gt;N29</title>
<path fill="none" stroke="#000000" d="M1562.1884,-732.8337C1531.9291,-726.6822 1492.977,-713.2529 1473,-684 1445.6845,-644.0011 1453.757,-584.5204 1461.9706,-549.8606"/>
<polygon fill="#000000" stroke="#000000" points="1465.4183,-550.5037 1464.4852,-539.9501 1458.6333,-548.7821 1465.4183,-550.5037"/>
</g>
<!-- N30 -->
<g id="node31" class="node">
<title>N30</title>
<ellipse fill="none" stroke="#000000" cx="1321" cy="-594" rx="64.9885" ry="18"/>
<text text-anchor="middle" x="1321" y="-590.3" font-family="Times,serif" font-size="14.00" fill="#000000">serde_codegen</text>
</g>
<!-- N24&#45;&gt;N30 -->
<g id="edge60" class="edge">
<title>N24&#45;&gt;N30</title>
<path fill="none" stroke="#000000" d="M1565.6043,-729.478C1530.9719,-720.8835 1479.2866,-705.7626 1438,-684 1403.9308,-666.0418 1369.5418,-638.1528 1346.949,-618.1811"/>
<polygon fill="#000000" stroke="#000000" points="1349.252,-615.545 1339.4695,-611.4763 1344.5795,-620.7574 1349.252,-615.545"/>
</g>
<!-- N31 -->
<g id="node32" class="node">
<title>N31</title>
<ellipse fill="none" stroke="#000000" cx="1156" cy="-450" rx="34.394" ry="18"/>
<text text-anchor="middle" x="1156" y="-446.3" font-family="Times,serif" font-size="14.00" fill="#000000">syntex</text>
</g>
<!-- N24&#45;&gt;N31 -->
<g id="edge61" class="edge">
<title>N24&#45;&gt;N31</title>
<path fill="none" stroke="#000000" d="M1563.3979,-731.4906C1517.7778,-723.4314 1441.9979,-707.7881 1380,-684 1317.2439,-659.921 1301.4207,-651.4526 1247,-612 1228.1645,-598.3451 1227.25,-590.4281 1209,-576 1186.0818,-557.8813 1167.894,-565.7 1154,-540 1143.8251,-521.1793 1145.104,-496.7515 1148.4966,-478.0951"/>
<polygon fill="#000000" stroke="#000000" points="1151.9591,-478.6382 1150.6033,-468.1305 1145.1104,-477.1903 1151.9591,-478.6382"/>
</g>
<!-- N32 -->
<g id="node33" class="node">
<title>N32</title>
<ellipse fill="none" stroke="#000000" cx="2851" cy="-162" rx="38.9931" ry="18"/>
<text text-anchor="middle" x="2851" y="-158.3" font-family="Times,serif" font-size="14.00" fill="#000000">tempdir</text>
</g>
<!-- N24&#45;&gt;N32 -->
<g id="edge62" class="edge">
<title>N24&#45;&gt;N32</title>
<path fill="none" stroke="#000000" d="M1604,-719.8146C1604,-692.4983 1604,-639.25 1604,-594 1604,-594 1604,-594 1604,-378 1604,-299.0276 1611.3652,-259.9172 1677,-216 1781.0343,-146.3892 2680.2062,-204.2996 2803,-180 2806.2304,-179.3607 2809.5296,-178.5303 2812.8104,-177.5772"/>
<polygon fill="#000000" stroke="#000000" points="2814.085,-180.8431 2822.5099,-174.4188 2811.9176,-174.1871 2814.085,-180.8431"/>
</g>
<!-- N33 -->
<g id="node34" class="node">
<title>N33</title>
<ellipse fill="none" stroke="#000000" cx="1528" cy="-666" rx="46.2923" ry="18"/>
<text text-anchor="middle" x="1528" y="-662.3" font-family="Times,serif" font-size="14.00" fill="#000000">textnonce</text>
</g>
<!-- N24&#45;&gt;N33 -->
<g id="edge63" class="edge">
<title>N24&#45;&gt;N33</title>
<path fill="none" stroke="#000000" d="M1586.373,-721.3008C1576.5637,-712.0077 1564.1828,-700.2784 1553.35,-690.0158"/>
<polygon fill="#000000" stroke="#000000" points="1555.4613,-687.1947 1545.7946,-682.8581 1550.6471,-692.2764 1555.4613,-687.1947"/>
</g>
<!-- N26&#45;&gt;N12 -->
<g id="edge64" class="edge">
<title>N26&#45;&gt;N12</title>
<path fill="none" stroke="#000000" d="M2666.2247,-651.4297C2679.9484,-641.0286 2698.6233,-626.875 2713.9994,-615.2215"/>
<polygon fill="#000000" stroke="#000000" points="2716.2943,-617.8739 2722.15,-609.0442 2712.0662,-612.2951 2716.2943,-617.8739"/>
</g>
<!-- N26&#45;&gt;N13 -->
<g id="edge65" class="edge">
<title>N26&#45;&gt;N13</title>
<path fill="none" stroke="#000000" d="M2675.3981,-658.5011C2704.6005,-650.0043 2750.675,-634.3671 2786,-612 2805.6556,-599.5544 2803.4245,-586.8575 2824,-576 2888.6137,-541.9039 2973.4388,-529.3295 3025.806,-524.6967"/>
<polygon fill="#000000" stroke="#000000" points="3026.1517,-528.1801 3035.8311,-523.872 3025.5778,-521.2037 3026.1517,-528.1801"/>
</g>
<!-- N26&#45;&gt;N14 -->
<g id="edge66" class="edge">
<title>N26&#45;&gt;N14</title>
<path fill="none" stroke="#000000" d="M2615.9821,-663.7597C2577.9969,-659.5141 2513.5928,-647.263 2472,-612 2437.8883,-583.0795 2427,-566.7214 2427,-522 2427,-522 2427,-522 2427,-450 2427,-375.6196 2518.208,-343.7765 2469,-288 2407.2465,-218.0035 1755.422,-177.3272 1536.9294,-165.5805"/>
<polygon fill="#000000" stroke="#000000" points="1537.029,-162.081 1526.8566,-165.043 1536.6559,-169.071 1537.029,-162.081"/>
</g>
<!-- N26&#45;&gt;N15 -->
<g id="edge67" class="edge">
<title>N26&#45;&gt;N15</title>
<path fill="none" stroke="#000000" d="M2677.8113,-662.9995C2753.839,-655.2867 2945.5678,-633.8376 2964,-612 2974.3201,-599.7732 2972.8079,-589.3575 2964,-576 2944.3698,-546.23 2904.5553,-532.8097 2874.9084,-526.7986"/>
<polygon fill="#000000" stroke="#000000" points="2875.3624,-523.3237 2864.8957,-524.9668 2874.1025,-530.2094 2875.3624,-523.3237"/>
</g>
<!-- N26&#45;&gt;N16 -->
<g id="edge68" class="edge">
<title>N26&#45;&gt;N16</title>
<path fill="none" stroke="#000000" d="M2616.4346,-661.3624C2559.0432,-651.3989 2444.3563,-624.8002 2484,-576 2511.4012,-542.2699 2640.1522,-528.8661 2704.7878,-524.194"/>
<polygon fill="#000000" stroke="#000000" points="2705.2223,-527.6724 2714.9579,-523.4929 2704.7408,-520.689 2705.2223,-527.6724"/>
</g>
<!-- N26&#45;&gt;N25 -->
<g id="edge69" class="edge">
<title>N26&#45;&gt;N25</title>
<path fill="none" stroke="#000000" d="M2616.3209,-662.203C2560.2979,-654.9283 2437.9087,-637.4555 2337,-612 2332.6791,-610.91 2328.205,-609.6455 2323.7656,-608.3018"/>
<polygon fill="#000000" stroke="#000000" points="2324.7655,-604.9473 2314.1756,-605.2707 2322.6559,-611.6218 2324.7655,-604.9473"/>
</g>
<!-- N26&#45;&gt;N27 -->
<g id="edge70" class="edge">
<title>N26&#45;&gt;N27</title>
<path fill="none" stroke="#000000" d="M2616.2757,-662.8292C2559.6243,-656.3705 2441.8512,-639.892 2413,-612 2383.2368,-583.2263 2389,-563.3978 2389,-522 2389,-522 2389,-522 2389,-450 2389,-408.6022 2391.8399,-395.5813 2413,-360 2424.8914,-340.0043 2441.8075,-345.3713 2451,-324 2457.3221,-309.302 2462.0202,-299.5998 2451,-288 2397.206,-231.3766 1824.5286,-271.8855 1749,-252 1747.0235,-251.4796 1745.0286,-250.8431 1743.0454,-250.1239"/>
<polygon fill="#000000" stroke="#000000" points="1743.937,-246.6991 1733.3658,-245.9925 1741.1891,-253.1372 1743.937,-246.6991"/>
</g>
<!-- N26&#45;&gt;N28 -->
<g id="edge71" class="edge">
<title>N26&#45;&gt;N28</title>
<path fill="none" stroke="#000000" d="M2616.3971,-662.253C2547.8537,-653.805 2376.8102,-632.4134 2234,-612 2208.9202,-608.4151 2180.8445,-604.0673 2158.5964,-600.543"/>
<polygon fill="#000000" stroke="#000000" points="2158.9253,-597.0514 2148.4996,-598.9367 2157.8255,-603.9644 2158.9253,-597.0514"/>
</g>
<!-- N43 -->
<g id="node44" class="node">
<title>N43</title>
<ellipse fill="none" stroke="#000000" cx="2894" cy="-594" rx="61.1893" ry="18"/>
<text text-anchor="middle" x="2894" y="-590.3" font-family="Times,serif" font-size="14.00" fill="#000000">language&#45;tags</text>
</g>
<!-- N26&#45;&gt;N43 -->
<g id="edge72" class="edge">
<title>N26&#45;&gt;N43</title>
<path fill="none" stroke="#000000" d="M2674.8539,-657.8806C2714.9509,-646.1924 2789.7069,-624.4012 2840.6447,-609.5529"/>
<polygon fill="#000000" stroke="#000000" points="2841.8765,-612.8396 2850.4974,-606.6809 2839.9175,-606.1193 2841.8765,-612.8396"/>
</g>
<!-- N44 -->
<g id="node45" class="node">
<title>N44</title>
<ellipse fill="none" stroke="#000000" cx="3568" cy="-90" rx="48.1917" ry="18"/>
<text text-anchor="middle" x="3568" y="-86.3" font-family="Times,serif" font-size="14.00" fill="#000000">num_cpus</text>
</g>
<!-- N26&#45;&gt;N44 -->
<g id="edge73" class="edge">
<title>N26&#45;&gt;N44</title>
<path fill="none" stroke="#000000" d="M2678.2215,-663.7765C2773.0152,-656.8436 3056.4726,-634.7225 3146,-612 3339.7158,-562.8339 3530,-577.8577 3530,-378 3530,-378 3530,-378 3530,-234 3530,-192.1368 3545.2003,-145.6262 3556.3737,-117.0925"/>
<polygon fill="#000000" stroke="#000000" points="3559.6324,-118.3698 3560.1264,-107.7865 3553.1404,-115.7518 3559.6324,-118.3698"/>
</g>
<!-- N45 -->
<g id="node46" class="node">
<title>N45</title>
<ellipse fill="none" stroke="#000000" cx="3074" cy="-594" rx="63.0888" ry="18"/>
<text text-anchor="middle" x="3074" y="-590.3" font-family="Times,serif" font-size="14.00" fill="#000000">openssl&#45;verify</text>
</g>
<!-- N26&#45;&gt;N45 -->
<g id="edge74" class="edge">
<title>N26&#45;&gt;N45</title>
<path fill="none" stroke="#000000" d="M2677.5664,-662.0858C2738.557,-654.0991 2879.5987,-634.7443 2997,-612 3003.1914,-610.8005 3009.6402,-609.4519 3016.0546,-608.0464"/>
<polygon fill="#000000" stroke="#000000" points="3017.0712,-611.4054 3026.0642,-605.8039 3015.5409,-604.5748 3017.0712,-611.4054"/>
</g>
<!-- N46 -->
<g id="node47" class="node">
<title>N46</title>
<ellipse fill="none" stroke="#000000" cx="2328" cy="-378" rx="33.2948" ry="18"/>
<text text-anchor="middle" x="2328" y="-374.3" font-family="Times,serif" font-size="14.00" fill="#000000">solicit</text>
</g>
<!-- N26&#45;&gt;N46 -->
<g id="edge75" class="edge">
<title>N26&#45;&gt;N46</title>
<path fill="none" stroke="#000000" d="M2615.6661,-664.0546C2551.546,-659.4166 2408.5697,-645.4947 2375,-612 2319.5051,-556.6291 2320.3652,-455.2973 2324.5936,-406.179"/>
<polygon fill="#000000" stroke="#000000" points="2328.1017,-406.2652 2325.5879,-395.973 2321.1347,-405.5865 2328.1017,-406.2652"/>
</g>
<!-- N47 -->
<g id="node48" class="node">
<title>N47</title>
<ellipse fill="none" stroke="#000000" cx="2540" cy="-594" rx="47.3916" ry="18"/>
<text text-anchor="middle" x="2540" y="-590.3" font-family="Times,serif" font-size="14.00" fill="#000000">traitobject</text>
</g>
<!-- N26&#45;&gt;N47 -->
<g id="edge76" class="edge">
<title>N26&#45;&gt;N47</title>
<path fill="none" stroke="#000000" d="M2626.6223,-652.2879C2611.1983,-641.9091 2589.7188,-627.4557 2572.0082,-615.5382"/>
<polygon fill="#000000" stroke="#000000" points="2573.9102,-612.5995 2563.6597,-609.9205 2570.0023,-618.4071 2573.9102,-612.5995"/>
</g>
<!-- N48 -->
<g id="node49" class="node">
<title>N48</title>
<ellipse fill="none" stroke="#000000" cx="2647" cy="-594" rx="41.6928" ry="18"/>
<text text-anchor="middle" x="2647" y="-590.3" font-family="Times,serif" font-size="14.00" fill="#000000">typeable</text>
</g>
<!-- N26&#45;&gt;N48 -->
<g id="edge77" class="edge">
<title>N26&#45;&gt;N48</title>
<path fill="none" stroke="#000000" d="M2647,-647.8314C2647,-640.131 2647,-630.9743 2647,-622.4166"/>
<polygon fill="#000000" stroke="#000000" points="2650.5001,-622.4132 2647,-612.4133 2643.5001,-622.4133 2650.5001,-622.4132"/>
</g>
<!-- N49 -->
<g id="node50" class="node">
<title>N49</title>
<ellipse fill="none" stroke="#000000" cx="3656" cy="-450" rx="37.8943" ry="18"/>
<text text-anchor="middle" x="3656" y="-446.3" font-family="Times,serif" font-size="14.00" fill="#000000">unicase</text>
</g>
<!-- N26&#45;&gt;N49 -->
<g id="edge78" class="edge">
<title>N26&#45;&gt;N49</title>
<path fill="none" stroke="#000000" d="M2678.2554,-665.0534C2817.8985,-660.6705 3381.0317,-641.3069 3454,-612 3477.1288,-602.7106 3477.6754,-591.7415 3497,-576 3542.6227,-538.8364 3596.4168,-496.5154 3628.2855,-471.5969"/>
<polygon fill="#000000" stroke="#000000" points="3630.5566,-474.2641 3636.2822,-465.3497 3626.2471,-468.7479 3630.5566,-474.2641"/>
</g>
<!-- N28&#45;&gt;N27 -->
<g id="edge79" class="edge">
<title>N28&#45;&gt;N27</title>
<path fill="none" stroke="#000000" d="M2126.4805,-576.5995C2146.0397,-533.6725 2188.5443,-421.7359 2133,-360 2082.1826,-303.5179 1860.5728,-358.7356 1793,-324 1764.8551,-309.5322 1742.0231,-280.7061 1728.0617,-259.5608"/>
<polygon fill="#000000" stroke="#000000" points="1730.9551,-257.5883 1722.6317,-251.0329 1725.0505,-261.348 1730.9551,-257.5883"/>
</g>
<!-- N28&#45;&gt;N29 -->
<g id="edge80" class="edge">
<title>N28&#45;&gt;N29</title>
<path fill="none" stroke="#000000" d="M2087.1815,-590.5757C1980.7316,-578.748 1628.553,-539.617 1509.6277,-526.4031"/>
<polygon fill="#000000" stroke="#000000" points="1509.8358,-522.9047 1499.5104,-525.2789 1509.0627,-529.8619 1509.8358,-522.9047"/>
</g>
<!-- N30&#45;&gt;N8 -->
<g id="edge81" class="edge">
<title>N30&#45;&gt;N8</title>
<path fill="none" stroke="#000000" d="M1335.7585,-576.2622C1343.0948,-566.2806 1351.1909,-553.1987 1355,-540 1361.0392,-519.0736 1355.4978,-494.8361 1349.0206,-476.7891"/>
<polygon fill="#000000" stroke="#000000" points="1352.2795,-475.5122 1345.3935,-467.4602 1345.7552,-478.0489 1352.2795,-475.5122"/>
</g>
<!-- N30&#45;&gt;N9 -->
<g id="edge82" class="edge">
<title>N30&#45;&gt;N9</title>
<path fill="none" stroke="#000000" d="M1342.8345,-576.9321C1353.3756,-567.3301 1365.0119,-554.3914 1371,-540 1389.4468,-495.6661 1394.4002,-475.4696 1374,-432 1368.0399,-419.2999 1357.463,-408.5532 1346.5501,-400.0725"/>
<polygon fill="#000000" stroke="#000000" points="1348.3627,-397.0638 1338.2103,-394.0341 1344.2575,-402.7337 1348.3627,-397.0638"/>
</g>
<!-- N30&#45;&gt;N31 -->
<g id="edge83" class="edge">
<title>N30&#45;&gt;N31</title>
<path fill="none" stroke="#000000" d="M1272.7071,-581.7542C1235.1301,-571.2608 1187.2177,-555.4379 1174,-540 1159.4849,-523.0468 1155.4647,-497.7039 1154.8004,-478.2264"/>
<polygon fill="#000000" stroke="#000000" points="1158.2995,-478.0753 1154.7312,-468.0995 1151.2997,-478.1232 1158.2995,-478.0753"/>
</g>
<!-- N70 -->
<g id="node71" class="node">
<title>N70</title>
<ellipse fill="none" stroke="#000000" cx="1074" cy="-450" rx="29.795" ry="18"/>
<text text-anchor="middle" x="1074" y="-446.3" font-family="Times,serif" font-size="14.00" fill="#000000">quasi</text>
</g>
<!-- N30&#45;&gt;N70 -->
<g id="edge84" class="edge">
<title>N30&#45;&gt;N70</title>
<path fill="none" stroke="#000000" d="M1266.6606,-584.1068C1232.3417,-576.0724 1188.1885,-562.3235 1154,-540 1128.0783,-523.0744 1105.3767,-495.6149 1090.8435,-475.4719"/>
<polygon fill="#000000" stroke="#000000" points="1093.5544,-473.2419 1084.9443,-467.0681 1087.8251,-477.2638 1093.5544,-473.2419"/>
</g>
<!-- N72 -->
<g id="node73" class="node">
<title>N72</title>
<ellipse fill="none" stroke="#000000" cx="1281" cy="-522" rx="64.9885" ry="18"/>
<text text-anchor="middle" x="1281" y="-518.3" font-family="Times,serif" font-size="14.00" fill="#000000">quasi_codegen</text>
</g>
<!-- N30&#45;&gt;N72 -->
<g id="edge85" class="edge">
<title>N30&#45;&gt;N72</title>
<path fill="none" stroke="#000000" d="M1311.1124,-576.2022C1306.4969,-567.8944 1300.9064,-557.8316 1295.8015,-548.6427"/>
<polygon fill="#000000" stroke="#000000" points="1298.8286,-546.8844 1290.9125,-539.8425 1292.7095,-550.2839 1298.8286,-546.8844"/>
</g>
<!-- N78 -->
<g id="node79" class="node">
<title>N78</title>
<ellipse fill="none" stroke="#000000" cx="925" cy="-450" rx="100.9827" ry="18"/>
<text text-anchor="middle" x="925" y="-446.3" font-family="Times,serif" font-size="14.00" fill="#000000">serde_codegen_internals</text>
</g>
<!-- N30&#45;&gt;N78 -->
<g id="edge86" class="edge">
<title>N30&#45;&gt;N78</title>
<path fill="none" stroke="#000000" d="M1267.9045,-583.4155C1224.9086,-574.1176 1163.1367,-559.1009 1111,-540 1058.8321,-520.8877 1001.709,-491.9604 964.7199,-472.089"/>
<polygon fill="#000000" stroke="#000000" points="966.2257,-468.9243 955.765,-467.2436 962.8944,-475.0808 966.2257,-468.9243"/>
</g>
<!-- N31&#45;&gt;N9 -->
<g id="edge87" class="edge">
<title>N31&#45;&gt;N9</title>
<path fill="none" stroke="#000000" d="M1181.6088,-437.9488C1204.8183,-427.0267 1239.4658,-410.722 1266.7707,-397.8726"/>
<polygon fill="#000000" stroke="#000000" points="1268.5339,-400.9111 1276.0918,-393.4862 1265.5533,-394.5774 1268.5339,-400.9111"/>
</g>
<!-- N31&#45;&gt;N71 -->
<g id="edge88" class="edge">
<title>N31&#45;&gt;N71</title>
<path fill="none" stroke="#000000" d="M1140.4267,-433.6856C1130.4292,-423.0897 1117.2576,-408.8991 1106,-396 1087.4294,-374.7216 1067.1044,-349.8833 1052.4622,-331.6971"/>
<polygon fill="#000000" stroke="#000000" points="1055.1501,-329.4544 1046.1613,-323.8461 1049.6908,-333.8358 1055.1501,-329.4544"/>
</g>
<!-- N69 -->
<g id="node70" class="node">
<title>N69</title>
<ellipse fill="none" stroke="#000000" cx="2857" cy="-90" rx="27" ry="18"/>
<text text-anchor="middle" x="2857" y="-86.3" font-family="Times,serif" font-size="14.00" fill="#000000">rand</text>
</g>
<!-- N32&#45;&gt;N69 -->
<g id="edge89" class="edge">
<title>N32&#45;&gt;N69</title>
<path fill="none" stroke="#000000" d="M2852.5141,-143.8314C2853.1558,-136.131 2853.9188,-126.9743 2854.6319,-118.4166"/>
<polygon fill="#000000" stroke="#000000" points="2858.1229,-118.6694 2855.4656,-108.4133 2851.1471,-118.088 2858.1229,-118.6694"/>
</g>
<!-- N33&#45;&gt;N14 -->
<g id="edge90" class="edge">
<title>N33&#45;&gt;N14</title>
<path fill="none" stroke="#000000" d="M1526.0842,-647.9964C1522.8556,-618.068 1515.9955,-556.2044 1509,-504 1493.9566,-391.7372 1482.5987,-364.6708 1471,-252 1468.88,-231.4062 1467.6158,-208.0623 1466.8891,-190.3103"/>
<polygon fill="#000000" stroke="#000000" points="1470.3865,-190.1723 1466.5121,-180.3114 1463.3915,-190.4362 1470.3865,-190.1723"/>
</g>
<!-- N33&#45;&gt;N15 -->
<g id="edge91" class="edge">
<title>N33&#45;&gt;N15</title>
<path fill="none" stroke="#000000" d="M1569.1844,-657.6538C1660.4011,-639.5228 1886.5523,-596.523 2078,-576 2387.7476,-542.7954 2471.0435,-593.14 2778,-540 2786.7033,-538.4933 2795.9235,-536.1308 2804.4565,-533.6073"/>
<polygon fill="#000000" stroke="#000000" points="2805.5763,-536.9245 2814.0857,-530.6125 2803.4974,-530.2403 2805.5763,-536.9245"/>
</g>
<!-- N33&#45;&gt;N29 -->
<g id="edge92" class="edge">
<title>N33&#45;&gt;N29</title>
<path fill="none" stroke="#000000" d="M1520.7715,-648.0535C1510.7751,-623.2347 1492.6452,-578.2224 1480.9728,-549.2428"/>
<polygon fill="#000000" stroke="#000000" points="1484.1201,-547.6886 1477.1374,-539.7204 1477.627,-550.3039 1484.1201,-547.6886"/>
</g>
<!-- N33&#45;&gt;N30 -->
<g id="edge93" class="edge">
<title>N33&#45;&gt;N30</title>
<path fill="none" stroke="#000000" d="M1493.3529,-653.9488C1460.0724,-642.373 1409.4095,-624.7511 1371.6134,-611.6047"/>
<polygon fill="#000000" stroke="#000000" points="1372.4054,-608.1745 1361.8106,-608.195 1370.1057,-614.786 1372.4054,-608.1745"/>
</g>
<!-- N33&#45;&gt;N31 -->
<g id="edge94" class="edge">
<title>N33&#45;&gt;N31</title>
<path fill="none" stroke="#000000" d="M1509.1798,-649.5645C1484.6413,-629.0514 1439.573,-594.4291 1395,-576 1316.3812,-543.4943 1276.1296,-589.5846 1207,-540 1185.8053,-524.7976 1172.2445,-497.8777 1164.4774,-477.4284"/>
<polygon fill="#000000" stroke="#000000" points="1167.7693,-476.2391 1161.1218,-467.9891 1161.1736,-478.5838 1167.7693,-476.2391"/>
</g>
<!-- N33&#45;&gt;N69 -->
<g id="edge95" class="edge">
<title>N33&#45;&gt;N69</title>
<path fill="none" stroke="#000000" d="M1530.787,-647.9298C1543.4058,-567.282 1596.1232,-243.0028 1632,-216 1729.3898,-142.6993 2625.4096,-100.0042 2819.8749,-91.5562"/>
<polygon fill="#000000" stroke="#000000" points="2820.0469,-95.0521 2829.8869,-91.1247 2819.7454,-88.0586 2820.0469,-95.0521"/>
</g>
<!-- N35 -->
<g id="node36" class="node">
<title>N35</title>
<ellipse fill="none" stroke="#000000" cx="3069" cy="-162" rx="46.2923" ry="18"/>
<text text-anchor="middle" x="3069" y="-158.3" font-family="Times,serif" font-size="14.00" fill="#000000">gdi32&#45;sys</text>
</g>
<!-- N35&#45;&gt;N36 -->
<g id="edge96" class="edge">
<title>N35&#45;&gt;N36</title>
<path fill="none" stroke="#000000" d="M3051.463,-144.937C3041.7644,-135.5005 3029.5716,-123.6373 3019.0007,-113.352"/>
<polygon fill="#000000" stroke="#000000" points="3021.2569,-110.6639 3011.6488,-106.1989 3016.3754,-115.681 3021.2569,-110.6639"/>
</g>
<!-- N37&#45;&gt;N14 -->
<g id="edge97" class="edge">
<title>N37&#45;&gt;N14</title>
<path fill="none" stroke="#000000" d="M1875.6503,-445.2812C1831.1054,-439.2126 1764.4658,-425.6612 1714,-396 1618.8697,-340.0874 1626.5867,-288.0365 1543,-216 1529.9118,-204.7203 1514.4871,-193.539 1500.8939,-184.302"/>
<polygon fill="#000000" stroke="#000000" points="1502.5263,-181.1831 1492.2687,-178.5313 1498.6338,-187.001 1502.5263,-181.1831"/>
</g>
<!-- N37&#45;&gt;N27 -->
<g id="edge98" class="edge">
<title>N37&#45;&gt;N27</title>
<path fill="none" stroke="#000000" d="M1878.2016,-442.5804C1829.0487,-433.6516 1755.5152,-417.1796 1737,-396 1704.6092,-358.948 1705.0481,-297.9388 1708.7295,-262.3089"/>
<polygon fill="#000000" stroke="#000000" points="1712.2357,-262.4646 1709.9434,-252.1207 1705.2848,-261.6364 1712.2357,-262.4646"/>
</g>
<!-- N38 -->
<g id="node39" class="node">
<title>N38</title>
<ellipse fill="none" stroke="#000000" cx="1786" cy="-378" rx="40.0939" ry="18"/>
<text text-anchor="middle" x="1786" y="-374.3" font-family="Times,serif" font-size="14.00" fill="#000000">itertools</text>
</g>
<!-- N37&#45;&gt;N38 -->
<g id="edge99" class="edge">
<title>N37&#45;&gt;N38</title>
<path fill="none" stroke="#000000" d="M1895.4063,-435.0816C1873.8962,-423.8589 1844.2972,-408.416 1821.3097,-396.4224"/>
<polygon fill="#000000" stroke="#000000" points="1822.708,-393.2043 1812.2231,-391.6816 1819.47,-399.4104 1822.708,-393.2043"/>
</g>
<!-- N39 -->
<g id="node40" class="node">
<title>N39</title>
<ellipse fill="none" stroke="#000000" cx="1924" cy="-378" rx="79.0865" ry="18"/>
<text text-anchor="middle" x="1924" y="-374.3" font-family="Times,serif" font-size="14.00" fill="#000000">lazy_static v0.1.16</text>
</g>
<!-- N37&#45;&gt;N39 -->
<g id="edge100" class="edge">
<title>N37&#45;&gt;N39</title>
<path fill="none" stroke="#000000" d="M1924,-431.8314C1924,-424.131 1924,-414.9743 1924,-406.4166"/>
<polygon fill="#000000" stroke="#000000" points="1927.5001,-406.4132 1924,-396.4133 1920.5001,-406.4133 1927.5001,-406.4132"/>
</g>
<!-- N40 -->
<g id="node41" class="node">
<title>N40</title>
<ellipse fill="none" stroke="#000000" cx="2073" cy="-378" rx="51.1914" ry="18"/>
<text text-anchor="middle" x="2073" y="-374.3" font-family="Times,serif" font-size="14.00" fill="#000000">quick&#45;error</text>
</g>
<!-- N37&#45;&gt;N40 -->
<g id="edge101" class="edge">
<title>N37&#45;&gt;N40</title>
<path fill="none" stroke="#000000" d="M1954.1524,-435.4297C1976.9994,-424.3896 2008.5952,-409.1218 2033.4665,-397.1034"/>
<polygon fill="#000000" stroke="#000000" points="2035.1561,-400.1743 2042.6371,-392.672 2032.1104,-393.8716 2035.1561,-400.1743"/>
</g>
<!-- N37&#45;&gt;N41 -->
<g id="edge102" class="edge">
<title>N37&#45;&gt;N41</title>
<path fill="none" stroke="#000000" d="M1965.1201,-439.6842C2020.4525,-425.8028 2118.1604,-401.2908 2172.2507,-387.7211"/>
<polygon fill="#000000" stroke="#000000" points="2173.2947,-391.0677 2182.1424,-385.2395 2171.5913,-384.2781 2173.2947,-391.0677"/>
</g>
<!-- N41&#45;&gt;N6 -->
<g id="edge103" class="edge">
<title>N41&#45;&gt;N6</title>
<path fill="none" stroke="#000000" d="M2186.1068,-366.9171C2179.6541,-364.3575 2172.6479,-361.847 2166,-360 2070.1149,-333.3606 2042.2497,-345.1213 1945,-324 1940.5715,-323.0382 1935.9969,-321.9632 1931.4181,-320.8302"/>
<polygon fill="#000000" stroke="#000000" points="1931.9984,-317.366 1921.4429,-318.2784 1930.2635,-324.1476 1931.9984,-317.366"/>
</g>
<!-- N41&#45;&gt;N7 -->
<g id="edge104" class="edge">
<title>N41&#45;&gt;N7</title>
<path fill="none" stroke="#000000" d="M2186.1793,-366.6403C2179.7251,-364.086 2172.7002,-361.6473 2166,-360 2089.4288,-341.175 1870.4986,-377.9577 1813,-324 1796.5507,-308.5637 1793.7604,-282.4513 1794.523,-262.3172"/>
<polygon fill="#000000" stroke="#000000" points="1798.0286,-262.3531 1795.2197,-252.1374 1791.0449,-261.875 1798.0286,-262.3531"/>
</g>
<!-- N73 -->
<g id="node74" class="node">
<title>N73</title>
<ellipse fill="none" stroke="#000000" cx="2134" cy="-306" rx="57.6901" ry="18"/>
<text text-anchor="middle" x="2134" y="-302.3" font-family="Times,serif" font-size="14.00" fill="#000000">regex&#45;syntax</text>
</g>
<!-- N41&#45;&gt;N73 -->
<g id="edge105" class="edge">
<title>N41&#45;&gt;N73</title>
<path fill="none" stroke="#000000" d="M2194.2921,-362.3771C2184.2296,-352.9679 2171.2056,-340.7896 2159.8386,-330.1608"/>
<polygon fill="#000000" stroke="#000000" points="2161.9854,-327.3764 2152.2906,-323.1029 2157.2044,-332.4894 2161.9854,-327.3764"/>
</g>
<!-- N74 -->
<g id="node75" class="node">
<title>N74</title>
<ellipse fill="none" stroke="#000000" cx="2266" cy="-306" rx="55.7903" ry="18"/>
<text text-anchor="middle" x="2266" y="-302.3" font-family="Times,serif" font-size="14.00" fill="#000000">thread_local</text>
</g>
<!-- N41&#45;&gt;N74 -->
<g id="edge106" class="edge">
<title>N41&#45;&gt;N74</title>
<path fill="none" stroke="#000000" d="M2223.7563,-361.3008C2230.4997,-352.4731 2238.9223,-341.4471 2246.4687,-331.5682"/>
<polygon fill="#000000" stroke="#000000" points="2249.2564,-333.6846 2252.5455,-323.6132 2243.6937,-329.4353 2249.2564,-333.6846"/>
</g>
<!-- N75 -->
<g id="node76" class="node">
<title>N75</title>
<ellipse fill="none" stroke="#000000" cx="2006" cy="-306" rx="51.9908" ry="18"/>
<text text-anchor="middle" x="2006" y="-302.3" font-family="Times,serif" font-size="14.00" fill="#000000">utf8&#45;ranges</text>
</g>
<!-- N41&#45;&gt;N75 -->
<g id="edge107" class="edge">
<title>N41&#45;&gt;N75</title>
<path fill="none" stroke="#000000" d="M2185.3935,-367.4747C2179.0796,-364.9577 2172.3164,-362.3272 2166,-360 2128.6044,-346.2222 2085.8086,-331.8504 2053.892,-321.4002"/>
<polygon fill="#000000" stroke="#000000" points="2054.9466,-318.0628 2044.3542,-318.288 2052.7751,-324.7175 2054.9466,-318.0628"/>
</g>
<!-- N42 -->
<g id="node43" class="node">
<title>N42</title>
<ellipse fill="none" stroke="#000000" cx="2410" cy="-306" rx="32.4942" ry="18"/>
<text text-anchor="middle" x="2410" y="-302.3" font-family="Times,serif" font-size="14.00" fill="#000000">hpack</text>
</g>
<!-- N42&#45;&gt;N27 -->
<g id="edge108" class="edge">
<title>N42&#45;&gt;N27</title>
<path fill="none" stroke="#000000" d="M2384.6554,-294.4435C2378.0573,-291.8931 2370.8691,-289.5053 2364,-288 2096.5453,-229.3903 2013.5241,-322.6691 1749,-252 1747.0253,-251.4725 1745.032,-250.8305 1743.0499,-250.1071"/>
<polygon fill="#000000" stroke="#000000" points="1743.9436,-246.6825 1733.3731,-245.9649 1741.1889,-253.1178 1743.9436,-246.6825"/>
</g>
<!-- N44&#45;&gt;N56 -->
<g id="edge109" class="edge">
<title>N44&#45;&gt;N56</title>
<path fill="none" stroke="#000000" d="M3531.567,-78.1413C3523.2389,-75.7899 3514.373,-73.5669 3506,-72 3289.3578,-31.4583 3024.014,-21.2127 2927.4167,-18.7446"/>
<polygon fill="#000000" stroke="#000000" points="2927.358,-15.2423 2917.276,-18.4987 2927.1882,-22.2402 2927.358,-15.2423"/>
</g>
<!-- N45&#45;&gt;N13 -->
<g id="edge110" class="edge">
<title>N45&#45;&gt;N13</title>
<path fill="none" stroke="#000000" d="M3074,-575.8314C3074,-568.131 3074,-558.9743 3074,-550.4166"/>
<polygon fill="#000000" stroke="#000000" points="3077.5001,-550.4132 3074,-540.4133 3070.5001,-550.4133 3077.5001,-550.4132"/>
</g>
<!-- N46&#45;&gt;N27 -->
<g id="edge111" class="edge">
<title>N46&#45;&gt;N27</title>
<path fill="none" stroke="#000000" d="M2335.1969,-360.1909C2342.0757,-339.9162 2348.9894,-307.1366 2331,-288 2286.6231,-240.7933 1811.5673,-268.8261 1749,-252 1747.0262,-251.4692 1745.0335,-250.8247 1743.052,-250.0994"/>
<polygon fill="#000000" stroke="#000000" points="1743.9467,-246.675 1733.3765,-245.9522 1741.1889,-253.1089 1743.9467,-246.675"/>
</g>
<!-- N46&#45;&gt;N42 -->
<g id="edge112" class="edge">
<title>N46&#45;&gt;N42</title>
<path fill="none" stroke="#000000" d="M2345.7928,-362.3771C2357.2609,-352.3075 2372.3411,-339.0663 2385.0048,-327.947"/>
<polygon fill="#000000" stroke="#000000" points="2387.3185,-330.5732 2392.5236,-321.3451 2382.6999,-325.3131 2387.3185,-330.5732"/>
</g>
<!-- N76 -->
<g id="node77" class="node">
<title>N76</title>
<ellipse fill="none" stroke="#000000" cx="3656" cy="-378" rx="59.5901" ry="18"/>
<text text-anchor="middle" x="3656" y="-374.3" font-family="Times,serif" font-size="14.00" fill="#000000">rustc_version</text>
</g>
<!-- N49&#45;&gt;N76 -->
<g id="edge113" class="edge">
<title>N49&#45;&gt;N76</title>
<path fill="none" stroke="#000000" d="M3656,-431.8314C3656,-424.131 3656,-414.9743 3656,-406.4166"/>
<polygon fill="#000000" stroke="#000000" points="3659.5001,-406.4132 3656,-396.4133 3652.5001,-406.4133 3659.5001,-406.4132"/>
</g>
<!-- N50&#45;&gt;N51 -->
<g id="edge114" class="edge">
<title>N50&#45;&gt;N51</title>
<path fill="none" stroke="#000000" d="M2648.739,-445.7315C2596.3271,-436.0593 2486.689,-409.3847 2522,-360 2535.2009,-341.5377 2591.3677,-325.4573 2632.9989,-315.7526"/>
<polygon fill="#000000" stroke="#000000" points="2633.9937,-319.1158 2642.968,-313.4843 2632.4406,-312.2902 2633.9937,-319.1158"/>
</g>
<!-- N52 -->
<g id="node53" class="node">
<title>N52</title>
<ellipse fill="none" stroke="#000000" cx="2791" cy="-378" rx="56.59" ry="18"/>
<text text-anchor="middle" x="2791" y="-374.3" font-family="Times,serif" font-size="14.00" fill="#000000">unicode&#45;bidi</text>
</g>
<!-- N50&#45;&gt;N52 -->
<g id="edge115" class="edge">
<title>N50&#45;&gt;N52</title>
<path fill="none" stroke="#000000" d="M2694.9411,-437.6228C2711.7565,-427.1856 2736.2131,-412.0056 2756.2403,-399.575"/>
<polygon fill="#000000" stroke="#000000" points="2758.1506,-402.5087 2764.8012,-394.2613 2754.459,-396.5612 2758.1506,-402.5087"/>
</g>
<!-- N53 -->
<g id="node54" class="node">
<title>N53</title>
<ellipse fill="none" stroke="#000000" cx="2624" cy="-378" rx="92.8835" ry="18"/>
<text text-anchor="middle" x="2624" y="-374.3" font-family="Times,serif" font-size="14.00" fill="#000000">unicode&#45;normalization</text>
</g>
<!-- N50&#45;&gt;N53 -->
<g id="edge116" class="edge">
<title>N50&#45;&gt;N53</title>
<path fill="none" stroke="#000000" d="M2663.4273,-433.6621C2657.2901,-424.9978 2649.6002,-414.1415 2642.6453,-404.3227"/>
<polygon fill="#000000" stroke="#000000" points="2645.4163,-402.1795 2636.78,-396.0423 2639.7041,-406.2257 2645.4163,-402.1795"/>
</g>
<!-- N52&#45;&gt;N51 -->
<g id="edge117" class="edge">
<title>N52&#45;&gt;N51</title>
<path fill="none" stroke="#000000" d="M2765.8124,-361.6621C2749.7984,-351.2746 2728.9274,-337.7367 2711.7784,-326.613"/>
<polygon fill="#000000" stroke="#000000" points="2713.4896,-323.5512 2703.1953,-321.0456 2709.6803,-329.4239 2713.4896,-323.5512"/>
</g>
<!-- N54&#45;&gt;N36 -->
<g id="edge118" class="edge">
<title>N54&#45;&gt;N36</title>
<path fill="none" stroke="#000000" d="M2779.8931,-150.0298C2828.185,-136.553 2906.1062,-114.8076 2953.7243,-101.5188"/>
<polygon fill="#000000" stroke="#000000" points="2954.7128,-104.8767 2963.404,-98.8175 2952.8312,-98.1344 2954.7128,-104.8767"/>
</g>
<!-- N57 -->
<g id="node58" class="node">
<title>N57</title>
<ellipse fill="none" stroke="#000000" cx="2850" cy="-306" rx="74.187" ry="18"/>
<text text-anchor="middle" x="2850" y="-302.3" font-family="Times,serif" font-size="14.00" fill="#000000">libressl&#45;pnacl&#45;sys</text>
</g>
<!-- N58 -->
<g id="node59" class="node">
<title>N58</title>
<ellipse fill="none" stroke="#000000" cx="2846" cy="-234" rx="77.9862" ry="18"/>
<text text-anchor="middle" x="2846" y="-230.3" font-family="Times,serif" font-size="14.00" fill="#000000">pnacl&#45;build&#45;helper</text>
</g>
<!-- N57&#45;&gt;N58 -->
<g id="edge119" class="edge">
<title>N57&#45;&gt;N58</title>
<path fill="none" stroke="#000000" d="M2848.9906,-287.8314C2848.5628,-280.131 2848.0541,-270.9743 2847.5787,-262.4166"/>
<polygon fill="#000000" stroke="#000000" points="2851.0724,-262.2037 2847.023,-252.4133 2844.0831,-262.592 2851.0724,-262.2037"/>
</g>
<!-- N58&#45;&gt;N32 -->
<g id="edge120" class="edge">
<title>N58&#45;&gt;N32</title>
<path fill="none" stroke="#000000" d="M2847.2617,-215.8314C2847.7965,-208.131 2848.4323,-198.9743 2849.0266,-190.4166"/>
<polygon fill="#000000" stroke="#000000" points="2852.52,-190.6317 2849.7213,-180.4133 2845.5368,-190.1467 2852.52,-190.6317"/>
</g>
<!-- N59&#45;&gt;N28 -->
<g id="edge121" class="edge">
<title>N59&#45;&gt;N28</title>
<path fill="none" stroke="#000000" d="M3306.3796,-736.1288C3181.0931,-731.4537 2867.3896,-717.1709 2607,-684 2438.4537,-662.529 2240.0087,-620.87 2157.2804,-602.76"/>
<polygon fill="#000000" stroke="#000000" points="2157.8303,-599.2973 2147.312,-600.5689 2156.3275,-606.1341 2157.8303,-599.2973"/>
</g>
<!-- N59&#45;&gt;N49 -->
<g id="edge122" class="edge">
<title>N59&#45;&gt;N49</title>
<path fill="none" stroke="#000000" d="M3403.0473,-725.671C3410.9478,-723.5719 3419.1934,-721.5672 3427,-720 3489.3717,-707.4786 3668.2814,-731.1395 3711,-684 3764.7337,-624.7054 3747.2491,-577.2336 3715,-504 3709.2028,-490.8353 3698.436,-479.4825 3687.671,-470.6309"/>
<polygon fill="#000000" stroke="#000000" points="3689.5816,-467.6849 3679.5216,-464.3611 3685.3131,-473.2329 3689.5816,-467.6849"/>
</g>
<!-- N60 -->
<g id="node61" class="node">
<title>N60</title>
<ellipse fill="none" stroke="#000000" cx="3675" cy="-666" rx="27" ry="18"/>
<text text-anchor="middle" x="3675" y="-662.3" font-family="Times,serif" font-size="14.00" fill="#000000">phf</text>
</g>
<!-- N59&#45;&gt;N60 -->
<g id="edge123" class="edge">
<title>N59&#45;&gt;N60</title>
<path fill="none" stroke="#000000" d="M3403.4565,-725.8626C3411.2448,-723.7696 3419.3451,-721.7179 3427,-720 3518.5419,-699.4558 3545.2919,-711.4668 3635,-684 3637.9627,-683.0929 3640.994,-682.0194 3643.9974,-680.8554"/>
<polygon fill="#000000" stroke="#000000" points="3645.5088,-684.017 3653.3769,-676.9217 3642.8014,-677.5617 3645.5088,-684.017"/>
</g>
<!-- N61 -->
<g id="node62" class="node">
<title>N61</title>
<ellipse fill="none" stroke="#000000" cx="3568" cy="-666" rx="57.6901" ry="18"/>
<text text-anchor="middle" x="3568" y="-662.3" font-family="Times,serif" font-size="14.00" fill="#000000">phf_codegen</text>
</g>
<!-- N59&#45;&gt;N61 -->
<g id="edge124" class="edge">
<title>N59&#45;&gt;N61</title>
<path fill="none" stroke="#000000" d="M3400.2642,-724.6261C3433.8726,-712.8795 3482.9449,-695.728 3519.3369,-683.0085"/>
<polygon fill="#000000" stroke="#000000" points="3520.9564,-686.1501 3529.2416,-679.5466 3518.6468,-679.5421 3520.9564,-686.1501"/>
</g>
<!-- N67 -->
<g id="node68" class="node">
<title>N67</title>
<ellipse fill="none" stroke="#000000" cx="3655" cy="-522" rx="51.1914" ry="18"/>
<text text-anchor="middle" x="3655" y="-518.3" font-family="Times,serif" font-size="14.00" fill="#000000">phf_shared</text>
</g>
<!-- N60&#45;&gt;N67 -->
<g id="edge125" class="edge">
<title>N60&#45;&gt;N67</title>
<path fill="none" stroke="#000000" d="M3675.8273,-647.9256C3676.3302,-629.6489 3676.2111,-600.6569 3672,-576 3670.5178,-567.3214 3667.9914,-558.1046 3665.333,-549.7888"/>
<polygon fill="#000000" stroke="#000000" points="3668.6057,-548.5405 3662.0863,-540.189 3661.9747,-550.7832 3668.6057,-548.5405"/>
</g>
<!-- N61&#45;&gt;N67 -->
<g id="edge126" class="edge">
<title>N61&#45;&gt;N67</title>
<path fill="none" stroke="#000000" d="M3597.9002,-650.3565C3612.5662,-641.1442 3629.1528,-628.1244 3639,-612 3650.3231,-593.459 3654.1115,-569.0117 3655.1856,-550.2767"/>
<polygon fill="#000000" stroke="#000000" points="3658.6841,-550.3791 3655.5374,-540.2623 3651.6884,-550.1333 3658.6841,-550.3791"/>
</g>
<!-- N68 -->
<g id="node69" class="node">
<title>N68</title>
<ellipse fill="none" stroke="#000000" cx="3568" cy="-594" rx="61.99" ry="18"/>
<text text-anchor="middle" x="3568" y="-590.3" font-family="Times,serif" font-size="14.00" fill="#000000">phf_generator</text>
</g>
<!-- N61&#45;&gt;N68 -->
<g id="edge127" class="edge">
<title>N61&#45;&gt;N68</title>
<path fill="none" stroke="#000000" d="M3568,-647.8314C3568,-640.131 3568,-630.9743 3568,-622.4166"/>
<polygon fill="#000000" stroke="#000000" points="3571.5001,-622.4132 3568,-612.4133 3564.5001,-622.4133 3571.5001,-622.4132"/>
</g>
<!-- N62&#45;&gt;N35 -->
<g id="edge128" class="edge">
<title>N62&#45;&gt;N35</title>
<path fill="none" stroke="#000000" d="M3119.2641,-362.0159C3106.7895,-352.5481 3092.7061,-339.3975 3085,-324 3063.5425,-281.1262 3063.4971,-223.9369 3065.9084,-190.2313"/>
<polygon fill="#000000" stroke="#000000" points="3069.4049,-190.4187 3066.7535,-180.161 3062.4294,-189.8332 3069.4049,-190.4187"/>
</g>
<!-- N62&#45;&gt;N56 -->
<g id="edge129" class="edge">
<title>N62&#45;&gt;N56</title>
<path fill="none" stroke="#000000" d="M3178.1776,-364.1874C3223.5472,-343.3216 3298,-299.1543 3298,-234 3298,-234 3298,-234 3298,-162 3298,-83.6479 3027.0555,-37.3683 2926.7577,-22.9208"/>
<polygon fill="#000000" stroke="#000000" points="2927.162,-19.4432 2916.77,-21.5065 2926.1805,-26.374 2927.162,-19.4432"/>
</g>
<!-- N62&#45;&gt;N57 -->
<g id="edge130" class="edge">
<title>N62&#45;&gt;N57</title>
<path fill="none" stroke="#000000" d="M3104.0654,-366.0633C3096.7448,-363.9728 3089.1571,-361.8704 3082,-360 3026.0866,-345.3877 2962.0843,-330.6373 2915.4858,-320.2538"/>
<polygon fill="#000000" stroke="#000000" points="2916.0404,-316.7917 2905.5194,-318.0404 2914.5227,-323.6252 2916.0404,-316.7917"/>
</g>
<!-- N64 -->
<g id="node65" class="node">
<title>N64</title>
<ellipse fill="none" stroke="#000000" cx="3144" cy="-306" rx="50.0912" ry="18"/>
<text text-anchor="middle" x="3144" y="-302.3" font-family="Times,serif" font-size="14.00" fill="#000000">pkg&#45;config</text>
</g>
<!-- N62&#45;&gt;N64 -->
<g id="edge131" class="edge">
<title>N62&#45;&gt;N64</title>
<path fill="none" stroke="#000000" d="M3144,-359.8314C3144,-352.131 3144,-342.9743 3144,-334.4166"/>
<polygon fill="#000000" stroke="#000000" points="3147.5001,-334.4132 3144,-324.4133 3140.5001,-334.4133 3147.5001,-334.4132"/>
</g>
<!-- N65 -->
<g id="node66" class="node">
<title>N65</title>
<ellipse fill="none" stroke="#000000" cx="3201" cy="-162" rx="49.2915" ry="18"/>
<text text-anchor="middle" x="3201" y="-158.3" font-family="Times,serif" font-size="14.00" fill="#000000">user32&#45;sys</text>
</g>
<!-- N62&#45;&gt;N65 -->
<g id="edge132" class="edge">
<title>N62&#45;&gt;N65</title>
<path fill="none" stroke="#000000" d="M3169.654,-362.0757C3182.2277,-352.7074 3196.1168,-339.6309 3203,-324 3222.2299,-280.3315 3215.0958,-223.4007 3208.0943,-189.96"/>
<polygon fill="#000000" stroke="#000000" points="3211.4591,-188.9686 3205.8593,-179.9746 3204.6281,-190.4976 3211.4591,-188.9686"/>
</g>
<!-- N63&#45;&gt;N34 -->
<g id="edge133" class="edge">
<title>N63&#45;&gt;N34</title>
<path fill="none" stroke="#000000" d="M3329.5032,-437.7627C3319.6737,-435.7685 3309.5534,-433.7763 3300,-432 3203.4537,-414.0483 3175.4101,-426.2986 3082,-396 3080.1057,-395.3856 3078.1869,-394.6848 3076.2727,-393.9246"/>
<polygon fill="#000000" stroke="#000000" points="3077.4331,-390.6105 3066.8731,-389.7525 3074.5932,-397.0085 3077.4331,-390.6105"/>
</g>
<!-- N63&#45;&gt;N56 -->
<g id="edge134" class="edge">
<title>N63&#45;&gt;N56</title>
<path fill="none" stroke="#000000" d="M3382.2344,-431.9623C3375.4975,-404.8344 3364,-351.8236 3364,-306 3364,-306 3364,-306 3364,-162 3364,-70.7671 3038.4557,-31.8505 2926.9473,-21.1965"/>
<polygon fill="#000000" stroke="#000000" points="2927.1245,-17.6979 2916.8424,-20.2529 2926.4736,-24.6676 2927.1245,-17.6979"/>
</g>
<!-- N63&#45;&gt;N62 -->
<g id="edge135" class="edge">
<title>N63&#45;&gt;N62</title>
<path fill="none" stroke="#000000" d="M3338.991,-435.7751C3296.9906,-423.3305 3236.2227,-405.3252 3193.7218,-392.7324"/>
<polygon fill="#000000" stroke="#000000" points="3194.4537,-389.2989 3183.8714,-389.8137 3192.465,-396.0105 3194.4537,-389.2989"/>
</g>
<!-- N65&#45;&gt;N36 -->
<g id="edge136" class="edge">
<title>N65&#45;&gt;N36</title>
<path fill="none" stroke="#000000" d="M3165.1175,-149.4586C3128.5045,-136.6618 3071.8508,-116.8605 3034.1104,-103.6697"/>
<polygon fill="#000000" stroke="#000000" points="3035.0685,-100.297 3024.4737,-100.3015 3032.7589,-106.905 3035.0685,-100.297"/>
</g>
<!-- N67&#45;&gt;N49 -->
<g id="edge137" class="edge">
<title>N67&#45;&gt;N49</title>
<path fill="none" stroke="#000000" d="M3655.2523,-503.8314C3655.3593,-496.131 3655.4865,-486.9743 3655.6053,-478.4166"/>
<polygon fill="#000000" stroke="#000000" points="3659.1049,-478.4609 3655.7443,-468.4133 3652.1056,-478.3637 3659.1049,-478.4609"/>
</g>
<!-- N68&#45;&gt;N67 -->
<g id="edge138" class="edge">
<title>N68&#45;&gt;N67</title>
<path fill="none" stroke="#000000" d="M3588.6178,-576.937C3600.0767,-567.4537 3614.4972,-555.5196 3626.9677,-545.1991"/>
<polygon fill="#000000" stroke="#000000" points="3629.3579,-547.7642 3634.8303,-538.6921 3624.8949,-542.3715 3629.3579,-547.7642"/>
</g>
<!-- N68&#45;&gt;N69 -->
<g id="edge139" class="edge">
<title>N68&#45;&gt;N69</title>
<path fill="none" stroke="#000000" d="M3561.1699,-575.8592C3548.2335,-543.5012 3517.419,-475.1801 3473,-432 3306.1293,-269.7836 3216.9595,-293.8747 3014,-180 2969.2362,-154.8843 2917.6656,-125.1709 2886.207,-106.9569"/>
<polygon fill="#000000" stroke="#000000" points="2887.9119,-103.8998 2877.5047,-101.9147 2884.4025,-109.9565 2887.9119,-103.8998"/>
</g>
<!-- N69&#45;&gt;N56 -->
<g id="edge140" class="edge">
<title>N69&#45;&gt;N56</title>
<path fill="none" stroke="#000000" d="M2864.9884,-72.5708C2868.8392,-64.1691 2873.5417,-53.9091 2877.8256,-44.5623"/>
<polygon fill="#000000" stroke="#000000" points="2881.1003,-45.8177 2882.0852,-35.2687 2874.7369,-42.901 2881.1003,-45.8177"/>
</g>
<!-- N70&#45;&gt;N9 -->
<g id="edge141" class="edge">
<title>N70&#45;&gt;N9</title>
<path fill="none" stroke="#000000" d="M1097.2494,-438.5166C1102.3723,-436.1991 1107.8174,-433.8955 1113,-432 1157.9783,-415.5498 1210.3399,-401.3674 1249.622,-391.6703"/>
<polygon fill="#000000" stroke="#000000" points="1250.6852,-395.0135 1259.5696,-389.2413 1249.0247,-388.2133 1250.6852,-395.0135"/>
</g>
<!-- N70&#45;&gt;N71 -->
<g id="edge142" class="edge">
<title>N70&#45;&gt;N71</title>
<path fill="none" stroke="#000000" d="M1068.7656,-432.0535C1061.5976,-407.4774 1048.6544,-363.1008 1040.1951,-334.0974"/>
<polygon fill="#000000" stroke="#000000" points="1043.4604,-332.7927 1037.3004,-324.1727 1036.7404,-334.7527 1043.4604,-332.7927"/>
</g>
<!-- N71&#45;&gt;N14 -->
<g id="edge143" class="edge">
<title>N71&#45;&gt;N14</title>
<path fill="none" stroke="#000000" d="M1031.9826,-287.7075C1033.0298,-266.9786 1038.1385,-233.7729 1059,-216 1084.1568,-194.5678 1286.4709,-175.8478 1396.0546,-167.1587"/>
<polygon fill="#000000" stroke="#000000" points="1396.3432,-170.6469 1406.0384,-166.3745 1395.795,-163.6684 1396.3432,-170.6469"/>
</g>
<!-- N71&#45;&gt;N27 -->
<g id="edge144" class="edge">
<title>N71&#45;&gt;N27</title>
<path fill="none" stroke="#000000" d="M1084.3128,-296.822C1103.0944,-293.7311 1124.4589,-290.4488 1144,-288 1320.6718,-265.8601 1365.7961,-269.3745 1543,-252 1588.9073,-247.4989 1641.7329,-241.8285 1676.1553,-238.0678"/>
<polygon fill="#000000" stroke="#000000" points="1676.6598,-241.5335 1686.2192,-236.9653 1675.8975,-234.5751 1676.6598,-241.5335"/>
</g>
<!-- N71&#45;&gt;N56 -->
<g id="edge145" class="edge">
<title>N71&#45;&gt;N56</title>
<path fill="none" stroke="#000000" d="M1027.3187,-287.7125C1023.445,-268.2009 1020.6364,-237.2381 1035,-216 1123.9636,-84.4581 1207.2041,-107.4404 1362,-72 1511.3266,-37.8118 2633.8062,-21.3722 2852.963,-18.4714"/>
<polygon fill="#000000" stroke="#000000" points="2853.0422,-21.9708 2862.9954,-18.3398 2852.9503,-14.9714 2853.0422,-21.9708"/>
</g>
<!-- N71&#45;&gt;N79 -->
<g id="edge146" class="edge">
<title>N71&#45;&gt;N79</title>
<path fill="none" stroke="#000000" d="M1052.8548,-288.937C1064.4454,-279.4537 1079.0316,-267.5196 1091.6455,-257.1991"/>
<polygon fill="#000000" stroke="#000000" points="1094.0752,-259.7334 1099.5985,-250.6921 1089.6426,-254.3157 1094.0752,-259.7334"/>
</g>
<!-- N71&#45;&gt;N80 -->
<g id="edge147" class="edge">
<title>N71&#45;&gt;N80</title>
<path fill="none" stroke="#000000" d="M1085.2478,-297.3121C1103.8304,-294.3147 1124.8296,-290.9663 1144,-288 1262.991,-269.5883 1404.117,-248.9329 1469.8547,-239.3796"/>
<polygon fill="#000000" stroke="#000000" points="1470.7226,-242.7904 1480.1159,-237.8897 1469.7167,-235.8631 1470.7226,-242.7904"/>
</g>
<!-- N71&#45;&gt;N81 -->
<g id="edge148" class="edge">
<title>N71&#45;&gt;N81</title>
<path fill="none" stroke="#000000" d="M1074.3709,-293.1278C1115.0096,-280.7819 1176.3637,-262.1427 1219.2922,-249.1011"/>
<polygon fill="#000000" stroke="#000000" points="1220.4192,-252.4167 1228.97,-246.161 1218.3844,-245.719 1220.4192,-252.4167"/>
</g>
<!-- N72&#45;&gt;N8 -->
<g id="edge149" class="edge">
<title>N72&#45;&gt;N8</title>
<path fill="none" stroke="#000000" d="M1294.8427,-504.2022C1301.857,-495.1839 1310.4797,-484.0975 1318.0954,-474.3059"/>
<polygon fill="#000000" stroke="#000000" points="1321.0863,-476.1613 1324.463,-466.119 1315.5608,-471.8637 1321.0863,-476.1613"/>
</g>
<!-- N72&#45;&gt;N9 -->
<g id="edge150" class="edge">
<title>N72&#45;&gt;N9</title>
<path fill="none" stroke="#000000" d="M1284.5462,-503.7623C1289.3431,-479.0928 1297.9439,-434.8598 1303.5608,-405.9731"/>
<polygon fill="#000000" stroke="#000000" points="1307.0095,-406.5738 1305.4826,-396.0896 1300.1381,-405.2377 1307.0095,-406.5738"/>
</g>
<!-- N72&#45;&gt;N31 -->
<g id="edge151" class="edge">
<title>N72&#45;&gt;N31</title>
<path fill="none" stroke="#000000" d="M1252.6356,-505.6621C1233.3963,-494.5803 1207.932,-479.9128 1187.9731,-468.4165"/>
<polygon fill="#000000" stroke="#000000" points="1189.6446,-465.3402 1179.2323,-463.3818 1186.1507,-471.4059 1189.6446,-465.3402"/>
</g>
<!-- N72&#45;&gt;N71 -->
<g id="edge152" class="edge">
<title>N72&#45;&gt;N71</title>
<path fill="none" stroke="#000000" d="M1266.4217,-504.2489C1250.6397,-485.4652 1224.3192,-455.3679 1199,-432 1160.587,-396.5474 1147.7836,-391.4098 1106,-360 1092.2344,-349.6521 1076.8747,-338.397 1063.7322,-328.8535"/>
<polygon fill="#000000" stroke="#000000" points="1065.6062,-325.8892 1055.4548,-322.8559 1061.499,-331.5576 1065.6062,-325.8892"/>
</g>
<!-- N82 -->
<g id="node83" class="node">
<title>N82</title>
<ellipse fill="none" stroke="#000000" cx="2652" cy="-234" rx="43.5923" ry="18"/>
<text text-anchor="middle" x="2652" y="-230.3" font-family="Times,serif" font-size="14.00" fill="#000000">thread&#45;id</text>
</g>
<!-- N74&#45;&gt;N82 -->
<g id="edge153" class="edge">
<title>N74&#45;&gt;N82</title>
<path fill="none" stroke="#000000" d="M2314.4963,-296.9541C2388.177,-283.2105 2527.6034,-257.2035 2602.1058,-243.3067"/>
<polygon fill="#000000" stroke="#000000" points="2602.9853,-246.7031 2612.174,-241.4287 2601.7017,-239.8218 2602.9853,-246.7031"/>
</g>
<!-- N77 -->
<g id="node78" class="node">
<title>N77</title>
<ellipse fill="none" stroke="#000000" cx="3656" cy="-306" rx="37.0935" ry="18"/>
<text text-anchor="middle" x="3656" y="-302.3" font-family="Times,serif" font-size="14.00" fill="#000000">semver</text>
</g>
<!-- N76&#45;&gt;N77 -->
<g id="edge154" class="edge">
<title>N76&#45;&gt;N77</title>
<path fill="none" stroke="#000000" d="M3656,-359.8314C3656,-352.131 3656,-342.9743 3656,-334.4166"/>
<polygon fill="#000000" stroke="#000000" points="3659.5001,-334.4132 3656,-324.4133 3652.5001,-334.4133 3659.5001,-334.4132"/>
</g>
<!-- N78&#45;&gt;N9 -->
<g id="edge155" class="edge">
<title>N78&#45;&gt;N9</title>
<path fill="none" stroke="#000000" d="M994.5395,-436.9613C1066.2269,-423.52 1177.005,-402.7491 1246.14,-389.7862"/>
<polygon fill="#000000" stroke="#000000" points="1246.8448,-393.2152 1256.0285,-387.9322 1245.5547,-386.3351 1246.8448,-393.2152"/>
</g>
<!-- N78&#45;&gt;N71 -->
<g id="edge156" class="edge">
<title>N78&#45;&gt;N71</title>
<path fill="none" stroke="#000000" d="M938.3353,-432.0535C957.0186,-406.9096 991.1025,-361.0396 1012.5972,-332.1122"/>
<polygon fill="#000000" stroke="#000000" points="1015.6778,-333.8346 1018.8328,-323.7204 1010.0591,-329.6595 1015.6778,-333.8346"/>
</g>
<!-- N79&#45;&gt;N14 -->
<g id="edge157" class="edge">
<title>N79&#45;&gt;N14</title>
<path fill="none" stroke="#000000" d="M1164.6329,-224.6446C1177.9412,-221.8587 1192.5603,-218.8021 1206,-216 1274.4745,-201.7233 1353.1092,-185.4017 1405.8094,-174.4737"/>
<polygon fill="#000000" stroke="#000000" points="1406.5848,-177.8874 1415.666,-172.43 1405.1636,-171.0332 1406.5848,-177.8874"/>
</g>
<!-- N80&#45;&gt;N36 -->
<g id="edge158" class="edge">
<title>N80&#45;&gt;N36</title>
<path fill="none" stroke="#000000" d="M1533.4165,-229.4127C1557.0843,-225.4277 1592.7778,-219.726 1624,-216 2186.0508,-148.9264 2331.7218,-181.2584 2893,-108 2912.3178,-105.4786 2933.5531,-101.8676 2951.6232,-98.5407"/>
<polygon fill="#000000" stroke="#000000" points="2952.3945,-101.9572 2961.5804,-96.6779 2951.1073,-95.0766 2952.3945,-101.9572"/>
</g>
<!-- N80&#45;&gt;N54 -->
<g id="edge159" class="edge">
<title>N80&#45;&gt;N54</title>
<path fill="none" stroke="#000000" d="M1533.386,-229.1363C1557.0339,-224.9697 1592.7151,-219.1568 1624,-216 1828.6629,-195.3485 2461.3424,-171.7439 2669.6982,-164.3434"/>
<polygon fill="#000000" stroke="#000000" points="2670.0138,-167.8345 2679.8836,-163.9826 2669.7659,-160.8389 2670.0138,-167.8345"/>
</g>
<!-- N82&#45;&gt;N54 -->
<g id="edge160" class="edge">
<title>N82&#45;&gt;N54</title>
<path fill="none" stroke="#000000" d="M2671.2878,-217.6621C2682.4579,-208.2004 2696.7139,-196.1247 2709.0908,-185.6407"/>
<polygon fill="#000000" stroke="#000000" points="2711.5334,-188.1587 2716.9016,-179.0245 2707.0089,-182.8173 2711.5334,-188.1587"/>
</g>
<!-- N82&#45;&gt;N56 -->
<g id="edge161" class="edge">
<title>N82&#45;&gt;N56</title>
<path fill="none" stroke="#000000" d="M2651.6329,-215.6928C2652.137,-196.1642 2655.6047,-165.187 2671,-144 2717.3166,-80.259 2806.4558,-43.9339 2855.5208,-27.9327"/>
<polygon fill="#000000" stroke="#000000" points="2856.586,-31.2668 2865.0639,-24.9127 2854.4739,-24.593 2856.586,-31.2668"/>
</g>
</g>
</svg>
